<svg xmlns="http://www.w3.org/2000/svg">
<defs>
<font id="DoppioOne-Regular" horiz-adv-x="1276" >
  <font-face 
    font-family="Doppio One"
    font-weight="400"
    font-stretch="normal"
    units-per-em="2048"
    panose-1="2 1 6 3 3 0 0 2 8 4"
    ascent="1638"
    descent="-410"
    x-height="1055"
    cap-height="1427"
    bbox="-99 -500.002 2216 2060"
    underline-thickness="102"
    underline-position="-103"
    unicode-range="U+0020-U+FB02"
  />
<missing-glyph horiz-adv-x="1092" 
d="M459 299c-9.33301 8 -17.834 15.999 -25.501 23.999s-15 16.667 -22 26s-13.667 19.833 -20 31.5s-12.5 25.5 -18.5 41.5l-299 766l92 260l131 53l139 53l242 -122l303 -768c9.33301 -24 15.5 -44 18.5 -60s4.5 -31.333 4.5 -46c0 -14 -1 -29.333 -3 -46l-61 -377
c-6 -41.333 -13.833 -71.833 -23.5 -91.5s-21.5 -32.167 -35.5 -37.5c-4.66699 -1.33301 -10.167 -1.5 -16.5 -0.5s-14.166 3.66699 -23.499 8s-20.5 10.833 -33.5 19.5s-28.833 20.334 -47.5 35.001zM521.999 1227l62 147l-154 82l-96 -39l-103 -39l-57 -161l152 -68z
M267.999 1268c-3.33301 8.66699 -3.66895 18.3311 -1.00195 28.998s8 21 16 31s18 19.5 30 28.5s25.667 16.167 41 21.5c22.667 9.33301 44 14 64 14c17.333 0 32.333 -3.16699 45 -9.5s21.334 -15.166 26.001 -26.499c4 -9.33301 4.83301 -19.333 2.5 -30
s-7.16602 -21.167 -14.499 -31.5s-17 -20 -29 -29s-25.333 -16.5 -40 -22.5c-22.667 -9.33301 -44.334 -14 -65.001 -14c-18 0 -33.667 3.33301 -47 10s-22.666 16.334 -27.999 29.001zM851.996 550.996l19 21.5c6 7 11 13.167 15 18.5l13 19l-258 666l-43 -94z
M642.996 437.996c3.33301 0 9.50195 1.16895 18.502 3.50195s24.833 8.83301 47.5 19.5c9.33301 3.33301 18.166 6.66602 26.499 9.99902s15.5 6.66602 21.5 9.99902c7.33301 3.33301 13.666 7 18.999 11l-63.5 161l-62.5 157.5l-62.5 157.5l-63.5 162l-71 -26l-66 -29
l127.5 -318.5zM458.998 439.998c3.33301 -1.33301 8.66699 -2.66699 16 -4c6 -1.33301 14.5 -2.33301 25.5 -3s25.167 -1 42.5 -1l-248 631l-92 41l128.5 -331.5zM747.999 196.997l-3.00098 1.99707c13.333 -8.66699 24.833 -14 34.5 -16s20.834 -1 33.501 3h-2

<glyph glyph-name=".notdef" unicode="ewiplogo" horiz-adv-x="1092" 
d="M459 299c-9.33301 8 -17.834 15.999 -25.501 23.999s-15 16.667 -22 26s-13.667 19.833 -20 31.5s-12.5 25.5 -18.5 41.5l-299 766l92 260l131 53l139 53l242 -122l303 -768c9.33301 -24 15.5 -44 18.5 -60s4.5 -31.333 4.5 -46c0 -14 -1 -29.333 -3 -46l-61 -377
c-6 -41.333 -13.833 -71.833 -23.5 -91.5s-21.5 -32.167 -35.5 -37.5c-4.66699 -1.33301 -10.167 -1.5 -16.5 -0.5s-14.166 3.66699 -23.499 8s-20.5 10.833 -33.5 19.5s-28.833 20.334 -47.5 35.001zM521.999 1227l62 147l-154 82l-96 -39l-103 -39l-57 -161l152 -68z
M267.999 1268c-3.33301 8.66699 -3.66895 18.3311 -1.00195 28.998s8 21 16 31s18 19.5 30 28.5s25.667 16.167 41 21.5c22.667 9.33301 44 14 64 14c17.333 0 32.333 -3.16699 45 -9.5s21.334 -15.166 26.001 -26.499c4 -9.33301 4.83301 -19.333 2.5 -30
s-7.16602 -21.167 -14.499 -31.5s-17 -20 -29 -29s-25.333 -16.5 -40 -22.5c-22.667 -9.33301 -44.334 -14 -65.001 -14c-18 0 -33.667 3.33301 -47 10s-22.666 16.334 -27.999 29.001zM851.996 550.996l19 21.5c6 7 11 13.167 15 18.5l13 19l-258 666l-43 -94z
M642.996 437.996c3.33301 0 9.50195 1.16895 18.502 3.50195s24.833 8.83301 47.5 19.5c9.33301 3.33301 18.166 6.66602 26.499 9.99902s15.5 6.66602 21.5 9.99902c7.33301 3.33301 13.666 7 18.999 11l-63.5 161l-62.5 157.5l-62.5 157.5l-63.5 162l-71 -26l-66 -29
l127.5 -318.5zM458.998 439.998c3.33301 -1.33301 8.66699 -2.66699 16 -4c6 -1.33301 14.5 -2.33301 25.5 -3s25.167 -1 42.5 -1l-248 631l-92 41l128.5 -331.5zM747.999 196.997l-3.00098 1.99707c13.333 -8.66699 24.833 -14 34.5 -16s20.834 -1 33.501 3h-2
c16.667 6.66699 28 14.334 34 23.001s11 20.334 15 35.001v-2c1.33301 4.66699 2.83301 11.667 4.5 21l5.5 31c2 11.333 4 23.333 6 36l6 38l15 95c-15.333 -16.667 -35.5 -33.5 -60.5 -50.5s-55.5 -32.167 -91.5 -45.5c-34 -13.333 -65.5 -22.166 -94.5 -26.499
s-54.833 -6.5 -77.5 -6.5h-6z" />
    <glyph glyph-name="IJ" unicode="IJ" horiz-adv-x="1307" 
d="M182 1427h240v-1427h-240v1427zM615 182l48 -2.00098c14 -0.666992 29 -1.16699 45 -1.5s31.333 -0.5 46 -0.5c22.667 0 42.167 1 58.5 3s29.833 7.33301 40.5 16s18.667 21.834 24 39.501s8 42.5 8 74.5v1116h241l1 -1189c0 -50.667 -5.83301 -92.834 -17.5 -126.501
s-29 -60.667 -52 -81s-51.5 -34.666 -85.5 -42.999s-73.333 -12.5 -118 -12.5c-32 0 -62.333 1.66699 -91 5s-54 7.33301 -76 12c-26 5.33301 -50 11.333 -72 18v172z" />
    <glyph glyph-name="ij" unicode="ij" horiz-adv-x="1188" 
d="M303 1234c-27.333 0 -49.833 2 -67.5 6s-32 11 -43 21s-18.667 23.667 -23 41s-6.5 39.666 -6.5 66.999s2.16699 49.833 6.5 67.5s12 31.834 23 42.501s25.333 18 43 22s40.167 6 67.5 6s49.833 -2 67.5 -6s31.834 -11.333 42.501 -22s18 -24.834 22 -42.501
s6 -40.167 6 -67.5s-2 -49.666 -6 -66.999s-11.333 -31 -22 -41s-24.834 -17 -42.501 -21s-40.167 -6 -67.5 -6zM184 1055h238v-1055h-238v1055zM885 1224c-27.333 0 -49.833 2 -67.5 6s-31.834 11 -42.501 21s-18 23.667 -22 41s-6 39.666 -6 66.999s2 49.833 6 67.5
s11.333 31.834 22 42.501s24.834 18 42.501 22s40.167 6 67.5 6c26.667 0 49 -2 67 -6s32.5 -11.333 43.5 -22s18.667 -24.834 23 -42.501s6.5 -40.167 6.5 -67.5s-2.16699 -49.666 -6.5 -66.999s-12 -31 -23 -41s-25.5 -17 -43.5 -21s-40.333 -6 -67 -6zM518 -286
c12.667 -1.33301 26.999 -2.33398 42.999 -3.00098c13.333 -1.33301 28.833 -2.16602 46.5 -2.49902s36.5 -0.5 56.5 -0.5c15.333 0 29.333 1 42 3s23.667 6.16699 33 12.5s16.5 15.166 21.5 26.499s7.5 26 7.5 44v1261h238v-1321c0 -47.333 -6.66699 -86.166 -20 -116.499
s-31.166 -54 -53.499 -71s-47.833 -28.667 -76.5 -35s-58 -9.5 -88 -9.5c-39.333 0 -74.5 2.33301 -105.5 7s-57.167 10 -78.5 16c-25.333 7.33301 -47.333 15.333 -66 24v165z" />
    <glyph glyph-name="ff" unicode="ff" horiz-adv-x="1477" 
d="M237 860l-147 0.00390625v195h147v123c0 63.333 10.833 116.166 32.5 158.499s51.167 76.166 88.5 101.499s81.333 43.166 132 53.499s105 15.5 163 15.5c62 0 115.5 -3 160.5 -9s80.5 -12 106.5 -18c15.333 18 33 32.833 53 44.5s41.833 20.667 65.5 27
s49 10.833 76 13.5s54.833 4 83.5 4c46 0 88 -2.83301 126 -8.5s71 -11.834 99 -18.501c32 -7.33301 61.333 -16 88 -26v-173c-29.333 3.33301 -58 6.33301 -86 9c-24 2.66699 -49.167 5 -75.5 7s-48.833 3 -67.5 3c-44 0 -78.333 -3.16699 -103 -9.5
s-43.167 -15.333 -55.5 -27s-19.833 -25.5 -22.5 -41.5s-4 -33.667 -4 -53v-176h265v-195h-265v-860h-239v860h-383v-860h-238v860zM858 1055l-0.000976562 217.001v14c-22.667 1.33301 -47.167 2.66602 -73.5 3.99902s-53.833 2 -82.5 2
c-45.333 0 -82.666 -3.66699 -111.999 -11s-52.5 -17.833 -69.5 -31.5s-28.833 -29.667 -35.5 -48s-10 -38.5 -10 -60.5v-86h383z" />
    <glyph glyph-name="fi" unicode="fi" horiz-adv-x="1316" 
d="M264 860l-174.004 0.00292969v195h174v180c0 72 10.333 131.167 31 177.5s49.834 82.666 87.501 108.999s83 44.5 136 54.5s112.167 15 177.5 15c44.667 0 87.667 -2.5 129 -7.5s78 -10.167 110 -15.5c37.333 -6.66699 72.333 -14 105 -22v-188
c-34 3.33301 -68.667 6.33301 -104 9c-30 2 -63.167 4 -99.5 6s-70.833 3 -103.5 3c-41.333 0 -76.666 -2.5 -105.999 -7.5s-53.166 -13.833 -71.499 -26.5s-31.666 -29.334 -39.999 -50.001s-12.5 -46.334 -12.5 -77.001v-160h650v-1055h-238v860h-412v-860h-239v860z" />
    <glyph glyph-name="fl" unicode="fl" horiz-adv-x="1302" 
d="M237 858l-147 0.000976562v197h147v217c0 62.667 11.833 114.5 35.5 155.5s56.667 73.167 99 96.5s92.5 39.666 150.5 48.999s121.333 14 190 14c60 0 115.667 -3.66699 167 -11s96 -15.666 134 -24.999c44.667 -10.667 85.667 -22.334 123 -35.001v-1516h-237v858h-424
v-858h-238v858zM899 1055l-0.00195312 310.001c-28 2.66699 -59.167 5.16699 -93.5 7.5s-68.166 3.5 -101.499 3.5c-41.333 0 -76.5 -2.5 -105.5 -7.5s-52.667 -13.167 -71 -24.5s-31.666 -26.333 -39.999 -45s-12.5 -41.334 -12.5 -68.001v-176h424z" />
    <glyph glyph-name="space" unicode=" " horiz-adv-x="512" 
 />
    <glyph glyph-name="exclam" unicode="!" horiz-adv-x="513" 
d="M172 1427h240v-991h-240v991zM139 139c0 31.333 2.16699 56.833 6.5 76.5s12.333 35.167 24 46.5s27.334 19 47.001 23s44.5 6 74.5 6c30.667 0 56 -2 76 -6s35.667 -11.667 47 -23s19.333 -26.833 24 -46.5s7 -45.167 7 -76.5c0 -30.667 -2.33301 -55.834 -7 -75.501
s-12.667 -35.334 -24 -47.001s-27 -19.667 -47 -24s-45.333 -6.5 -76 -6.5c-30 0 -54.833 2.16699 -74.5 6.5s-35.334 12.333 -47.001 24s-19.667 27.334 -24 47.001s-6.5 44.834 -6.5 75.501z" />
    <glyph glyph-name="quotedbl" unicode="&#x22;" horiz-adv-x="860" 
d="M507 1630h238l-23 -483h-192zM114 1630h238l-23 -483h-192z" />
    <glyph glyph-name="numbersign" unicode="#" horiz-adv-x="1319" 
d="M257 376h-197v184h239l71 309h-206v184h249l86 375h210l-86 -375h274l86 375h210l-86 -375h200v-184h-243l-71 -309h210v-184h-252l-86 -376h-210l86 376h-274l-86 -376h-210zM783 560l71 309h-274l-71 -309h274z" />
    <glyph glyph-name="dollar" unicode="$" horiz-adv-x="1110" 
d="M120 213c34 -4.66699 70.6641 -8.65918 109.997 -11.9922c34 -3.33301 72.833 -6 116.5 -8s89.834 -3 138.501 -3c64.667 0 116 4.16699 154 12.5s67 20.666 87 36.999s32.833 36.5 38.5 60.5s8.5 51.667 8.5 83c0 24.667 -1.16699 47.167 -3.5 67.5
s-7.83301 38.5 -16.5 54.5s-21 29.833 -37 41.5s-38 21.167 -66 28.5l-291 76c-46 12 -85 28.167 -117 48.5s-57.833 46.166 -77.5 77.499s-34 69.166 -43 113.499s-13.5 96.5 -13.5 156.5c0 61.333 8 115.333 24 162s38.833 86.5 68.5 119.5s65.667 59.5 108 79.5
s89.833 33.667 142.5 41v183h235v-183c38.667 -4 73.834 -9 105.501 -15s58.834 -11.667 81.501 -17c26.667 -6.66699 50 -13.334 70 -20.001v-185c-30 4 -61.667 7.66699 -95 11c-28.667 3.33301 -60.834 6.16602 -96.501 8.49902s-72.5 3.5 -110.5 3.5
c-59.333 0 -108 -2 -146 -6s-68 -12.333 -90 -25s-37.333 -30.667 -46 -54s-13 -54.333 -13 -93c0 -21.333 1.16699 -40.333 3.5 -57s7.66602 -31.334 15.999 -44.001s20.333 -23.667 36 -33s36.834 -18 63.501 -26l271 -78c34.667 -10 65.5 -20.5 92.5 -31.5
s50.5 -24 70.5 -39s37.167 -32.5 51.5 -52.5s25.833 -43.833 34.5 -71.5s15 -60.167 19 -97.5s6 -80.333 6 -129c0 -64.667 -4.66699 -121.334 -14 -170.001s-26 -90.167 -50 -124.5s-57 -61.833 -99 -82.5s-95.667 -35 -161 -43v-183h-235v176
c-62.667 2 -115.167 6.66699 -157.5 14s-76.166 14.666 -101.499 21.999c-30.667 8.66699 -54.667 18.667 -72 30v176z" />
    <glyph glyph-name="percent" unicode="%" horiz-adv-x="1526" 
d="M1134 1554h223l-952 -1554h-221zM386 838c-49.333 0 -93.666 5.83301 -132.999 17.5s-73 31.334 -101 59.001s-49.5 64.334 -64.5 110.001s-22.5 102.834 -22.5 171.501c0 69.333 7.5 127 22.5 173s36.5 82.667 64.5 110s61.667 46.666 101 57.999s83.666 17 132.999 17
c48.667 0 92.834 -5.66699 132.501 -17s73.5 -30.666 101.5 -57.999s49.667 -64 65 -110s23 -103.667 23 -173c0 -68.667 -7.66699 -125.834 -23 -171.501s-37 -82.334 -65 -110.001s-61.833 -47.334 -101.5 -59.001s-83.834 -17.5 -132.501 -17.5zM386 1022
c22.667 0 42 2.5 58 7.5s29.167 14 39.5 27s17.833 30.667 22.5 53s7 51.166 7 86.499s-2.33301 64.166 -7 86.499s-12.167 40 -22.5 53s-23.5 22 -39.5 27s-35.333 7.5 -58 7.5c-21.333 0 -40 -2.5 -56 -7.5s-29.333 -14 -40 -27s-18.5 -30.667 -23.5 -53
s-7.5 -51.166 -7.5 -86.499s2.5 -64.166 7.5 -86.499s12.833 -40 23.5 -53s24 -22 40 -27s34.667 -7.5 56 -7.5zM822 328c0 68.667 7.66699 125.834 23 171.501s37 82.334 65 110.001s61.833 47.334 101.5 59.001s83.834 17.5 132.501 17.5c49.333 0 94 -5.83301 134 -17.5
s74 -31.334 102 -59.001s49.667 -64.334 65 -110.001s23 -102.834 23 -171.501c0 -69.333 -7.66699 -127 -23 -173s-37 -82.833 -65 -110.5s-62 -47.167 -102 -58.5s-84.667 -17 -134 -17c-48.667 0 -92.834 5.66699 -132.501 17s-73.5 30.833 -101.5 58.5
s-49.667 64.5 -65 110.5s-23 103.667 -23 173zM1017 328c0 -35.333 2.33301 -64.333 7 -87s12.167 -40.5 22.5 -53.5s23.5 -21.833 39.5 -26.5s35.333 -7 58 -7s42 2.33301 58 7s29.167 13.5 39.5 26.5s17.833 30.833 22.5 53.5s7 51.667 7 87s-2.33301 64.166 -7 86.499
s-12.167 40 -22.5 53s-23.5 22 -39.5 27s-35.333 7.5 -58 7.5s-42 -2.5 -58 -7.5s-29.167 -14 -39.5 -27s-17.833 -30.667 -22.5 -53s-7 -51.166 -7 -86.499z" />
    <glyph glyph-name="ampersand" unicode="&#x26;" horiz-adv-x="1263" 
d="M98 371c0 36 3.50098 69.8359 10.501 101.503s20 62.667 39 93s45 61 78 92s75.5 64.5 127.5 100.5c-34 38 -62.167 72.333 -84.5 103s-40.333 60 -54 88s-23.167 56.167 -28.5 84.5s-8 59.166 -8 92.499c0 42 4.33301 82.833 13 122.5s26.334 74.834 53.001 105.501
s64.834 55.334 114.501 74.001s115.834 28 198.501 28c80.667 0 146.5 -9.33301 197.5 -28s91.167 -43.834 120.5 -75.501s49.5 -68.334 60.5 -110.001s16.5 -85.167 16.5 -130.5c0 -46.667 -3.16699 -85.834 -9.5 -117.501s-19.333 -61 -39 -88
s-47.334 -54.167 -83.001 -81.5s-82.5 -60 -140.5 -98l238 -263c9.33301 34 16.5 66.167 21.5 96.5s8.5 53.166 10.5 68.499h191c-1.33301 -21.333 -3.83301 -45.833 -7.5 -73.5s-8.33398 -56.667 -14.001 -87s-12.167 -60.833 -19.5 -91.5s-15.333 -59.334 -24 -86.001
l267 -291h-284l-104 111c-56 -50 -116.667 -85.833 -182 -107.5s-133.333 -32.5 -204 -32.5c-84 0 -155.833 6.83301 -215.5 20.5s-108.334 36.334 -146.001 68.001s-65.334 73 -83.001 124s-26.5 113.5 -26.5 187.5zM542.001 880.003
c40.667 26.667 73.501 49.666 98.501 68.999s44.167 37.333 57.5 54s22.166 33.334 26.499 50.001s6.5 35.667 6.5 57c0 29.333 -2.5 54 -7.5 74s-13.833 36.333 -26.5 49s-29.834 21.667 -51.501 27s-49.167 8 -82.5 8c-32.667 0 -59.667 -3 -81 -9
s-38.166 -15.5 -50.499 -28.5s-20.833 -29.333 -25.5 -49s-7 -43.5 -7 -71.5c0 -15.333 3.66699 -31.833 11 -49.5s17.5 -36.167 30.5 -55.5s28.167 -39.5 45.5 -60.5s36 -42.5 56 -64.5zM336.002 365.002c0 -31.333 3.5 -58.5 10.5 -81.5s19.5 -42 37.5 -57
s42.5 -26.167 73.5 -33.5s70.167 -11 117.5 -11c18 0 37.167 1.16699 57.5 3.5s41 6.5 62 12.5s41.667 14.333 62 25s39.5 24 57.5 40l-317 341c-36.667 -27.333 -65.667 -51.333 -87 -72s-37.5 -40 -48.5 -58s-18 -35.667 -21 -53s-4.5 -36 -4.5 -56z" />
    <glyph glyph-name="quotesingle" unicode="'" horiz-adv-x="513" 
d="M137 1630h238l-23 -483h-192z" />
    <glyph glyph-name="parenleft" unicode="(" horiz-adv-x="648" 
d="M422 -266c-54 57.333 -102 131.999 -144 223.999c-18 39.333 -35.5 84.333 -52.5 135s-32.333 107.667 -46 171s-24.5 133.333 -32.5 210s-12 160.334 -12 251.001c0 91.333 4 175.5 12 252.5s18.833 147.5 32.5 211.5s29 121.667 46 173s34.5 96.666 52.5 135.999
c42 92.667 90 167.334 144 224.001h186c-42.667 -77.333 -80.667 -166.333 -114 -267c-14 -43.333 -27.833 -91.166 -41.5 -143.499s-25.834 -109 -36.501 -170s-19.167 -126.167 -25.5 -195.5s-9.5 -142.333 -9.5 -219s3.16699 -149.667 9.5 -219
s14.833 -134.5 25.5 -195.5s22.834 -117.667 36.501 -170s27.5 -99.833 41.5 -142.5c33.333 -100.667 71.333 -189.334 114 -266.001h-186v0z" />
    <glyph glyph-name="parenright" unicode=")" horiz-adv-x="646" 
d="M40 -266c42 76.667 79.667 165.335 113 266.002c14 42.667 27.833 90.167 41.5 142.5s25.834 109 36.501 170s19.334 126.167 26.001 195.5s10 142.333 10 219s-3.33301 149.667 -10 219s-15.334 134.5 -26.001 195.5s-22.834 117.667 -36.501 170
s-27.5 100.166 -41.5 143.499c-33.333 100.667 -71 189.667 -113 267h186c53.333 -56.667 100.666 -131.334 141.999 -224.001c18 -39.333 35.5 -84.666 52.5 -135.999s32.167 -109 45.5 -173s24.166 -134.5 32.499 -211.5s12.5 -161.167 12.5 -252.5
c0 -90.667 -4.16699 -174.334 -12.5 -251.001s-19.166 -146.667 -32.499 -210s-28.5 -120.333 -45.5 -171s-34.5 -95.667 -52.5 -135c-41.333 -92 -88.666 -166.667 -141.999 -224h-186v0z" />
    <glyph glyph-name="asterisk" unicode="*" horiz-adv-x="866" 
d="M102 862l181 232l-277 80l62 192l274 -98l-8 286h203l-11 -294l271 102l63 -197l-283 -80l181 -225l-166 -121l-164 240l-160 -238z" />
    <glyph glyph-name="plus" unicode="+" horiz-adv-x="1018" 
d="M401 561h-350v203h348v377h222v-377h346v-199h-344v-377h-222v373z" />
    <glyph glyph-name="comma" unicode="," horiz-adv-x="512" 
d="M105 127c0 30 2.32715 54.998 6.99414 74.998s12.834 35.833 24.501 47.5s27.167 19.834 46.5 24.501s44 7 74 7c34 0 61.167 -4.83301 81.5 -14.5s35.833 -23.5 46.5 -41.5s17.667 -40 21 -66s5 -55.667 5 -89c0 -50 -7.66699 -100.167 -23 -150.5
s-34.166 -97 -56.499 -140s-46.166 -80.5 -71.499 -112.5s-47.666 -54 -66.999 -66l-90 65c14.667 20 28.667 42.667 42 68s25.333 52 36 80s19.334 56.333 26.001 85s10.334 56 11.001 82c-40 5.33301 -68.833 18.833 -86.5 40.5s-26.5 56.834 -26.5 105.501z" />
    <glyph glyph-name="hyphen" unicode="-" horiz-adv-x="794" 
d="M60 702h674v-227h-674v227z" />
    <glyph glyph-name="period" unicode="." horiz-adv-x="512" 
d="M103 139c0 31.333 2.16699 56.833 6.5 76.5s12.333 35.167 24 46.5s27.334 19 47.001 23s44.5 6 74.5 6c30.667 0 56 -2 76 -6s35.667 -11.667 47 -23s19.333 -26.833 24 -46.5s7 -45.167 7 -76.5c0 -30.667 -2.33301 -55.834 -7 -75.501s-12.667 -35.334 -24 -47.001
s-27 -19.667 -47 -24s-45.333 -6.5 -76 -6.5c-30 0 -54.833 2.16699 -74.5 6.5s-35.334 12.333 -47.001 24s-19.667 27.334 -24 47.001s-6.5 44.834 -6.5 75.501z" />
    <glyph glyph-name="slash" unicode="/" horiz-adv-x="924" 
d="M653 1554h241l-643 -1554h-241z" />
    <glyph glyph-name="zero" unicode="0" horiz-adv-x="1375" 
d="M688 -31c-62.667 0 -119.497 5.16699 -170.497 15.5s-96.167 27.166 -135.5 50.499s-73.333 54.166 -102 92.499s-52.167 85.5 -70.5 141.5s-32 121.833 -41 197.5s-13.5 162.5 -13.5 260.5c0 147.333 10.167 268.333 30.5 363s52.166 169.167 95.499 223.5
s98.5 92 165.5 113s147.5 31.5 241.5 31.5c93.333 0 173.666 -10.5 240.999 -31.5s122.5 -58.667 165.5 -113s74.667 -128.833 95 -223.5s30.5 -215.667 30.5 -363c0 -98 -4.5 -184.833 -13.5 -260.5s-22.667 -141.5 -41 -197.5s-41.833 -103.167 -70.5 -141.5
s-62.667 -69.166 -102 -92.499s-84.333 -40.166 -135 -50.499s-107.334 -15.5 -170.001 -15.5zM688.003 190c56.667 0 103 10.834 139 32.501s64.167 54.5 84.5 98.5s34.166 99.667 41.499 167s11 147 11 239s-3.66699 170.167 -11 234.5s-21.166 116.666 -41.499 156.999
s-48.5 69.5 -84.5 87.5s-82.333 27 -139 27s-102.834 -9 -138.501 -27s-63.667 -47 -84 -87s-34.166 -92.167 -41.499 -156.5s-11 -142.833 -11 -235.5c0 -92 3.66699 -171.833 11 -239.5s21.166 -123.5 41.499 -167.5s48.333 -76.667 84 -98s81.834 -32 138.501 -32z" />
    <glyph glyph-name="one" unicode="1" horiz-adv-x="816" 
d="M348 1204h-262l67 223h434v-1427h-239v1204z" />
    <glyph glyph-name="two" unicode="2" horiz-adv-x="1151" 
d="M105 143l294.503 316.999c80.333 90.667 145.5 170.834 195.5 240.501s86.333 131.334 109 185.001s34 103.834 34 150.501c0 32.667 -4.16699 61.334 -12.5 86.001s-22.833 45.167 -43.5 61.5s-48.834 28.666 -84.501 36.999s-80.5 12.5 -134.5 12.5
c-38 0 -75.5 -1.83301 -112.5 -5.5s-70.5 -7.5 -100.5 -11.5c-35.333 -4.66699 -69.333 -10 -102 -16v184c32.667 13.333 69.667 25.666 111 36.999c35.333 9.33301 77.166 17.833 125.499 25.5s101.833 11.5 160.5 11.5c81.333 0 150.166 -8.5 206.499 -25.5
s102 -42.167 137 -75.5s60.167 -75.333 75.5 -126s23 -109.334 23 -176.001c0 -51.333 -8.66699 -106 -26 -164s-46.5 -120.833 -87.5 -188.5s-95.333 -141 -163 -220s-151.5 -164.833 -251.5 -257.5v-2h528v-223h-882v143z" />
    <glyph glyph-name="three" unicode="3" horiz-adv-x="1135" 
d="M130 213c33.333 -4.66699 67.332 -8.66895 101.999 -12.002c30 -3.33301 62.667 -6 98 -8s69.666 -3 102.999 -3c46.667 0 88.667 2.5 126 7.5s69 14.833 95 29.5s46 35.5 60 62.5s21.333 62.833 22 107.5c0.666992 53.333 -5.66602 94.833 -18.999 124.5
s-36.333 51.667 -69 66s-76.5 23.666 -131.5 27.999s-123.833 7.5 -206.5 9.5l2 213c84.667 0 152.834 3.66699 204.501 11s91.334 19.5 119.001 36.5s45.834 39.5 54.501 67.5s12.667 62.667 12 104c-0.666992 34 -5.83398 62.667 -15.501 86s-25.5 42.166 -47.5 56.499
s-50.667 24.833 -86 31.5s-78.666 10 -129.999 10c-29.333 0 -60.333 -1.66699 -93 -5s-63 -6.66602 -91 -9.99902c-32.667 -4 -65 -8.66699 -97 -14v172c35.333 13.333 73.666 25.666 114.999 36.999c36 9.33301 77.333 17.833 124 25.5s97 11.5 151 11.5
c143.333 0 248.666 -32.167 315.999 -96.5s101 -161.833 101 -292.5c0 -42.667 -4 -80 -12 -112s-18.667 -59.667 -32 -83s-28.5 -42.666 -45.5 -57.999s-34.667 -27.833 -53 -37.5s-36.333 -16.667 -54 -21s-33.834 -6.83301 -48.501 -7.5v-2
c12 -1.33301 27.333 -3.5 46 -6.5s38.5 -8.66699 59.5 -17s42 -20.166 63 -35.499s39.833 -35.833 56.5 -61.5s30.334 -57.167 41.001 -94.5s16 -82 16 -134c0 -82.667 -10.833 -151.667 -32.5 -207s-52.667 -99.666 -93 -132.999s-89 -57 -146 -71s-120.833 -21 -191.5 -21
c-50 0 -98.667 3.33301 -146 10s-89.333 14.334 -126 23.001c-42.667 9.33301 -83 20.333 -121 33v180z" />
    <glyph glyph-name="four" unicode="4" horiz-adv-x="1224" 
d="M65 450l547 977h359v-922h153v-213h-153v-292h-238v292h-668v158zM733 505l2 732h-6l-399 -732h403z" />
    <glyph glyph-name="five" unicode="5" horiz-adv-x="1129" 
d="M145 211c31.333 -4.66699 63.6611 -8.33496 96.9941 -11.002c28.667 -2.66699 60.334 -5 95.001 -7s69 -3 103 -3c56 0 103.5 4.83301 142.5 14.5s70.833 24.667 95.5 45s42.667 46.333 54 78s17 69.834 17 114.501c0 44 -3.33301 81 -10 111s-18.5 54.333 -35.5 73
s-40.167 32 -69.5 40s-66.666 12 -111.999 12c-43.333 0 -85 -1.66699 -125 -5s-75.667 -6.66602 -107 -9.99902c-36.667 -4 -70.667 -8.66699 -102 -14v781h760v-226h-523v-321c16 2 33 4 51 6c15.333 1.33301 33 2.66602 53 3.99902s40.667 2 62 2
c68 0 127.167 -6.83301 177.5 -20.5s92.333 -38.167 126 -73.5s58.834 -83.5 75.501 -144.5s25 -138.5 25 -232.5c0 -90.667 -12.167 -165.334 -36.5 -224.001s-57.666 -105.167 -99.999 -139.5s-92.666 -58.166 -150.999 -71.499s-121.5 -20 -189.5 -20
c-55.333 0 -105.666 3.33301 -150.999 10s-84.666 14.334 -117.999 23.001c-38.667 9.33301 -73.334 20.333 -104.001 33v176z" />
    <glyph glyph-name="six" unicode="6" horiz-adv-x="1187" 
d="M155 950c0 76.667 7.83496 146.169 23.502 208.502s41.667 115.5 78 159.5s84.333 78 144 102s133.5 36 221.5 36c57.333 0 108.166 -3.66699 152.499 -11s82.166 -15.333 113.499 -24c36.667 -10.667 68.334 -22.334 95.001 -35.001v-178
c-26 4.66699 -54 8.66699 -84 12c-25.333 3.33301 -54.5 6.33301 -87.5 9s-67.5 4 -103.5 4c-58 0 -107 -2.83301 -147 -8.5s-72.5 -17.667 -97.5 -36s-43 -45 -54 -80s-16.5 -81.5 -16.5 -139.5v-133c27.333 13.333 56 25 86 35s60 18.167 90 24.5s59.333 11.166 88 14.499
s56 5 82 5c51.333 0 98.166 -7.66699 140.499 -23s78.5 -41.166 108.5 -77.499s53.333 -84.5 70 -144.5s25 -134.667 25 -224c0 -87.333 -10.5 -161.333 -31.5 -222s-51.667 -109.834 -92 -147.501s-89.833 -65 -148.5 -82s-125.667 -25.5 -201 -25.5
c-69.333 0 -132 8 -188 24s-103.833 41.333 -143.5 76s-70.167 79.167 -91.5 133.5s-32 119.833 -32 196.5v551zM393.002 449.002c0 -45.333 2.83301 -84.332 8.5 -116.999s16.334 -59.5 32.001 -80.5s37.667 -36.5 66 -46.5s65.166 -15 110.499 -15
c44.667 0 81.5 4.83301 110.5 14.5s52 25.167 69 46.5s28.833 48.666 35.5 81.999s10 74 10 122c0 52 -4 94 -12 126s-21 56.833 -39 74.5s-41.333 29.5 -70 35.5s-63.334 9 -104.001 9c-28 0 -55.167 -2 -81.5 -6s-49.666 -8.33301 -69.999 -13s-36.5 -9 -48.5 -13
s-17.667 -6 -17 -6v-213z" />
    <glyph glyph-name="seven" unicode="7" horiz-adv-x="1073" 
d="M720 1200v4h-655v223h938v-157l-528 -1270h-277z" />
    <glyph glyph-name="eight" unicode="8" horiz-adv-x="1254" 
d="M149 406c0 42.667 4.1709 80.498 12.5039 113.498s19.166 61.833 32.499 86.5s28 45.334 44 62.001s31.833 30.334 47.5 41.001s30 18.334 43 23.001s22.833 7.66699 29.5 9v2c-12.667 2.66699 -28.834 9.33398 -48.501 20.001s-38.834 27.167 -57.501 49.5
s-34.667 51.833 -48 88.5s-20 82.334 -20 137.001c0 60.667 6.83301 116.667 20.5 168s37.5 95.5 71.5 132.5s79.667 65.833 137 86.5s129.666 31 216.999 31c86.667 0 158.667 -10.333 216 -31s102.666 -49.5 135.999 -86.5s56.833 -81.167 70.5 -132.5
s20.5 -107.333 20.5 -168c0 -54.667 -6.5 -100.167 -19.5 -136.5s-28.833 -65.5 -47.5 -87.5s-37.834 -38.333 -57.501 -49s-36.167 -18 -49.5 -22v-2c6.66699 -1.33301 16.5 -4.33301 29.5 -9s27.167 -12.334 42.5 -23.001s30.833 -24.334 46.5 -41.001
s30 -37.334 43 -62.001s23.667 -53.5 32 -86.5s12.5 -70.833 12.5 -113.5c0 -89.333 -11.833 -162.166 -35.5 -218.499s-56.667 -100.5 -99 -132.5s-92.833 -54 -151.5 -66s-123 -18 -193 -18s-134.167 6 -192.5 18s-108.666 34 -150.999 66s-75.166 76.167 -98.499 132.5
s-35 129.166 -35 218.499zM628.004 826.998c38.667 0 71.5 3.83301 98.5 11.5s48.833 19.834 65.5 36.501s28.667 38.5 36 65.5s11 59.5 11 97.5s-3.66699 70 -11 96s-19.333 47.167 -36 63.5s-38.5 28 -65.5 35s-59.833 10.5 -98.5 10.5s-71.5 -3.5 -98.5 -10.5
s-49 -18.667 -66 -35s-29.333 -37.5 -37 -63.5s-11.5 -58 -11.5 -96s3.83301 -70.5 11.5 -97.5s20 -48.833 37 -65.5s39 -28.834 66 -36.501s59.833 -11.5 98.5 -11.5zM393.004 405.998c0 -48 4.83301 -86.333 14.5 -115s24.334 -50.667 44.001 -66s44.167 -25.333 73.5 -30
s63.666 -7 102.999 -7s73.833 2.33301 103.5 7s54.334 14.667 74.001 30s34.334 37.333 44.001 66s14.5 67 14.5 115c0 47.333 -4.83301 86.166 -14.5 116.499s-24.334 54.333 -44.001 72s-44.334 29.834 -74.001 36.501s-64.167 10 -103.5 10
s-73.666 -3.33301 -102.999 -10s-53.833 -18.834 -73.5 -36.501s-34.334 -41.667 -44.001 -72s-14.5 -69.166 -14.5 -116.499z" />
    <glyph glyph-name="nine" unicode="9" horiz-adv-x="1200" 
d="M205 217c26 -4.66699 54.332 -8.33301 84.999 -11c26 -3.33301 55.833 -6 89.5 -8s68.5 -3 104.5 -3c57.333 0 106.333 3 147 9s73.834 16.333 99.501 31s44.5 34.5 56.5 59.5s18 56.5 18 94.5v178c-27.333 -12.667 -56 -23.334 -86 -32.001s-60 -15.834 -90 -21.501
s-59.333 -9.66699 -88 -12s-56 -3.5 -82 -3.5c-51.333 0 -98.166 8 -140.499 24s-78.5 42.5 -108.5 79.5s-53.333 85.833 -70 146.5s-25 135.667 -25 225c0 96 10.5 175 31.5 237s51.667 111.333 92 148s89.833 62.167 148.5 76.5s125.667 21.5 201 21.5
c65.333 0 121.833 -4.16699 169.5 -12.5s88.5 -22.333 122.5 -42s61.667 -46 83 -79s38.166 -73.833 50.499 -122.5s20.666 -106 24.999 -172s6.5 -142.333 6.5 -229v-449c0 -68 -9.5 -126.167 -28.5 -174.5s-48.5 -87.666 -88.5 -117.999s-91.167 -52.666 -153.5 -66.999
s-136.833 -21.5 -223.5 -21.5c-43.333 0 -85.666 3 -126.999 9s-78.333 12.667 -111 20c-38 8 -74 17.667 -108 29v190zM587.999 713.001c28 0 55.1699 1.50098 81.5029 4.50098s49.666 6.16699 69.999 9.5s36.5 6.5 48.5 9.5s17.667 4.5 17 4.5v242
c0 50 -3.33301 91.167 -10 123.5s-18.334 57.833 -35.001 76.5s-38.834 31.667 -66.501 39s-62.834 11 -105.501 11c-43.333 0 -79.5 -3.5 -108.5 -10.5s-52.5 -20 -70.5 -39s-30.833 -45.333 -38.5 -79s-11.5 -77.5 -11.5 -131.5c0 -54.667 4.16699 -99 12.5 -133
s21.833 -60.333 40.5 -79s42.334 -31.334 71.001 -38.001s63.667 -10 105 -10z" />
    <glyph glyph-name="colon" unicode=":" horiz-adv-x="512" 
d="M103 139c0 31.333 2.16699 56.833 6.5 76.5s12.333 35.167 24 46.5s27.334 19 47.001 23s44.5 6 74.5 6c30.667 0 56 -2 76 -6s35.667 -11.667 47 -23s19.333 -26.833 24 -46.5s7 -45.167 7 -76.5c0 -30.667 -2.33301 -55.834 -7 -75.501s-12.667 -35.334 -24 -47.001
s-27 -19.667 -47 -24s-45.333 -6.5 -76 -6.5c-30 0 -54.833 2.16699 -74.5 6.5s-35.334 12.333 -47.001 24s-19.667 27.334 -24 47.001s-6.5 44.834 -6.5 75.501zM103 819c0 31.333 2.16699 56.833 6.5 76.5s12.333 35.167 24 46.5s27.334 19 47.001 23s44.5 6 74.5 6
c30.667 0 56 -2 76 -6s35.667 -11.667 47 -23s19.333 -26.833 24 -46.5s7 -45.167 7 -76.5c0 -30.667 -2.33301 -55.834 -7 -75.501s-12.667 -35.334 -24 -47.001s-27 -19.667 -47 -24s-45.333 -6.5 -76 -6.5c-30 0 -54.833 2.16699 -74.5 6.5s-35.334 12.333 -47.001 24
s-19.667 27.334 -24 47.001s-6.5 44.834 -6.5 75.501z" />
    <glyph glyph-name="semicolon" unicode=";" horiz-adv-x="512" 
d="M105 819c0 31.333 2.16699 56.833 6.5 76.5s12.333 35.167 24 46.5s27.334 19 47.001 23s44.5 6 74.5 6c30.667 0 56 -2 76 -6s35.667 -11.667 47 -23s19.333 -26.833 24 -46.5s7 -45.167 7 -76.5c0 -30.667 -2.33301 -55.834 -7 -75.501s-12.667 -35.334 -24 -47.001
s-27 -19.667 -47 -24s-45.333 -6.5 -76 -6.5c-30 0 -54.833 2.16699 -74.5 6.5s-35.334 12.333 -47.001 24s-19.667 27.334 -24 47.001s-6.5 44.834 -6.5 75.501zM105 127c0 30 2.32715 54.998 6.99414 74.998s12.834 35.833 24.501 47.5s27.167 19.834 46.5 24.501
s44 7 74 7c34 0 61.167 -4.83301 81.5 -14.5s35.833 -23.5 46.5 -41.5s17.667 -40 21 -66s5 -55.667 5 -89c0 -50 -7.66699 -100.167 -23 -150.5s-34.166 -97 -56.499 -140s-46.166 -80.5 -71.499 -112.5s-47.666 -54 -66.999 -66l-90 65c14.667 20 28.667 42.667 42 68
s25.333 52 36 80s19.334 56.333 26.001 85s10.334 56 11.001 82c-40 5.33301 -68.833 18.833 -86.5 40.5s-26.5 56.834 -26.5 105.501z" />
    <glyph glyph-name="less" unicode="&#x3c;" horiz-adv-x="969" 
d="M72 754l815 364v-268l-621 -252v-16l621 -252v-271l-815 359v336z" />
    <glyph glyph-name="equal" unicode="=" horiz-adv-x="1031" 
d="M60 934h911v-205h-911v205zM60 514h911v-207h-911v207z" />
    <glyph glyph-name="greater" unicode="&#x3e;" horiz-adv-x="969" 
d="M82 68v270l620 252v16l-620 252v268l815 -364v-336z" />
    <glyph glyph-name="question" unicode="?" horiz-adv-x="1026" 
d="M346 768c57.333 4.66699 107.334 11.333 150.001 20s78 22.167 106 40.5s49 42.5 63 72.5s21 68.333 21 115c0 45.333 -6.16699 82.333 -18.5 111s-30.833 51.167 -55.5 67.5s-55 27.5 -91 33.5s-78 9 -126 9c-30 0 -61 -1.66699 -93 -5s-62 -6.66602 -90 -9.99902
c-32 -4 -63.667 -8.66699 -95 -14v181c-0.666992 0 8.33301 3.16699 27 9.5s45 13.333 79 21s74.667 14.667 122 21s99.666 9.5 156.999 9.5c54.667 0 107.667 -6.33301 159 -19s97 -35 137 -67s72 -75.833 96 -131.5s36 -126.5 36 -212.5c0 -74 -10 -135.833 -30 -185.5
s-46.333 -90.334 -79 -122.001s-69.667 -56.167 -111 -73.5s-83.333 -30.333 -126 -39v-178h-238v346zM313.001 138.999c0 31.333 2.16699 56.833 6.5 76.5s12.333 35.167 24 46.5s27.334 19 47.001 23s44.5 6 74.5 6c30.667 0 56 -2 76 -6s35.667 -11.667 47 -23
s19.333 -26.833 24 -46.5s7 -45.167 7 -76.5c0 -30.667 -2.33301 -55.834 -7 -75.501s-12.667 -35.334 -24 -47.001s-27 -19.667 -47 -24s-45.333 -6.5 -76 -6.5c-30 0 -54.833 2.16699 -74.5 6.5s-35.334 12.333 -47.001 24s-19.667 27.334 -24 47.001
s-6.5 44.834 -6.5 75.501z" />
    <glyph glyph-name="at" unicode="@" horiz-adv-x="1660" 
d="M126 776c0 142.667 16.8271 263.5 50.4941 362.5s82.667 179.333 147 241s143.5 106.167 237.5 133.5s201 41 321 41c94 0 177 -5.83301 249 -17.5s134.333 -30.167 187 -55.5s96.834 -58.166 132.501 -98.499s64.167 -89.333 85.5 -147s36.5 -124.5 45.5 -200.5
s13.5 -162.333 13.5 -259c0 -80.667 -9.33301 -149.5 -28 -206.5s-44.167 -103.5 -76.5 -139.5s-70.166 -62.5 -113.499 -79.5s-89.666 -25.833 -138.999 -26.5c-5.33301 0 -10.333 -0.166992 -15 -0.5s-9.66699 -0.5 -15 -0.5c-25.333 0 -48 1 -68 3s-37.333 4.33301 -52 7
c-17.333 2.66699 -32.666 6.33398 -45.999 11.001l-27 76l-53.5 -31.5c-19 -11 -39.333 -21.333 -61 -31s-44.334 -17.667 -68.001 -24s-48.167 -9.5 -73.5 -9.5c-95.333 0 -167 35.167 -215 105.5s-72 179.166 -72 326.499s24 256.166 72 326.499s119.667 105.5 215 105.5
c34.667 0 67.667 -4 99 -12s59 -16.667 83 -26c28 -11.333 54 -24 78 -38l25 62h166v-680c36.667 0 67.167 4 91.5 12s43.833 22.333 58.5 43s25 49 31 85s9 82 9 138c0 68.667 -1.5 130.834 -4.5 186.501s-10.333 105.334 -22 149.001s-28.667 81.667 -51 114
s-52.666 59 -90.999 80s-86 36.667 -143 47s-125.833 15.5 -206.5 15.5c-104.667 0 -192.667 -11.5 -264 -34.5s-129 -58.667 -173 -107s-75.667 -109.833 -95 -184.5s-29 -163.334 -29 -266.001c0 -107.333 9.16699 -199.5 27.5 -276.5s49.166 -140.333 92.499 -190
s100.833 -86.334 172.5 -110.001s161.167 -35.5 268.5 -35.5c104.667 0 192.667 3.16699 264 9.5s129.333 13.166 174 20.499c52 8.66699 94.333 19 127 31v-168c-38 -16 -84.667 -30 -140 -42c-47.333 -10.667 -106.166 -20.334 -176.499 -29.001
s-153.166 -13 -248.499 -13c-127.333 0 -238.166 14.167 -332.499 42.5s-173 74.333 -236 138s-110 146.834 -141 249.501s-46.5 228.334 -46.5 377.001zM836.994 502c20.667 0 40.6621 1.33301 59.9951 4s36.666 5.66699 51.999 9c17.333 3.33301 34 7.66602 50 12.999v443
c-16.667 6 -33.667 11.667 -51 17c-15.333 4.66699 -32.666 8.83398 -51.999 12.501s-39.666 5.5 -60.999 5.5s-41.166 -4 -59.499 -12s-34.333 -21.667 -48 -41s-24.5 -45 -32.5 -77s-12 -72 -12 -120c0 -52 3.83301 -94.5 11.5 -127.5s18.334 -58.833 32.001 -77.5
s29.834 -31.5 48.501 -38.5s39.334 -10.5 62.001 -10.5z" />
    <glyph glyph-name="A" unicode="A" 
d="M477 1427h318l467 -1427h-265l-120 387h-486l-115 -387h-262zM811 602l-176 604h-4l-176 -604h356z" />
    <glyph glyph-name="B" unicode="B" horiz-adv-x="1312" 
d="M182 1427l558.998 -0.00292969c70 0 129.667 -7.83301 179 -23.5s89.833 -39.667 121.5 -72s54.834 -73 69.501 -122s22 -106.833 22 -173.5c0 -56.667 -5.83301 -102.667 -17.5 -138s-26.167 -63.333 -43.5 -84s-36.666 -35.5 -57.999 -44.5s-41.333 -15.5 -60 -19.5v-2
c12 -1.33301 26.333 -4.16602 43 -8.49902s34 -11 52 -20s35.667 -21 53 -36s33 -34.167 47 -57.5s25.333 -51.5 34 -84.5s13 -71.5 13 -115.5c0 -88 -8.66699 -159.667 -26 -215s-43.5 -98.666 -78.5 -129.999s-79.333 -52.666 -133 -63.999s-116.5 -17 -188.5 -17h-588
v1427zM693.998 824.997c36 0 66.6699 2.33301 92.0029 7s46.166 14.167 62.499 28.5s28.166 34.5 35.499 60.5s11 60.333 11 103c0 35.333 -4.33301 64.833 -13 88.5s-21.334 42.5 -38.001 56.5s-37.167 24 -61.5 30s-51.833 9 -82.5 9h-278v-383h272zM741.001 218.997
c30.667 0 58.499 2.50195 83.499 7.50195s46.333 14.833 64 29.5s31.334 35.167 41.001 61.5s14.5 61.166 14.5 104.499s-4.16699 78.166 -12.5 104.499s-21.333 46.5 -39 60.5s-40 23.167 -67 27.5s-59.167 6.5 -96.5 6.5h-307v-402h319z" />
    <glyph glyph-name="C" unicode="C" horiz-adv-x="1179" 
d="M672 -25c-46 0 -91.832 4.33496 -137.499 13.002s-89 23.667 -130 45s-79.167 50.166 -114.5 86.499s-66 82.333 -92 138s-46.333 121.834 -61 198.501s-22 166.334 -22 269.001c0 98.667 8.33301 185.167 25 259.5s39 138.5 67 192.5s60.667 98.5 98 133.5
s76.666 62.833 117.999 83.5s83.333 35.167 126 43.5s83.667 12.5 123 12.5c66.667 0 124.667 -3.33301 174 -10s90.666 -14 123.999 -22c38.667 -9.33301 71.667 -20 99 -32v-172c-27.333 2 -56.666 4 -87.999 6l-91.5 4.5c-34.333 1.66699 -70.166 2.5 -107.499 2.5
c-34 0 -67.833 -1.33301 -101.5 -4s-66 -9.5 -97 -20.5s-59.833 -27.167 -86.5 -48.5s-49.834 -50.5 -69.501 -87.5s-35 -83.167 -46 -138.5s-16.5 -122.333 -16.5 -201c0 -82.667 5.66699 -153.334 17 -212.001s27 -107.667 47 -147s43.333 -70.333 70 -93
s55.667 -39.834 87 -51.501s64 -19 98 -22s68 -4.5 102 -4.5c44 0 84 0.666992 120 2s66.667 2.66602 92 3.99902c30 2 57 4 81 6v-172c-29.333 -12 -64 -22.333 -104 -31c-34.667 -8 -77.167 -15.167 -127.5 -21.5s-108.833 -9.5 -175.5 -9.5z" />
    <glyph glyph-name="D" unicode="D" horiz-adv-x="1370" 
d="M182 1427l512.005 0.000976562c52.667 0 103.167 -3.66699 151.5 -11s93.166 -20.333 134.499 -39s79 -44.667 113 -78s63 -76 87 -128s42.5 -114.667 55.5 -188s19.5 -159.333 19.5 -258c0 -102 -6 -190.833 -18 -266.5s-29.333 -140.334 -52 -194.001
s-50.334 -97.667 -83.001 -132s-69.834 -61.333 -111.501 -81s-87.334 -33.167 -137.001 -40.5s-102.834 -11 -159.501 -11h-512v1427zM629.005 223.001c34 0 66.999 0.833008 98.999 2.5s61.833 7.5 89.5 17.5s53 25.167 76 45.5s42.667 49.166 59 86.499s29 84.5 38 141.5
s13.5 127.167 13.5 210.5c0 77.333 -4.33301 142.833 -13 196.5s-21 98.167 -37 133.5s-35.167 62.833 -57.5 82.5s-47.5 34.334 -75.5 44.001s-58.167 15.5 -90.5 17.5s-66.166 3 -101.499 3h-207v-981h207z" />
    <glyph glyph-name="E" unicode="E" horiz-adv-x="1149" 
d="M182 1427h858v-223h-618v-375h518v-219h-518v-387h635v-223h-875v1427z" />
    <glyph glyph-name="F" unicode="F" horiz-adv-x="1110" 
d="M182 1427h858v-223h-618v-430h541v-223h-541v-551h-240v1427z" />
    <glyph glyph-name="G" unicode="G" horiz-adv-x="1350" 
d="M115 727c0 136.667 14.8311 251.498 44.498 344.498s72 168 127 225s121.167 97.833 198.5 122.5s164 37 260 37c64.667 0 122.5 -3.33301 173.5 -10s94.833 -14 131.5 -22c42 -9.33301 79.667 -19.666 113 -30.999v-181c-36 4 -74.667 7.33301 -116 10
c-35.333 2.66699 -75.666 5.16699 -120.999 7.5s-92 3.5 -140 3.5c-83.333 0 -152.333 -8.83301 -207 -26.5s-98 -46.5 -130 -86.5s-54.5 -92.167 -67.5 -156.5s-19.5 -143.166 -19.5 -236.499c0 -95.333 6.83301 -176.833 20.5 -244.5s36.167 -123.167 67.5 -166.5
s72.666 -75.166 123.999 -95.499s114.666 -30.5 189.999 -30.5c32.667 0 62.334 1 89.001 3s49.334 4.66699 68.001 8c22 3.33301 41.333 7.33301 58 12v367h-260v219h498v-731c-39.333 -18.667 -82.333 -35.334 -129 -50.001c-40 -12.667 -87.167 -24 -141.5 -34
s-113.166 -15 -176.499 -15c-103.333 0 -195.5 11.667 -276.5 35s-149.5 64 -205.5 122s-98.833 135.667 -128.5 233s-44.5 220 -44.5 368z" />
    <glyph glyph-name="H" unicode="H" horiz-adv-x="1456" 
d="M182 1427h240v-591h612v591h240v-1427h-240v612h-612v-612h-240v1427z" />
    <glyph glyph-name="I" unicode="I" horiz-adv-x="604" 
d="M182 1427h240v-1427h-240v1427z" />
    <glyph glyph-name="J" unicode="J" horiz-adv-x="706" 
d="M14 182l48 -2.00098c14 -0.666992 29 -1.16699 45 -1.5s31.333 -0.5 46 -0.5c22.667 0 42.167 1 58.5 3s29.833 7.33301 40.5 16s18.667 21.834 24 39.501s8 42.5 8 74.5v1116h241l1 -1189c0 -50.667 -5.83301 -92.834 -17.5 -126.501s-29 -60.667 -52 -81
s-51.5 -34.666 -85.5 -42.999s-73.333 -12.5 -118 -12.5c-32 0 -62.333 1.66699 -91 5s-54 7.33301 -76 12c-26 5.33301 -50 11.333 -72 18v172z" />
    <glyph glyph-name="K" unicode="K" horiz-adv-x="1313" 
d="M182 1427h240v-583h220l333 583h277l-398 -690l421 -737h-281l-352 621h-220v-621h-240v1427z" />
    <glyph glyph-name="L" unicode="L" horiz-adv-x="1056" 
d="M182 1427h240v-1204h590v-223h-830v1427z" />
    <glyph glyph-name="M" unicode="M" horiz-adv-x="1734" 
d="M182 1427h416l264 -860h8l273 860h409v-1427h-239v1204h-6l-27 -90l-24 -79.5l-23 -71.5l-184 -576h-359l-188 580l-23 70.5l-24 77.5l-27 89h-6v-1204h-240v1427z" />
    <glyph glyph-name="N" unicode="N" horiz-adv-x="1521" 
d="M182 1427h398l520 -1204h5l-2 73c-0.666992 21.333 -1 44.333 -1 69v71v991h237v-1427h-389l-440 1004l-34 78c-10.667 24 -19.667 45 -27 63l-25 59h-4v-1204h-238v1427z" />
    <glyph glyph-name="O" unicode="O" horiz-adv-x="1401" 
d="M702 -31c-61.333 0 -118.335 4.32812 -171.002 12.9951s-100.667 23.834 -144 45.501s-81.833 50.5 -115.5 86.5s-62.167 81.5 -85.5 136.5s-41 120.167 -53 195.5s-18 163 -18 263c0 150 13.333 273.333 40 370s65.334 172.834 116.001 228.501
s112.334 94.334 185.001 116.001s154.667 32.5 246 32.5c60.667 0 117.334 -4.66699 170.001 -14s100.667 -25 144 -47s81.666 -51.5 114.999 -88.5s61.5 -83.167 84.5 -138.5s40.5 -120.833 52.5 -196.5s18 -163.167 18 -262.5s-6 -186.666 -18 -261.999
s-29.5 -140.5 -52.5 -195.5s-51.167 -100.667 -84.5 -137s-71.666 -65.166 -114.999 -86.499s-91.333 -36.5 -144 -45.5s-109.334 -13.5 -170.001 -13.5zM701.998 189.995c65.333 0 119.5 7.66699 162.5 23s77.167 42.5 102.5 81.5s43.166 92 53.499 159
s15.5 152.167 15.5 255.5c0 104 -5.16699 189.667 -15.5 257s-28.166 120.833 -53.499 160.5s-59.5 67.334 -102.5 83.001s-97.167 23.5 -162.5 23.5s-119.666 -7.83301 -162.999 -23.5s-77.666 -43.334 -102.999 -83.001s-43.166 -93.167 -53.499 -160.5
s-15.5 -153 -15.5 -257c0 -103.333 5.16699 -188.5 15.5 -255.5s28.166 -120 53.499 -159s59.666 -66.167 102.999 -81.5s97.666 -23 162.999 -23z" />
    <glyph glyph-name="P" unicode="P" horiz-adv-x="1215" 
d="M182 1427l565.997 -0.00292969c30.667 0 61.667 -2.33301 93 -7s61.333 -13.5 90 -26.5s55.334 -30.5 80.001 -52.5s46.334 -50.167 65.001 -84.5s33.167 -75.833 43.5 -124.5s15.5 -105.667 15.5 -171s-5.66699 -122.166 -17 -170.499s-26.666 -89.5 -45.999 -123.5
s-42 -61.667 -68 -83s-53.667 -38.166 -83 -50.499s-59.5 -20.666 -90.5 -24.999s-61.5 -6.5 -91.5 -6.5h-317v-502h-240v1427zM710.997 724.997c36 0 65.167 6.00098 87.5 18.001s40 28.667 53 50s21.833 46.333 26.5 75s7 59.667 7 93c0 32.667 -2.33301 63.667 -7 93
s-13.5 55.166 -26.5 77.499s-30.667 40 -53 53s-51.5 19.5 -87.5 19.5h-289v-479h289z" />
    <glyph glyph-name="Q" unicode="Q" horiz-adv-x="1403" 
d="M702 -31c-61.333 0 -118.334 4.33105 -171.001 12.998s-100.667 23.834 -144 45.501s-81.833 50.5 -115.5 86.5s-62.167 81.5 -85.5 136.5s-41 120.167 -53 195.5s-18 163 -18 263c0 150 13.333 273.333 40 370s65.334 172.834 116.001 228.501
s112.334 94.334 185.001 116.001s154.667 32.5 246 32.5c60.667 0 117.334 -4.66699 170.001 -14s100.667 -25 144 -47s81.666 -51.5 114.999 -88.5s61.5 -83.167 84.5 -138.5s40.5 -120.833 52.5 -196.5s18 -163.167 18 -262.5c0 -80.667 -4 -153.334 -12 -218.001
s-19.5 -122.334 -34.5 -173.001s-33.833 -94.667 -56.5 -132s-48.334 -69.333 -77.001 -96l146 -205h-218l-83 117c-36.667 -11.333 -75.667 -19.666 -117 -24.999s-85.333 -8 -132 -8zM701.999 189.998c20 0 38.999 0.666992 56.999 2s34.667 3.33301 50 6l-162 232h215
l99 -144c28 38.667 47.5 92 58.5 160s16.5 155.667 16.5 263c0 104 -5.16699 189.667 -15.5 257s-28.166 120.833 -53.499 160.5s-59.5 67.334 -102.5 83.001s-97.167 23.5 -162.5 23.5s-119.666 -7.83301 -162.999 -23.5s-77.666 -43.334 -102.999 -83.001
s-43.166 -93.167 -53.499 -160.5s-15.5 -153 -15.5 -257c0 -103.333 5.16699 -188.5 15.5 -255.5s28.166 -120 53.499 -159s59.666 -66.167 102.999 -81.5s97.666 -23 162.999 -23z" />
    <glyph glyph-name="R" unicode="R" horiz-adv-x="1285" 
d="M182 1427l530.999 0.00195312c38 0 75.167 -2.5 111.5 -7.5s70.666 -13.833 102.999 -26.5s61.833 -29.834 88.5 -51.501s49.834 -49.5 69.501 -83.5s34.834 -74.667 45.501 -122s16 -103 16 -167c0 -42.667 -3.5 -80.834 -10.5 -114.501s-16.333 -63.5 -28 -89.5
s-25 -48.667 -40 -68s-30.167 -36 -45.5 -50c-36.667 -32 -78 -54.333 -124 -67v-2l301 -578h-274l-267 524h-237v-524h-240v1427zM710.999 750.002c125.333 0 188 77.668 188 233.001c0 40.667 -4.5 75.167 -13.5 103.5s-22 51.166 -39 68.499s-37.5 29.833 -61.5 37.5
s-50.667 11.5 -80 11.5h-283v-454h289z" />
    <glyph glyph-name="S" unicode="S" horiz-adv-x="1110" 
d="M120 213c34 -4.66699 70.667 -8.66504 110 -11.998c34 -3.33301 72.833 -6 116.5 -8s89.834 -3 138.501 -3c64.667 0 116 4.16699 154 12.5s67 20.666 87 36.999s32.833 36.5 38.5 60.5s8.5 51.667 8.5 83c0 24.667 -1.16699 47.167 -3.5 67.5s-7.83301 38.5 -16.5 54.5
s-21 29.833 -37 41.5s-38 21.167 -66 28.5l-291 76c-46 12 -85 28.167 -117 48.5s-57.833 46.166 -77.5 77.499s-34 69.166 -43 113.499s-13.5 96.5 -13.5 156.5c0 70.667 10.667 131.834 32 183.501s51.5 94.167 90.5 127.5s86.167 58 141.5 74s117 24 185 24
c56.667 0 108.5 -3.16699 155.5 -9.5s87.5 -13.166 121.5 -20.499c40 -8.66699 76.333 -18.334 109 -29.001v-185c-30 4 -61.667 7.66699 -95 11c-28.667 3.33301 -60.834 6.16602 -96.501 8.49902s-72.5 3.5 -110.5 3.5c-59.333 0 -108 -2 -146 -6s-68 -12.333 -90 -25
s-37.333 -30.667 -46 -54s-13 -54.333 -13 -93c0 -21.333 1.16699 -40.333 3.5 -57s7.66602 -31.334 15.999 -44.001s20.333 -23.667 36 -33s36.834 -18 63.501 -26l271 -78c34.667 -10 65.5 -20.5 92.5 -31.5s50.5 -24 70.5 -39s37.167 -32.5 51.5 -52.5
s25.833 -43.833 34.5 -71.5s15 -60.167 19 -97.5s6 -80.333 6 -129c0 -76 -6.5 -141.167 -19.5 -195.5s-37.5 -98.666 -73.5 -132.999s-85.5 -59.666 -148.5 -75.999s-144.5 -24.5 -244.5 -24.5c-77.333 0 -141.5 3.5 -192.5 10.5s-92.5 14.833 -124.5 23.5
c-36.667 10 -65.667 21.333 -87 34v176z" />
    <glyph glyph-name="T" unicode="T" horiz-adv-x="1122" 
d="M440 1206h-428v221h1098v-221h-432v-1206h-238v1206z" />
    <glyph glyph-name="U" unicode="U" horiz-adv-x="1405" 
d="M177 1427l238 -0.00195312v-954c0 -56.667 5 -103.334 15 -140.001s26.5 -65.5 49.5 -86.5s52.833 -35.667 89.5 -44s81.667 -12.5 135 -12.5c48 0 89.833 4.16699 125.5 12.5s65.5 23 89.5 44s41.833 49.833 53.5 86.5s17.5 83.334 17.5 140.001v954h238v-968
c0 -83.333 -9.5 -155.666 -28.5 -216.999s-49.5 -112.166 -91.5 -152.499s-96.167 -70.5 -162.5 -90.5s-146.833 -30 -241.5 -30s-175.334 9.83301 -242.001 29.5s-121.167 49.5 -163.5 89.5s-73.166 90.5 -92.499 151.5s-29 132.833 -29 215.5v972z" />
    <glyph glyph-name="V" unicode="V" horiz-adv-x="1343" 
d="M483 0l-483 1427h274l390 -1204h16l389 1204h274l-483 -1427h-377z" />
    <glyph glyph-name="W" unicode="W" horiz-adv-x="1942" 
d="M35 1427h254l248 -1204h4l236 1204h399l250 -1204h4l234 1204h243l-303 -1427h-375l-253 1225h-3l-237 -1225h-379z" />
    <glyph glyph-name="X" unicode="X" horiz-adv-x="1265" 
d="M486 734l-448 693h292l306 -476l294 476h281l-438 -688l477 -739h-289l-336 518l-329 -518h-281z" />
    <glyph glyph-name="Y" unicode="Y" horiz-adv-x="1221" 
d="M492 551l-492 876h281l327 -622h4l328 622h281l-492 -876v-551h-237v551z" />
    <glyph glyph-name="Z" unicode="Z" 
d="M90 156l744 1046v2h-703v223h1057v-159l-742 -1043v-2h750v-223h-1106v156z" />
    <glyph glyph-name="bracketleft" unicode="[" horiz-adv-x="680" 
d="M182 1944h498v-226h-264v-1822h264v-226h-498v2274z" />
    <glyph glyph-name="backslash" unicode="\" horiz-adv-x="925" 
d="M30 1554h242l643 -1554h-242z" />
    <glyph glyph-name="bracketright" unicode="]" horiz-adv-x="680" 
d="M262 -104v1822h-262v226h498v-2274h-498v226h262z" />
    <glyph glyph-name="asciicircum" unicode="^" horiz-adv-x="970" 
d="M315 1427h340l295 -780h-260l-201 590h-12l-196 -590h-261z" />
    <glyph glyph-name="underscore" unicode="_" horiz-adv-x="975" 
d="M985 -78v-170h-995v170h995z" />
    <glyph glyph-name="grave" unicode="`" horiz-adv-x="653" 
d="M492 1151l-142 86.999l-57 36l-55.5 34.5c-17.667 11 -33.5 21.333 -47.5 31s-25.333 17.834 -34 24.501c-32.667 24.667 -56.5 45.667 -71.5 63s-22.5 34.333 -22.5 51c0 11.333 3.16699 23 9.5 35s15.833 25.667 28.5 41c11.333 14.667 23 27.5 35 38.5
s22.667 20.167 32 27.5c11.333 8.66699 22 16 32 22l393 -368l-100 -123v0z" />
    <glyph glyph-name="a" unicode="a" horiz-adv-x="1193" 
d="M127 299c0 60 8.83008 110.666 26.4971 151.999s41.667 74.666 72 99.999s66 43.666 107 54.999s85.167 17 132.5 17c48 0 91.5 -2.66699 130.5 -8s72.833 -11.333 101.5 -18c32.667 -7.33301 62.334 -15.666 89.001 -24.999v98c0 24.667 -0.833008 45.5 -2.5 62.5
s-4.5 31.833 -8.5 44.5s-9.5 23.334 -16.5 32.001s-15.5 17 -25.5 25c-21.333 15.333 -50.666 26.333 -87.999 33s-86 10 -146 10c-38 0 -74.833 -1.16699 -110.5 -3.5s-67.5 -5.16602 -95.5 -8.49902c-32.667 -3.33301 -63.667 -7 -93 -11v166
c26.667 10.667 59.667 20.334 99 29.001c33.333 7.33301 75 14.166 125 20.499s109.333 9.5 178 9.5c46 0 86.833 -1.83301 122.5 -5.5s67.167 -9.83398 94.5 -18.501s51.5 -20 72.5 -34s39.833 -31.333 56.5 -52c14 -17.333 25.667 -35.666 35 -54.999s17 -42 23 -68
s10.167 -55.833 12.5 -89.5s3.5 -72.834 3.5 -117.501v-639h-201l-18 78c-29.333 -20.667 -61.666 -39 -96.999 -55c-30.667 -13.333 -66.5 -25.666 -107.5 -36.999s-86.167 -17 -135.5 -17c-60 0 -111.333 6 -154 18s-77.5 31 -104.5 57s-46.667 60 -59 102
s-18.5 93 -18.5 153zM369.997 298.999c0 -29.333 3.66699 -52.6641 11 -69.9971s18 -30.5 32 -39.5s31.167 -14.833 51.5 -17.5s43.5 -4 69.5 -4c34 0 66.167 3.16699 96.5 9.5s57.166 13.166 80.499 20.499c26.667 8.66699 51.667 18.667 75 30v183
c-21.333 4 -44.333 7.66699 -69 11c-21.333 3.33301 -45.5 6.16602 -72.5 8.49902s-55.5 3.5 -85.5 3.5c-33.333 0 -61.833 -1.5 -85.5 -4.5s-43.167 -9.33301 -58.5 -19s-26.666 -23.334 -33.999 -41.001s-11 -41.167 -11 -70.5z" />
    <glyph glyph-name="b" unicode="b" horiz-adv-x="1228" 
d="M166 1554l237.002 0.00195312v-544c31.333 13.333 65.333 25.666 102 36.999c32 9.33301 69.333 18 112 26s89 12 139 12c70.667 0 129.167 -12.5 175.5 -37.5s83.166 -61.333 110.499 -109s46.5 -105.667 57.5 -174s16.5 -145.833 16.5 -232.5
c0 -104 -8.33301 -191.667 -25 -263s-40.667 -129.333 -72 -174s-70.166 -76.834 -116.499 -96.501s-98.833 -29.5 -157.5 -29.5c-50.667 0 -97.834 5.83301 -141.501 17.5s-81.834 24.834 -114.501 39.501c-38 17.333 -72.667 36.666 -104 57.999l-14 -84h-205v1554z
M403.002 238.002c21.333 -10.667 45.6689 -20.002 73.002 -28.002c23.333 -7.33301 51.333 -13.833 84 -19.5s69.334 -8.5 110.001 -8.5c40 0 72.667 5.83301 98 17.5s45.166 30.667 59.499 57s24.333 61 30 104s8.5 96.167 8.5 159.5c0 70.667 -2.33301 128.834 -7 174.501
s-14.5 81.834 -29.5 108.501s-37 45.167 -66 55.5s-67.833 15.5 -116.5 15.5c-30.667 0 -60.334 -2 -89.001 -6s-54.667 -8.33301 -78 -13c-26.667 -6 -52.334 -12.333 -77.001 -19v-598z" />
    <glyph glyph-name="c" unicode="c" horiz-adv-x="965" 
d="M94 528c0 100 12.167 184.996 36.5 254.996s57.333 126.833 99 170.5s90.5 75.5 146.5 95.5s115.667 30 179 30c48.667 0 92.334 -3.16699 131.001 -9.5s71.667 -13.166 99 -20.499c32 -8.66699 59.667 -18.334 83 -29.001v-164c-22.667 2 -47.334 4.33301 -74.001 7
l-77 4.5c-28.667 1.66699 -58.667 2.5 -90 2.5c-50 0 -93 -4.33301 -129 -13s-65.333 -25.167 -88 -49.5s-39.334 -58.666 -50.001 -102.999s-16 -102.5 -16 -174.5c0 -73.333 6.16699 -132.666 18.5 -177.999s31.166 -80.5 56.499 -105.5s57 -41.667 95 -50
s83 -12.5 135 -12.5c32.667 0 62.834 0.833008 90.501 2.5s51.834 3.83398 72.501 6.50098c24 2.66699 45.667 6 65 10v-166c-21.333 -12 -47.333 -22.667 -78 -32c-26 -8 -58.667 -15.333 -98 -22s-85.333 -10 -138 -10c-64.667 0 -125.5 8.83301 -182.5 26.5
s-106.667 47.834 -149 90.501s-75.833 99.5 -100.5 170.5s-37 160.167 -37 267.5z" />
    <glyph glyph-name="d" unicode="d" horiz-adv-x="1218" 
d="M468 -31c-59.333 0 -111.499 9.66602 -156.499 28.999s-82.5 50.833 -112.5 94.5s-52.833 100.834 -68.5 171.501s-23.834 157 -24.501 259c-1.33301 101.333 6.16699 187.666 22.5 258.999s40 129.5 71 174.5s69 77.667 114 98s95.833 30.5 152.5 30.5
c52 0 99.333 -4 142 -12s79.667 -16.667 111 -26c36.667 -11.333 69 -23.666 97 -36.999v544h238v-1554h-205l-14 84c-30 -21.333 -64 -40.666 -102 -57.999c-32.667 -14.667 -71.5 -27.834 -116.5 -39.501s-94.5 -17.5 -148.5 -17.5zM552.001 181.999
c34.667 0 67.8301 2.50098 99.4971 7.50098s59.834 10.833 84.501 17.5c28.667 7.33301 55.334 16 80.001 26v603c-27.333 6.66699 -56.333 13 -87 19c-26 4.66699 -55.833 9 -89.5 13s-68.167 6 -103.5 6c-36.667 0 -66.667 -6.16699 -90 -18.5
s-41.666 -32.833 -54.999 -61.5s-22.5 -66.334 -27.5 -113.001s-7.5 -104.334 -7.5 -173.001c0 -59.333 2.33301 -109.666 7 -150.999s14 -75 28 -101s33.833 -44.833 59.5 -56.5s59.5 -17.5 101.5 -17.5z" />
    <glyph glyph-name="e" unicode="e" horiz-adv-x="1085" 
d="M94 539c0 110 14.3271 200.329 42.9941 270.996s66.667 126.334 114 167.001s101.333 68.834 162 84.501s123 23.5 187 23.5c80.667 0 147.5 -11 200.5 -33s95.167 -52.833 126.5 -92.5s53.333 -87.167 66 -142.5s19 -116.333 19 -183
c0 -31.333 -1.16699 -63.666 -3.5 -96.999s-5.5 -67.666 -9.5 -102.999h-661c0.666992 -47.333 5.83398 -87.166 15.501 -119.499s25.667 -58.666 48 -78.999s52 -35 89 -44s83.167 -13.5 138.5 -13.5c46.667 0 90.334 1.16699 131.001 3.5s76.334 5.16602 107.001 8.49902
c36 3.33301 68.667 7.66602 98 12.999v-166c-34 -12.667 -71 -24 -111 -34c-34 -8.66699 -73.667 -16.5 -119 -23.5s-93.666 -10.5 -144.999 -10.5c-78.667 0 -148.667 9.83301 -210 29.5s-113.166 52 -155.499 97s-74.666 103.833 -96.999 176.5s-33.5 161.667 -33.5 267z
M792.994 611.996l0.000976562 38.001c0 40 -2.5 74.833 -7.5 104.5s-15.167 54.167 -30.5 73.5s-37 33.666 -65 42.999s-65.333 14 -112 14c-50 0 -90.833 -5.83301 -122.5 -17.5s-56.334 -29 -74.001 -52s-29.667 -51.5 -36 -85.5s-9.5 -73.333 -9.5 -118h457z" />
    <glyph glyph-name="f" unicode="f" horiz-adv-x="775" 
d="M238 858l-147.997 0.000976562v197h148v176c0 54 5.16699 102 15.5 144s27.166 77.333 50.499 106s54.166 50.5 92.499 65.5s85.166 22.5 140.499 22.5c41.333 0 78.833 -2 112.5 -6s62.167 -8.66699 85.5 -14c27.333 -6 52 -12.333 74 -19v-176
c-18 1.33301 -37.333 2.66602 -58 3.99902c-17.333 1.33301 -37.333 2.33301 -60 3s-46 1 -70 1c-29.333 0 -53.333 -2.16699 -72 -6.5s-33.5 -11.333 -44.5 -21s-18.667 -22.167 -23 -37.5s-6.5 -34 -6.5 -56v-186h270v-197h-270v-858h-237v858z" />
    <glyph glyph-name="g" unicode="g" horiz-adv-x="1228" 
d="M249 -264c24 -5.33301 51.6621 -9.66699 82.9951 -13c26.667 -3.33301 58.834 -6.16602 96.501 -8.49902s79.5 -3.5 125.5 -3.5c56 0 101.5 2.16699 136.5 6.5s62.333 12 82 23s33.167 26 40.5 45s11 42.833 11 71.5v184c-30 -12.667 -61.667 -24 -95 -34
c-29.333 -8.66699 -62.5 -16.5 -99.5 -23.5s-75.833 -10.5 -116.5 -10.5c-70 0 -130.167 9.5 -180.5 28.5s-91.666 50.5 -123.999 94.5s-56.166 101.667 -71.499 173s-23 159 -23 263c0 85.333 8.33301 161.833 25 229.5s41.167 125 73.5 172s72.333 83 120 108
s102.5 37.5 164.5 37.5c52.667 0 100.834 -5.33301 144.501 -16s81.5 -22.334 113.5 -35.001c36.667 -15.333 70 -32.333 100 -51l27 78h180v-1213c0 -63.333 -9.16699 -116.833 -27.5 -160.5s-46 -79 -83 -106s-83.167 -46.333 -138.5 -58s-119.666 -17.5 -192.999 -17.5
c-46.667 0 -92 3.16699 -136 9.5s-83.667 13.5 -119 21.5c-41.333 8.66699 -80 19 -116 31v174zM596.995 185.999c28 0 55.502 1.16992 82.502 3.50293s51.167 5.16602 72.5 8.49902c25.333 3.33301 49.333 7.66602 72 12.999v604c-26 9.33301 -54 17.666 -84 24.999
c-25.333 6.66699 -54.333 12.667 -87 18s-66.334 8 -101.001 8c-35.333 0 -65 -5.66699 -89 -17s-43.333 -30.333 -58 -57s-25.167 -62 -31.5 -106s-9.5 -98.667 -9.5 -164c0 -60 2 -111.333 6 -154s13.667 -77.5 29 -104.5s38.666 -46.667 69.999 -59s74 -18.5 128 -18.5z
" />
    <glyph glyph-name="h" unicode="h" horiz-adv-x="1254" 
d="M166 1554l237 -0.000976562v-550c35.333 13.333 73.333 25.666 114 36.999c34.667 9.33301 74.5 18 119.5 26s91.5 12 139.5 12s91.5 -5.16699 130.5 -15.5s72 -28.666 99 -54.999s47.833 -62 62.5 -107s22 -102.5 22 -172.5v-729h-238v700c0 28 -2 52.5 -6 73.5
s-12.5 38.333 -25.5 52s-31.667 23.834 -56 30.501s-56.5 10 -96.5 10c-32 0 -63.5 -2 -94.5 -6s-59.167 -8.33301 -84.5 -13c-30 -5.33301 -58.667 -11.333 -86 -18v-829h-237v1554z" />
    <glyph glyph-name="i" unicode="i" horiz-adv-x="604" 
d="M303 1234c-27.333 0 -49.833 2 -67.5 6s-32 11 -43 21s-18.667 23.667 -23 41s-6.5 39.666 -6.5 66.999s2.16699 49.833 6.5 67.5s12 31.834 23 42.501s25.333 18 43 22s40.167 6 67.5 6s49.833 -2 67.5 -6s31.834 -11.333 42.501 -22s18 -24.834 22 -42.501
s6 -40.167 6 -67.5s-2 -49.666 -6 -66.999s-11.333 -31 -22 -41s-24.834 -17 -42.501 -21s-40.167 -6 -67.5 -6zM184 1055h238v-1055h-238v1055z" />
    <glyph glyph-name="j" unicode="j" horiz-adv-x="630" 
d="M327 1224c-27.333 0 -49.833 2 -67.5 6s-31.834 11 -42.501 21s-18 23.667 -22 41s-6 39.666 -6 66.999s2 49.833 6 67.5s11.333 31.834 22 42.501s24.834 18 42.501 22s40.167 6 67.5 6c26.667 0 49 -2 67 -6s32.5 -11.333 43.5 -22s18.667 -24.834 23 -42.501
s6.5 -40.167 6.5 -67.5s-2.16699 -49.666 -6.5 -66.999s-12 -31 -23 -41s-25.5 -17 -43.5 -21s-40.333 -6 -67 -6zM-40 -286c12.667 -1.33301 26.999 -2.33398 42.999 -3.00098c13.333 -1.33301 28.833 -2.16602 46.5 -2.49902s36.5 -0.5 56.5 -0.5c15.333 0 29.333 1 42 3
s23.667 6.16699 33 12.5s16.5 15.166 21.5 26.499s7.5 26 7.5 44v1261h238v-1321c0 -47.333 -6.66699 -86.166 -20 -116.499s-31.166 -54 -53.499 -71s-47.833 -28.667 -76.5 -35s-58 -9.5 -88 -9.5c-39.333 0 -74.5 2.33301 -105.5 7s-57.167 10 -78.5 16
c-25.333 7.33301 -47.333 15.333 -66 24v165z" />
    <glyph glyph-name="k" unicode="k" horiz-adv-x="1147" 
d="M166 1554h237v-884h156l275 385h271l-360 -492l362 -563h-271l-305 473h-128v-473h-237v1554z" />
    <glyph glyph-name="l" unicode="l" horiz-adv-x="569" 
d="M166 1554h237v-1554h-237v1554z" />
    <glyph glyph-name="m" unicode="m" horiz-adv-x="1823" 
d="M166 1055l173.998 -0.00292969l29 -78c37.333 20 77 38 119 54c36 13.333 76.833 25.666 122.5 36.999s92.834 17 141.501 17c58.667 0 107.167 -9.33301 145.5 -28s68.166 -46.667 89.499 -84c16.667 9.33301 38.334 20.333 65.001 33s56.667 24.834 90 36.501
s70 21.667 110 30s82 12.5 126 12.5c97.333 0 168.5 -27.5 213.5 -82.5s67.5 -139.833 67.5 -254.5v-748h-238v702c0 32 -2 58.833 -6 80.5s-11.667 39.334 -23 53.001s-26.833 23.5 -46.5 29.5s-45.5 9 -77.5 9c-25.333 0 -49.833 -1.5 -73.5 -4.5s-46 -6.83301 -67 -11.5
s-40 -9.66699 -57 -15l-43.5 -14c2 -17.333 3.33301 -35.666 4 -54.999s1 -35 1 -47v-727h-237v702c0 32 -2.16699 58.833 -6.5 80.5s-12.166 39.334 -23.499 53.001s-26.5 23.5 -45.5 29.5s-43.167 9 -72.5 9c-33.333 0 -64.5 -2.5 -93.5 -7.5s-54.833 -10.167 -77.5 -15.5
c-26.667 -6.66699 -51 -14 -73 -22v-829h-237v1055z" />
    <glyph glyph-name="n" unicode="n" horiz-adv-x="1243" 
d="M166 1055l174 0.000976562l29 -78c36.667 20 76.667 38 120 54c37.333 13.333 80.333 25.666 129 36.999s100.667 17 156 17c104 0 180.833 -27.167 230.5 -81.5s74.5 -139.5 74.5 -255.5v-748h-237v719c0 27.333 -1.83301 50.833 -5.5 70.5s-11.5 35.667 -23.5 48
s-29.333 21.5 -52 27.5s-53 9 -91 9c-40 0 -76.333 -2.5 -109 -7.5s-60.667 -10.167 -84 -15.5c-27.333 -6.66699 -52 -14 -74 -22v-829h-237v1055z" />
    <glyph glyph-name="o" unicode="o" horiz-adv-x="1188" 
d="M94 528c0 89.333 9.66699 168.5 29 237.5s49.5 127.167 90.5 174.5s92.833 83.333 155.5 108s137.667 37 225 37s162.5 -12.333 225.5 -37s114.833 -60.667 155.5 -108s70.667 -105.5 90 -174.5s29 -148.167 29 -237.5s-9.66699 -168.833 -29 -238.5
s-49.333 -128.167 -90 -175.5s-92.5 -83.333 -155.5 -108s-138.167 -37 -225.5 -37s-162.333 12.333 -225 37s-114.5 60.667 -155.5 108s-71.167 105.833 -90.5 175.5s-29 149.167 -29 238.5zM594 170c52.667 0 95.334 7.83301 128.001 23.5s58 38.667 76 69
s30.167 67.666 36.5 111.999s9.5 95.5 9.5 153.5c0 57.333 -3.16699 108.166 -9.5 152.499s-18.5 81.666 -36.5 111.999s-43.333 53.333 -76 69s-75.334 23.5 -128.001 23.5c-52 0 -94.333 -7.83301 -127 -23.5s-58.167 -38.667 -76.5 -69s-30.666 -67.666 -36.999 -111.999
s-9.5 -95.166 -9.5 -152.499c0 -58 3.16699 -109.167 9.5 -153.5s18.666 -81.666 36.999 -111.999s43.833 -53.333 76.5 -69s75 -23.5 127 -23.5z" />
    <glyph glyph-name="p" unicode="p" horiz-adv-x="1218" 
d="M403 -485l-237.002 0.00195312v1540h174l29 -78c36.667 20 76.667 38 120 54c37.333 13.333 80.166 25.666 128.499 36.999s100.5 17 156.5 17s104.667 -10.5 146 -31.5s75.833 -54 103.5 -99s48.334 -102.667 62.001 -173s20.5 -154.833 20.5 -253.5
c0 -104.667 -8.16699 -192.667 -24.5 -264s-40.666 -128.833 -72.999 -172.5s-72.166 -75 -119.499 -94s-102 -28.5 -164 -28.5c-44.667 0 -86.5 3.66699 -125.5 11s-73.167 15.666 -102.5 24.999c-34 10.667 -65.333 22.667 -94 36v-526zM402.998 211.002
c19.333 -6 41.002 -10.9971 65.002 -14.9971c20.667 -3.33301 45.167 -6.5 73.5 -9.5s60.166 -4.5 95.499 -4.5c43.333 0 79.166 4.16699 107.499 12.5s50.666 25.166 66.999 50.499s27.833 61.166 34.5 107.499s10 107.166 10 182.499c0 62 -2.5 114.5 -7.5 157.5
s-14.333 78 -28 105s-32.667 46.5 -57 58.5s-55.5 18 -93.5 18c-34.667 0 -68 -2.5 -100 -7.5s-60.333 -10.167 -85 -15.5c-29.333 -6.66699 -56.666 -14 -81.999 -22v-618z" />
    <glyph glyph-name="q" unicode="q" horiz-adv-x="1220" 
d="M497 -31c-62.667 0 -117.834 9.49902 -165.501 28.499s-87.667 50.333 -120 94s-56.666 101.167 -72.999 172.5s-24.5 159.333 -24.5 264c0 96 7.66699 179.167 23 249.5s38.5 128.166 69.5 173.499s69.833 79 116.5 101s101 33 163 33
c51.333 0 99.166 -5.66699 143.499 -17s83.166 -23.666 116.499 -36.999c38.667 -16 74.334 -34 107.001 -54l27 78h174v-1540h-238v526c-28.667 -13.333 -60 -25.333 -94 -36c-29.333 -9.33301 -63.166 -17.666 -101.499 -24.999s-79.5 -11 -123.5 -11zM583 181.999
c34.667 0 66.3311 1.49707 94.998 4.49707s53.334 6.16699 74.001 9.5c24 4 45.333 9 64 15v618c-24 8 -49.333 15.333 -76 22c-23.333 5.33301 -50.166 10.5 -80.499 15.5s-62.166 7.5 -95.499 7.5c-41.333 0 -74.833 -5.33301 -100.5 -16s-46 -29 -61 -55
s-25.167 -60.833 -30.5 -104.5s-8 -98.167 -8 -163.5c0 -75.333 3.16699 -136.166 9.5 -182.499s17.833 -82.166 34.5 -107.499s39.167 -42.166 67.5 -50.499s64.166 -12.5 107.499 -12.5z" />
    <glyph glyph-name="r" unicode="r" horiz-adv-x="816" 
d="M166 1055h204.999l14 -115c52 34 110.333 62 175 84s137.334 35 218.001 39l-2 -246c-83.333 -1.33301 -155.5 -5.5 -216.5 -12.5s-113.167 -19.167 -156.5 -36.5v-768h-237v1055z" />
    <glyph glyph-name="s" unicode="s" horiz-adv-x="1035" 
d="M116 203c29.333 -6.66699 61.9971 -12.6641 97.9971 -17.9971c30.667 -4.66699 66.834 -8.66699 108.501 -12s87.5 -5 137.5 -5c54.667 0 98 2 130 6s56.167 10.833 72.5 20.5s26.833 22.834 31.5 39.501s7 37.667 7 63c0 13.333 -0.833008 25.5 -2.5 36.5
s-5.66699 21 -12 30s-15.666 16.667 -27.999 23s-28.833 11.166 -49.5 14.499l-221 41c-50.667 8.66699 -93.334 20.334 -128.001 35.001s-62.5 34.167 -83.5 58.5s-36 54.333 -45 90s-13.5 79.167 -13.5 130.5c0 110.667 36.833 193.167 110.5 247.5
s178.834 81.5 315.501 81.5c48 0 92.167 -2.83301 132.5 -8.5s75.5 -12.167 105.5 -19.5c34.667 -8 66.334 -17 95.001 -27v-170c-32 5.33301 -65.333 10 -100 14c-30 3.33301 -63.5 6.66602 -100.5 9.99902s-74.5 5 -112.5 5c-43.333 0 -79.333 -1.83301 -108 -5.5
s-51.334 -9.83398 -68.001 -18.501s-28.334 -19.834 -35.001 -33.501s-10 -30.834 -10 -51.501c0 -16 1.33301 -30.333 4 -43s8.33398 -24 17.001 -34s20.667 -18.667 36 -26s36 -13.333 62 -18l229 -43c44.667 -8.66699 82.5 -20 113.5 -34s56.167 -33 75.5 -57
s33.333 -54.5 42 -91.5s13 -82.5 13 -136.5c0 -51.333 -5.16699 -97.333 -15.5 -138s-31.166 -75 -62.499 -103s-75.666 -49.5 -132.999 -64.5s-133 -22.5 -227 -22.5c-52 0 -101 3.5 -147 10.5s-86.333 14.833 -121 23.5c-40.667 10 -78.334 21.333 -113.001 34v166z" />
    <glyph glyph-name="t" unicode="t" horiz-adv-x="864" 
d="M240 858h-156.003v197h156v223l237 53v-276h266v-197h-266v-567c0 -24.667 1.83301 -45 5.5 -61s10.334 -28.833 20.001 -38.5s23.334 -16.334 41.001 -20.001s40.5 -5.5 68.5 -5.5c26 0 49.5 0.5 70.5 1.5s38.833 2.16699 53.5 3.5c17.333 1.33301 32.666 3 45.999 5
v-158c-23.333 -9.33301 -48.333 -17.666 -75 -24.999c-23.333 -6 -50.666 -11.5 -81.999 -16.5s-65.666 -7.5 -102.999 -7.5c-52 0 -95.833 5 -131.5 15s-64.667 25.167 -87 45.5s-38.5 46 -48.5 77s-15 67.167 -15 108.5v643z" />
    <glyph glyph-name="u" unicode="u" horiz-adv-x="1245" 
d="M166 1055l236.999 -0.000976562v-719c0 -28 1.83301 -51.667 5.5 -71s11.5 -35.166 23.5 -47.499s29.333 -21.333 52 -27s53 -8.5 91 -8.5c40 0 76.333 2.16699 109 6.5s60.667 9.16602 84 14.499c27.333 6.66699 52 14 74 22v830h237v-1055h-174l-28 78
c-37.333 -20.667 -77.666 -39 -120.999 -55c-37.333 -13.333 -80.5 -25.666 -129.5 -36.999s-100.833 -17 -155.5 -17c-103.333 0 -180 27.5 -230 82.5s-75 140.833 -75 257.5v746z" />
    <glyph glyph-name="v" unicode="v" horiz-adv-x="1052" 
d="M6 1055h258l260 -834h4l260 834h258l-364 -1055h-311z" />
    <glyph glyph-name="w" unicode="w" horiz-adv-x="1554" 
d="M12 1055h238l196 -844h17l166 844h325l166 -844h14l201 844h207l-266 -1055h-312l-176 829h-16l-158 -829h-327z" />
    <glyph glyph-name="x" unicode="x" horiz-adv-x="1052" 
d="M393 537l-357 518h283l227 -329l224 329h258l-355 -513l375 -542h-283l-245 354l-258 -354h-258z" />
    <glyph glyph-name="y" unicode="y" horiz-adv-x="1089" 
d="M127 -301c9.33301 -1.33301 20.001 -2.33398 32.001 -3.00098c20.667 -2 51.667 -3 93 -3c22.667 0 42.5 2.33301 59.5 7s31.667 12.334 44 23.001s23.333 24 33 40s18.834 35.667 27.501 59l65 178h-102l-367 1055h264l271 -846h8l272 846h262l-452 -1274
c-18.667 -52 -37.834 -95.833 -57.501 -131.5s-41 -64.5 -64 -86.5s-48 -38 -75 -48s-56.5 -15 -88.5 -15c-36.667 0 -68.834 1.66699 -96.501 5s-51.167 7.33301 -70.5 12c-22 5.33301 -41.333 11.333 -58 18v164v0z" />
    <glyph glyph-name="z" unicode="z" horiz-adv-x="1092" 
d="M117 158l534 692v2h-514v203h842v-150l-537 -694v-2h549v-209h-874v158z" />
    <glyph glyph-name="braceleft" unicode="{" horiz-adv-x="772" 
d="M256 444c0 50 -3.50098 90.3311 -10.501 120.998s-17.833 55 -32.5 73s-32.834 31.333 -54.501 40s-47.167 16 -76.5 22v211c29.333 6 54.833 13.333 76.5 22s39.834 21.834 54.501 39.501s25.5 41.667 32.5 72s10.5 70.5 10.5 120.5v434
c0 51.333 4.33301 96.166 13 134.499s22.667 70.333 42 96s45 45 77 58s71.333 19.5 118 19.5c40 0 75.333 -1.33301 106 -4s56.667 -5.66699 78 -9c25.333 -3.33301 47.333 -7.33301 66 -12v-170c-61.333 0 -110 -1.83301 -146 -5.5s-63.333 -11.834 -82 -24.501
s-30.5 -31.167 -35.5 -55.5s-7.5 -57.166 -7.5 -98.499v-498c0 -41.333 -7.66699 -75.833 -23 -103.5s-32.666 -50.167 -51.999 -67.5s-38.333 -30.166 -57 -38.499s-31.334 -13.5 -38.001 -15.5c6 -1.33301 18.333 -6 37 -14s37.834 -20.5 57.501 -37.5
s37.167 -39.5 52.5 -67.5s23 -62.667 23 -104v-498c0 -42 2.5 -75.167 7.5 -99.5s16.833 -42.833 35.5 -55.5s46 -20.667 82 -24s84.667 -5 146 -5v-170c-18.667 -5.33301 -40.667 -10 -66 -14c-21.333 -3.33301 -47.333 -6.33301 -78 -9s-66 -4 -106 -4
c-46.667 0 -86 6.5 -118 19.5s-57.667 32.333 -77 58s-33.333 57.834 -42 96.501s-13 83.667 -13 135v432z" />
    <glyph glyph-name="bar" unicode="|" horiz-adv-x="684" 
d="M227 1589h229v-2076h-229v2076z" />
    <glyph glyph-name="braceright" unicode="}" horiz-adv-x="772" 
d="M16 -100c61.333 0 110 1.66895 146 5.00195s63.167 11.333 81.5 24s30 31.167 35 55.5s7.5 57.5 7.5 99.5v498c0 41.333 7.66699 76 23 104s33 50.5 53 67.5s39.167 29.5 57.5 37.5s30.5 12.667 36.5 14c-6.66699 2 -19.167 7.16699 -37.5 15.5
s-37.333 21.166 -57 38.499s-37.167 39.833 -52.5 67.5s-23 62.167 -23 103.5v498c0 41.333 -2.5 74.166 -7.5 98.499s-16.667 42.833 -35 55.5s-45.5 20.834 -81.5 24.501s-84.667 5.5 -146 5.5v170c18.667 4.66699 40.667 8.66699 66 12
c21.333 3.33301 47.333 6.33301 78 9s66 4 106 4c46.667 0 85.834 -6.5 117.501 -19.5s57.334 -32.333 77.001 -58s33.834 -57.667 42.501 -96s13 -83.166 13 -134.499v-434c0 -50 3.5 -90.167 10.5 -120.5s17.833 -54.333 32.5 -72s32.834 -30.834 54.501 -39.501
s47.167 -16 76.5 -22v-211c-29.333 -6 -54.833 -13.333 -76.5 -22s-39.834 -22 -54.501 -40s-25.5 -42.333 -32.5 -73s-10.5 -71 -10.5 -121v-432c0 -51.333 -4.33301 -96.333 -13 -135s-22.834 -70.834 -42.501 -96.501s-45.334 -45 -77.001 -58
s-70.834 -19.5 -117.501 -19.5c-40 0 -75.333 1.33301 -106 4s-56.667 5.66699 -78 9c-25.333 4 -47.333 8.66699 -66 14v170z" />
    <glyph glyph-name="asciitilde" unicode="~" horiz-adv-x="1382" 
d="M60 403c2 49.333 10.6719 94.833 26.0049 136.5s36.666 78 63.999 109s60.666 55.667 99.999 74s84 28.833 134 31.5c31.333 2 65.166 -1.83301 101.499 -11.5s73.5 -22.334 111.5 -38.001s76 -32.834 114 -51.501l109 -52c34.667 -16 67.167 -29 97.5 -39
s56.5 -14.333 78.5 -13c22 0.666992 41.5 4.33398 58.5 11.001s32.667 16.5 47 29.5s27.833 29.167 40.5 48.5s25.667 42.333 39 69l141 -41c-2 -49.333 -10.5 -94.5 -25.5 -135.5s-36.333 -76.5 -64 -106.5s-61.167 -53.833 -100.5 -71.5s-84 -27.834 -134 -30.501
c-40.667 -2.66699 -80 0.5 -118 9.5s-74.833 21.167 -110.5 36.5s-70.334 32.333 -104.001 51s-66.334 35.834 -98.001 51.501s-62.667 28.334 -93 38.001s-59.833 13.5 -88.5 11.5c-44 -2 -81 -15.667 -111 -41s-54.333 -64.333 -73 -117l-142 41v0z" />
    <glyph glyph-name="nonbreakingspace" unicode="&#xa0;" horiz-adv-x="410" 
 />
    <glyph glyph-name="exclamdown" unicode="&#xa1;" horiz-adv-x="584" 
d="M412.011 -2.91309h-239.985v990.939h239.985v-990.939zM445.009 1285.01c0 -31.3311 -2.16699 -56.8291 -6.5 -76.4941c-4.33301 -19.666 -12.332 -35.165 -23.998 -46.498c-11.666 -11.332 -27.332 -18.998 -46.9971 -22.998c-19.666 -4 -44.498 -6 -74.4961 -6
c-30.665 0 -55.9971 2 -75.9961 6s-35.665 11.666 -46.998 22.998c-11.333 11.333 -19.333 26.832 -24 46.498c-4.66602 19.665 -6.99902 45.1631 -6.99902 76.4941c0 30.665 2.33301 55.8301 6.99902 75.4951c4.66699 19.665 12.667 35.3311 24 46.9971
s26.999 19.666 46.998 23.999s45.3311 6.49902 75.9961 6.49902c29.998 0 54.8301 -2.16602 74.4961 -6.49902c19.665 -4.33301 35.3311 -12.333 46.9971 -23.999s19.665 -27.332 23.998 -46.9971s6.5 -44.8301 6.5 -75.4951z" />
    <glyph glyph-name="cent" unicode="&#xa2;" horiz-adv-x="965" 
d="M450 -18c-51.333 8.66699 -98.666 24.9971 -141.999 48.9971s-80.833 57.667 -112.5 101s-56.5 97.333 -74.5 162s-27 142.667 -27 234c0 86 9 160.667 27 224s42.833 117 74.5 161s69.167 78.667 112.5 104s90.666 42.666 141.999 51.999v201h236v-200
c28.667 -4.66699 54.334 -9.66699 77.001 -15s41.667 -10.666 57 -15.999c18 -6 34 -12.333 48 -19v-164c-22.667 2 -47.334 4.33301 -74.001 7l-77 4.5c-28.667 1.66699 -58.667 2.5 -90 2.5c-50 0 -93 -4.33301 -129 -13s-65.333 -25.167 -88 -49.5
s-39.334 -58.666 -50.001 -102.999s-16 -102.5 -16 -174.5c0 -73.333 6.16699 -132.666 18.5 -177.999s31.166 -80.5 56.499 -105.5s57 -41.667 95 -50s83 -12.5 135 -12.5c32.667 0 62.834 0.833008 90.501 2.5s51.834 3.83398 72.501 6.50098c24 2.66699 45.667 6 65 10
v-166c-13.333 -6.66699 -29.333 -13.667 -48 -21c-16 -6 -35.833 -12.167 -59.5 -18.5s-51.5 -11.833 -83.5 -16.5v-186h-236v187v0z" />
    <glyph glyph-name="sterling" unicode="&#xa3;" horiz-adv-x="1189" 
d="M129 193c24.667 12 45.832 26.001 63.499 42.001s32.167 35 43.5 57s19.833 47.333 25.5 76s8.5 61.667 8.5 99v156h-170v200h170v195c0 44 2 85 6 123s12 72.833 24 104.5s28.667 59.834 50 84.501s49.5 45.5 84.5 62.5s77.5 29.833 127.5 38.5s109.667 13 179 13
c56.667 0 107.667 -3 153 -9s84.666 -12.667 117.999 -20c38.667 -8.66699 73.334 -18.334 104.001 -29.001v-176c-27.333 3.33301 -58.666 6.33301 -93.999 9c-30 2.66699 -66.333 5 -109 7s-90.334 3 -143.001 3c-58 0 -104.333 -2.16699 -139 -6.5
s-61.167 -13.833 -79.5 -28.5s-30.166 -35.5 -35.499 -62.5s-8 -62.833 -8 -107.5v-201h438v-200h-438v-76c0 -30 -0.833008 -61 -2.5 -93s-5.66699 -62.5 -12 -91.5s-15.833 -55.333 -28.5 -79s-29.667 -41.834 -51 -54.501v-10h702v-219h-987v193z" />
    <glyph glyph-name="currency" unicode="&#xa4;" horiz-adv-x="1331" 
d="M239 257c-28.667 69.333 -42.998 153.664 -42.998 252.997c0 48 3.5 92.833 10.5 134.5s17.833 79.834 32.5 114.501l-194 193l176 176l187 -186c34 16.667 72 29.334 114 38.001s89 13 141 13c103.333 0 189.666 -17.333 258.999 -52l188 187l176 -176l-195 -194
c28.667 -68 43 -150.667 43 -248c0 -99.333 -14.333 -183.666 -43 -252.999l195 -194l-176 -176l-187 186c-69.333 -35.333 -156 -53 -260 -53c-102.667 0 -188.334 17.667 -257.001 53l-185 -186l-176 176zM442.002 509.998c0 -46 2.83301 -86.833 8.5 -122.5
s16.667 -65.667 33 -90s38.833 -42.833 67.5 -55.5s66 -19 112 -19s83.5 6.33301 112.5 19s51.5 31.167 67.5 55.5s26.833 54.333 32.5 90s8.5 76.5 8.5 122.5c0 44.667 -2.83301 84.667 -8.5 120s-16.5 65 -32.5 89s-38.5 42.333 -67.5 55s-66.5 19 -112.5 19
s-83.333 -6.33301 -112 -19s-51.167 -31 -67.5 -55s-27.333 -53.667 -33 -89s-8.5 -75.333 -8.5 -120z" />
    <glyph glyph-name="yen" unicode="&#xa5;" horiz-adv-x="1194" 
d="M174 350h307v139h-307v168h272l-436 770h266l320 -598h4l318 598h266l-430 -770h266v-168h-299v-139h299v-168h-299v-182h-240v182h-307v168z" />
    <glyph glyph-name="brokenbar" unicode="&#xa6;" horiz-adv-x="684" 
d="M227 1427h229v-833h-229v833zM456 348v-835h-229v835h229z" />
    <glyph glyph-name="section" unicode="&#xa7;" horiz-adv-x="1055" 
d="M127 -147c23.333 -7.33301 50.998 -13.6641 82.998 -18.9971c26.667 -4.66699 59.167 -8.83398 97.5 -12.501s81.833 -5.5 130.5 -5.5c54.667 0 100.5 2.83301 137.5 8.5s66.667 13.834 89 24.501s38.333 23.834 48 39.501s14.5 33.167 14.5 52.5
c0 14 -0.833008 26.5 -2.5 37.5s-5.5 20.833 -11.5 29.5s-15 16.167 -27 22.5s-28.333 11.166 -49 14.499l-305 53c-45.333 8 -83 20.833 -113 38.5s-54.167 38.667 -72.5 63s-31.333 51.166 -39 80.499s-11.5 59.666 -11.5 90.999c0 52 6.5 100.5 19.5 145.5
s27.5 84.5 43.5 118.5c18.667 39.333 40 75.333 64 108c-37.333 26 -63.666 59.833 -78.999 101.5s-23 96.167 -23 163.5c0 55.333 9.16699 103.5 27.5 144.5s44.666 75 78.999 102s76.333 47.167 126 60.5s105.834 20 168.501 20c48 0 93.667 -2.83301 137 -8.5
s81.666 -11.834 114.999 -18.501c38.667 -7.33301 74.334 -16 107.001 -26v-172c-36.667 4.66699 -74 8.66699 -112 12c-32.667 3.33301 -68.834 6.33301 -108.501 9s-78.167 4 -115.5 4c-39.333 0 -71.666 -2.16699 -96.999 -6.5s-45.666 -11.333 -60.999 -21
s-26 -22 -32 -37s-9 -33.167 -9 -54.5c0 -12 1.33301 -23.167 4 -33.5s8.33398 -19.833 17.001 -28.5s20.667 -16.5 36 -23.5s36 -12.833 62 -17.5l291 -53c43.333 -8 79.666 -19.5 108.999 -34.5s52.833 -33.5 70.5 -55.5s30.334 -47.833 38.001 -77.5
s11.5 -63.167 11.5 -100.5c0 -54 -7 -104.167 -21 -150.5s-29.333 -86.5 -46 -120.5c-19.333 -40 -41.333 -76.667 -66 -110c40 -23.333 68 -56.5 84 -99.5s24 -99.833 24 -170.5c0 -48 -7.66699 -92.167 -23 -132.5s-41.5 -75 -78.5 -104s-86.667 -51.5 -149 -67.5
s-140.5 -24 -234.5 -24c-52 0 -99.333 3.5 -142 10.5s-79.334 15.167 -110.001 24.5c-36 10 -68 21.667 -96 35v170zM671.998 268.002c14.667 27.333 28 55.665 40 84.998c10 25.333 19.167 53.333 27.5 84s12.5 61 12.5 91c0 14.667 -0.666992 28.667 -2 42
s-5.66602 25.333 -12.999 36s-19.333 20 -36 28s-40 14.333 -70 19l-236 37c-13.333 -28.667 -25.333 -57.667 -36 -87c-9.33301 -25.333 -17.5 -52.5 -24.5 -81.5s-10.5 -56.167 -10.5 -81.5c0 -14 1.33301 -28.167 4 -42.5s8 -27.666 16 -39.999
s19.667 -23.166 35 -32.499s35.666 -16 60.999 -20z" />
    <glyph glyph-name="dieresis" unicode="&#xa8;" horiz-adv-x="868" 
d="M62.7021 1218.1c0 28.2002 1.9502 51.1504 5.85059 68.8506c3.89941 17.7002 11.0996 31.6504 21.6006 41.8506c10.5 10.2002 24.6006 17.1006 42.3008 20.7012s40.0508 5.40039 67.0518 5.40039c27.6006 0 50.4014 -1.7998 68.4023 -5.40039
s32.1016 -10.501 42.3018 -20.7012s17.4004 -24.1504 21.6006 -41.8506s6.30078 -40.6504 6.30078 -68.8506c0 -27.6006 -2.10059 -50.251 -6.30078 -67.9512s-11.4004 -31.8008 -21.6006 -42.3008c-10.2002 -10.501 -24.3008 -17.7012 -42.3018 -21.6006
c-18.001 -3.90039 -40.8018 -5.85059 -68.4023 -5.85059c-27.001 0 -49.3516 1.9502 -67.0518 5.85059c-17.7002 3.89941 -31.8008 11.0996 -42.3008 21.6006c-10.501 10.5 -17.7012 24.6006 -21.6006 42.3008c-3.90039 17.7002 -5.85059 40.3506 -5.85059 67.9512z
M485.702 1218.1c0 28.2002 1.9502 51.1504 5.85059 68.8506c3.89941 17.7002 11.0996 31.6504 21.6006 41.8506c10.5 10.2002 24.6006 17.1006 42.3008 20.7012s40.0508 5.40039 67.0518 5.40039c27.6006 0 50.4014 -1.7998 68.4023 -5.40039
s32.1016 -10.501 42.3018 -20.7012s17.4004 -24.1504 21.6006 -41.8506s6.30078 -40.6504 6.30078 -68.8506c0 -27.6006 -2.10059 -50.251 -6.30078 -67.9512s-11.4004 -31.8008 -21.6006 -42.3008c-10.2002 -10.501 -24.3008 -17.7012 -42.3018 -21.6006
c-18.001 -3.90039 -40.8018 -5.85059 -68.4023 -5.85059c-27.001 0 -49.3516 1.9502 -67.0518 5.85059c-17.7002 3.89941 -31.8008 11.0996 -42.3008 21.6006c-10.501 10.5 -17.7012 24.6006 -21.6006 42.3008c-3.90039 17.7002 -5.85059 40.3506 -5.85059 67.9512z" />
    <glyph glyph-name="copyright" unicode="&#xa9;" horiz-adv-x="1450" 
d="M725 211c-95.333 0 -184.833 18 -268.5 54s-156.834 85.333 -219.501 148s-112 135.834 -148 219.501s-54 173.167 -54 268.5c0 96 18 185.833 54 269.5s85.333 156.667 148 219s135.834 111.5 219.501 147.5s173.167 54 268.5 54s184.833 -18 268.5 -54
s156.834 -85.167 219.501 -147.5s112 -135.333 148 -219s54 -173.5 54 -269.5c0 -95.333 -18 -184.833 -54 -268.5s-85.333 -156.834 -148 -219.501s-135.834 -112 -219.501 -148s-173.167 -54 -268.5 -54zM725 393c70 0 136 13.5 198 40.5s116.167 63.5 162.5 109.5
s82.833 99.833 109.5 161.5s40 127.167 40 196.5c0 70 -13.333 136 -40 198s-63.167 116.167 -109.5 162.5s-100.5 82.833 -162.5 109.5s-128 40 -198 40s-135.833 -13.333 -197.5 -40s-115.5 -63.167 -161.5 -109.5s-82.333 -100.5 -109 -162.5s-40 -128 -40 -198
c0 -69.333 13.333 -134.833 40 -196.5s63 -115.5 109 -161.5s99.833 -82.5 161.5 -109.5s127.5 -40.5 197.5 -40.5zM735 530c-45.333 0 -87.333 5.99707 -126 17.9971s-72.167 32.333 -100.5 61s-50.5 66.834 -66.5 114.501s-24 106.834 -24 177.501c0 72 8 132 24 180
s38.167 86.333 66.5 115s61.833 48.834 100.5 60.501s80.667 17.5 126 17.5c36 0 67.333 -2.5 94 -7.5s48.667 -10.167 66 -15.5c20.667 -6.66699 38.334 -14 53.001 -22v-131c-10.667 3.33301 -24.667 6.33301 -42 9c-14.667 2 -32.834 4 -54.501 6s-47.5 3 -77.5 3
c-32 0 -59.167 -3.33301 -81.5 -10s-40.5 -18.167 -54.5 -34.5s-24.167 -38 -30.5 -65s-9.5 -60.833 -9.5 -101.5c0 -41.333 3.16699 -76 9.5 -104s16.5 -50.333 30.5 -67s32.167 -28.5 54.5 -35.5s49.5 -10.5 81.5 -10.5c30 0 56.333 0.833008 79 2.5
s41.667 3.83398 57 6.50098c18 2.66699 33.333 6 46 10v-132c-16 -8.66699 -35 -16.334 -57 -23.001c-18.667 -5.33301 -41.667 -10.333 -69 -15s-59 -7 -95 -7z" />
    <glyph glyph-name="ordfeminine" unicode="&#xaa;" horiz-adv-x="804" 
d="M328 639c-71.333 0 -127.999 18.001 -169.999 54.001s-63 91.667 -63 167c0 80 19.167 137.833 57.5 173.5s95.5 53.5 171.5 53.5c30 0 58.5 -2 85.5 -6s50.833 -8.33301 71.5 -13c24 -6 46 -12.333 66 -19v86c0 21.333 -2.83301 39.333 -8.5 54
s-13.834 26.667 -24.501 36c-15.333 13.333 -36.166 21.333 -62.499 24s-57.833 4 -94.5 4c-27.333 0 -54.333 -0.833008 -81 -2.5s-50.667 -3.5 -72 -5.5l-73 -8v121c24.667 8 52 15.333 82 22c25.333 5.33301 54.666 10.5 87.999 15.5s69 7.5 107 7.5
c62 0 115.667 -5.33301 161 -16s80.333 -31.334 105 -62.001c10 -12.667 18.667 -27 26 -43s13.333 -35.167 18 -57.5s8 -48.833 10 -79.5s3 -67 3 -109v-377h-145l-16 66c-18.667 -16.667 -40 -31 -64 -43c-21.333 -11.333 -46.833 -21.333 -76.5 -30s-63.5 -13 -101.5 -13
zM371.001 788.001c23.333 0 45.6641 1.5 66.9971 4.5s40 6.16699 56 9.5c18.667 4 36.334 9 53.001 15v117c-15.333 2 -31.666 4 -48.999 6c-15.333 1.33301 -32.333 2.66602 -51 3.99902s-38 2 -58 2c-22.667 0 -41.167 -1.33301 -55.5 -4s-25.5 -7 -33.5 -13
s-13.5 -14 -16.5 -24s-4.5 -22.333 -4.5 -37c0 -14 1.33301 -26.167 4 -36.5s7.5 -18.666 14.5 -24.999s16.333 -11 28 -14s26.834 -4.5 45.501 -4.5z" />
    <glyph glyph-name="guillemotleft" unicode="&#xab;" horiz-adv-x="1197" 
d="M78 688l457 316v-273l-273 -174v-25l273 -174v-272l-457 315v287zM655 688l457 316v-273l-273 -174v-25l273 -174v-272l-457 315v287z" />
    <glyph glyph-name="logicalnot" unicode="&#xac;" horiz-adv-x="1146" 
d="M40 866h1041v-551h-238v338h-803v213z" />
    <glyph glyph-name="registered" unicode="&#xae;" horiz-adv-x="1450" 
d="M725 207c-95.333 0 -184.833 18 -268.5 54s-156.834 85.333 -219.501 148s-112 135.834 -148 219.501s-54 173.167 -54 268.5s18 184.833 54 268.5s85.333 156.834 148 219.501s135.834 112 219.501 148s173.167 54 268.5 54s184.833 -18 268.5 -54
s156.834 -85.333 219.501 -148s112 -135.834 148 -219.501s54 -173.167 54 -268.5s-18 -184.833 -54 -268.5s-85.333 -156.834 -148 -219.501s-135.834 -112 -219.501 -148s-173.167 -54 -268.5 -54zM725 389c70 0 136 13.333 198 40s116.167 63 162.5 109
s82.833 99.833 109.5 161.5s40 127.5 40 197.5s-13.333 136 -40 198s-63.167 116.167 -109.5 162.5s-100.5 82.833 -162.5 109.5s-128 40 -198 40s-135.833 -13.333 -197.5 -40s-115.5 -63.167 -161.5 -109.5s-82.333 -100.5 -109 -162.5s-40 -128 -40 -198
s13.333 -135.833 40 -197.5s63 -115.5 109 -161.5s99.833 -82.333 161.5 -109s127.5 -40 197.5 -40zM465 1260h333.999c24 0 49 -2.33301 75 -7s49.833 -15.167 71.5 -31.5s39.5 -40.5 53.5 -72.5s21 -75 21 -129c0 -46.667 -6.16699 -83.5 -18.5 -110.5
s-26.166 -47.5 -41.499 -61.5c-17.333 -16.667 -37 -27.667 -59 -33l152 -270h-193l-135 239h-90v-239h-170v715zM763.999 907c16 0 29.5 1.66797 40.5 5.00098s20 9.16602 27 17.499s12.167 19.5 15.5 33.5s5 31.667 5 53c0 42 -7 70.5 -21 85.5s-38.333 22.5 -73 22.5
h-123v-217h129z" />
    <glyph glyph-name="macron" unicode="&#xaf;" horiz-adv-x="827" 
d="M61 1415h705v-196h-705v196z" />
    <glyph glyph-name="degree" unicode="&#xb0;" horiz-adv-x="1026" 
d="M518 852c-44.667 0 -85.834 5.66699 -123.501 17s-70 30.166 -97 56.499s-48 60.666 -63 102.999s-22.5 94.5 -22.5 156.5c0 66.667 7.5 122.167 22.5 166.5s36 79.666 63 105.999s59.333 44.833 97 55.5s78.834 16 123.501 16c44 0 84 -5.33301 120 -16
s67 -29.167 93 -55.5s46.167 -61.666 60.5 -105.999s21.5 -99.833 21.5 -166.5c0 -62 -7.16699 -114.167 -21.5 -156.5s-34.5 -76.666 -60.5 -102.999s-57 -45.166 -93 -56.499s-76 -17 -120 -17zM518 1020c18 0 34.5 2.33301 49.5 7s27.667 13.334 38 26.001
s18.5 29.5 24.5 50.5s9 48.167 9 81.5c0 34.667 -3 63.5 -9 86.5s-14.167 41.333 -24.5 55s-23 23.167 -38 28.5s-31.5 8 -49.5 8c-19.333 0 -37.166 -2.66699 -53.499 -8s-30.166 -14.833 -41.499 -28.5s-20.166 -32 -26.499 -55s-9.5 -51.833 -9.5 -86.5
c0 -33.333 3.16699 -60.5 9.5 -81.5s15.166 -37.833 26.499 -50.5s25.166 -21.334 41.499 -26.001s34.166 -7 53.499 -7z" />
    <glyph glyph-name="plusminus" unicode="&#xb1;" horiz-adv-x="1025" 
d="M405 614h-350v203h348v377h221v-377h346v-201h-344v-346h-221v344zM55 193h915v-193h-915v193z" />
    <glyph glyph-name="twosuperior" unicode="&#xb2;" horiz-adv-x="711" 
d="M65 791l171.5 157.501c49 47 89.667 90 122 129s56.666 74.5 72.999 106.5s24.5 62 24.5 90c0 88.667 -56.667 133 -170 133c-23.333 0 -46.5 -0.833008 -69.5 -2.5l-62.5 -4.5c-22 -2.66699 -42.667 -5 -62 -7v131c20 7.33301 43.333 14.333 70 21
c23.333 5.33301 51.5 10.333 84.5 15s71.5 7 115.5 7c42.667 0 81.667 -5.5 117 -16.5s65.333 -27.333 90 -49s43.834 -48.5 57.501 -80.5s20.5 -69.333 20.5 -112c0 -48 -9.16699 -93.833 -27.5 -137.5s-42 -85 -71 -124s-61.667 -75.833 -98 -110.5
s-72.5 -66.334 -108.5 -95.001v-2h309v-168h-586v119z" />
    <glyph glyph-name="threesuperior" unicode="&#xb3;" horiz-adv-x="676" 
d="M66 829c20.667 -2 42.001 -3.66309 64.001 -4.99609c18.667 -1.33301 39.167 -2.5 61.5 -3.5s43.5 -1.5 63.5 -1.5c38.667 0 70.167 2.33301 94.5 7s43.5 11.667 57.5 21s23.5 21.333 28.5 36s7.5 31.667 7.5 51c0 21.333 -3.5 39 -10.5 53s-19.333 25.333 -37 34
s-41.334 15 -71.001 19s-67.167 7 -112.5 9v141c42 0.666992 76.833 3.16699 104.5 7.5s49.834 11.166 66.501 20.499s28.5 21 35.5 35s10.5 30.667 10.5 50c0 40 -13 68.333 -39 85s-65 25 -117 25c-25.333 0 -50.166 -0.833008 -74.499 -2.5l-65.5 -4.5
c-22.667 -2.66699 -44.334 -5 -65.001 -7v125c22 7.33301 46 14.333 72 21c22 5.33301 47.5 10.333 76.5 15s60.167 7 93.5 7c44 0 84.167 -4 120.5 -12s67.666 -21.667 93.999 -41s46.666 -45 60.999 -77s21.5 -72 21.5 -120c0 -30 -3.33301 -55.833 -10 -77.5
s-15.167 -39.834 -25.5 -54.501s-21.833 -26.334 -34.5 -35.001s-25 -14.334 -37 -17.001v-5c14 -5.33301 28.667 -12 44 -20s29.5 -19.5 42.5 -34.5s23.667 -34.5 32 -58.5s12.5 -54.333 12.5 -91c0 -50.667 -7.33301 -93 -22 -127s-35.5 -61.167 -62.5 -81.5
s-59.667 -34.833 -98 -43.5s-81.166 -13 -128.499 -13c-36 0 -69.333 1.83301 -100 5.5s-57.667 7.83398 -81 12.501c-26.667 5.33301 -51 11.666 -73 18.999v133z" />
    <glyph glyph-name="acute" unicode="&#xb4;" horiz-adv-x="672" 
d="M61 1278l407.997 382.998c8.66699 -4.66699 18.334 -11 29.001 -19c9.33301 -7.33301 19.833 -16.666 31.5 -27.999s24.834 -25.666 39.501 -42.999c12.667 -15.333 22.334 -29.333 29.001 -42s10 -24.667 10 -36c0 -16.667 -7.5 -33.5 -22.5 -50.5
s-39.5 -37.833 -73.5 -62.5l-36 -25l-49 -33l-57 -37.5l-59 -38.5l-147 -95z" />
    <glyph glyph-name="mu" unicode="&#xb5;" horiz-adv-x="1298" 
d="M387 -485l-221 -0.00195312v1540h221v-590c0 -50 2 -92.833 6 -128.5s13.167 -65.167 27.5 -88.5s35.166 -40.5 62.499 -51.5s64.333 -16.5 111 -16.5c34 0 65.5 2.33301 94.5 7s54.167 10 75.5 16c24.667 7.33301 47 15.333 67 24v828h234v-793
c0 -22 1.16699 -40 3.5 -54s6 -25.167 11 -33.5s11.5 -14.166 19.5 -17.499s17.667 -5 29 -5c42 0 72.667 1 92 3c11.333 0.666992 20.333 1.66699 27 3v-144c-21.333 -8.66699 -43.666 -16.334 -66.999 -23.001c-20 -5.33301 -43 -10.333 -69 -15s-52.333 -7 -79 -7
c-48 0 -85.5 10.5 -112.5 31.5s-46.5 52.5 -58.5 94.5c-5.33301 -4.66699 -16.333 -13.167 -33 -25.5s-37.667 -25.166 -63 -38.499s-54.5 -25.166 -87.5 -35.499s-68.5 -15.5 -106.5 -15.5c-40 0 -75 3.83301 -105 11.5s-56.333 18.5 -79 32.5v-509z" />
    <glyph glyph-name="mu" unicode="&#x3bc;" horiz-adv-x="1298" 
d="M387 -485l-221 -0.00195312v1540h221v-590c0 -50 2 -92.833 6 -128.5s13.167 -65.167 27.5 -88.5s35.166 -40.5 62.499 -51.5s64.333 -16.5 111 -16.5c34 0 65.5 2.33301 94.5 7s54.167 10 75.5 16c24.667 7.33301 47 15.333 67 24v828h234v-793
c0 -22 1.16699 -40 3.5 -54s6 -25.167 11 -33.5s11.5 -14.166 19.5 -17.499s17.667 -5 29 -5c42 0 72.667 1 92 3c11.333 0.666992 20.333 1.66699 27 3v-144c-21.333 -8.66699 -43.666 -16.334 -66.999 -23.001c-20 -5.33301 -43 -10.333 -69 -15s-52.333 -7 -79 -7
c-48 0 -85.5 10.5 -112.5 31.5s-46.5 52.5 -58.5 94.5c-5.33301 -4.66699 -16.333 -13.167 -33 -25.5s-37.667 -25.166 -63 -38.499s-54.5 -25.166 -87.5 -35.499s-68.5 -15.5 -106.5 -15.5c-40 0 -75 3.83301 -105 11.5s-56.333 18.5 -79 32.5v-509z" />
    <glyph glyph-name="paragraph" unicode="&#xb6;" horiz-adv-x="1368" 
d="M560 616c-56.667 0 -106.835 6.66602 -150.502 19.999s-80.167 35.833 -109.5 67.5s-51.666 73.667 -66.999 126s-23 117.833 -23 196.5c0 62.667 7.33301 120.334 22 173.001s42 98.167 82 136.5s95 68.333 165 90s160.333 32.5 271 32.5
c38.667 0 81.334 -1.66699 128.001 -5s91 -7 133 -11c48 -4.66699 96.667 -9.66699 146 -15v-1427h-210v1253h-177v-1253h-210v616z" />
    <glyph glyph-name="periodcentered" unicode="&#xb7;" horiz-adv-x="510" 
d="M103 692c0 31.333 2.16699 56.833 6.5 76.5s12.333 35.167 24 46.5s27.334 19 47.001 23s44.5 6 74.5 6c30.667 0 56 -2 76 -6s35.667 -11.667 47 -23s19.333 -26.833 24 -46.5s7 -45.167 7 -76.5c0 -30.667 -2.33301 -55.834 -7 -75.501s-12.667 -35.334 -24 -47.001
s-27 -19.667 -47 -24s-45.333 -6.5 -76 -6.5c-30 0 -54.833 2.16699 -74.5 6.5s-35.334 12.333 -47.001 24s-19.667 27.334 -24 47.001s-6.5 44.834 -6.5 75.501z" />
    <glyph glyph-name="cedilla" unicode="&#xb8;" horiz-adv-x="612" 
d="M406 0l-26.9951 -92c24 2 46.333 0.166992 67 -5.5s38.667 -14.834 54 -27.501s27.5 -29 36.5 -49s13.5 -43.333 13.5 -70c0 -7.33301 -0.5 -15 -1.5 -23s-2.16699 -16.667 -3.5 -26c-7.33301 -35.333 -17.833 -65.166 -31.5 -89.499s-31.834 -44.166 -54.501 -59.499
s-50.334 -26.333 -83.001 -33s-71.334 -10 -116.001 -10c-24.667 0 -48.834 1.83301 -72.501 5.5s-44.834 8.16699 -63.501 13.5c-22 6 -43 12.667 -63 20l35 133c10.667 -2.66699 23.667 -5.33398 39 -8.00098c12.667 -2 28.167 -3.66699 46.5 -5s39.166 -2 62.499 -2
c34 0 59.833 4 77.5 12s29.167 24.667 34.5 50c6 47.333 -27.333 71 -100 71c-11.333 0 -23.166 -0.5 -35.499 -1.5s-24.166 -2.16699 -35.499 -3.5c-12.667 -2 -25.334 -3.66699 -38.001 -5l54 205h205z" />
    <glyph glyph-name="onesuperior" unicode="&#xb9;" horiz-adv-x="574" 
d="M259 1386h-194l41 168h340v-882h-187v714z" />
    <glyph glyph-name="ordmasculine" unicode="&#xba;" horiz-adv-x="835" 
d="M419 659c-57.333 0 -108.333 6.16699 -153 18.5s-82.334 33.166 -113.001 62.499s-53.834 68.333 -69.501 117s-23.5 109.667 -23.5 183s7.83301 134.5 23.5 183.5s38.834 88.333 69.501 118s68.334 50.667 113.001 63s95.667 18.5 153 18.5
s108.166 -6.16699 152.499 -18.5s81.5 -33.333 111.5 -63s52.833 -69 68.5 -118s23.5 -110.167 23.5 -183.5s-7.83301 -134.333 -23.5 -183s-38.5 -87.667 -68.5 -117s-67.167 -50.166 -111.5 -62.499s-95.166 -18.5 -152.499 -18.5zM419 815
c30.667 0 56.834 3.66699 78.501 11s39.167 19.666 52.5 36.999s23.166 40.666 29.499 69.999s9.5 65.666 9.5 108.999c0 42.667 -3.16699 78.667 -9.5 108s-16.166 52.833 -29.499 70.5s-30.833 30.334 -52.5 38.001s-47.834 11.5 -78.501 11.5
s-56.834 -3.83301 -78.501 -11.5s-39.167 -20.334 -52.5 -38.001s-23.166 -41.167 -29.499 -70.5s-9.5 -65.333 -9.5 -108c0 -43.333 3.16699 -79.666 9.5 -108.999s16.166 -52.666 29.499 -69.999s30.833 -29.666 52.5 -36.999s47.834 -11 78.501 -11z" />
    <glyph glyph-name="guillemotright" unicode="&#xbb;" horiz-adv-x="1197" 
d="M542.007 688l-456.972 316v-273l272.983 -174v-25l-272.983 -174v-272l456.972 315v287zM1120.01 688l-456.972 316v-273l272.983 -174v-25l-272.983 -174v-272l456.972 315v287z" />
    <glyph glyph-name="onequarter" unicode="&#xbc;" horiz-adv-x="1499" 
d="M946 1554h186l-704 -1554h-187zM787 279l295 604h293v-571h114v-156h-114v-156h-187v156h-401v123zM1188 312v429h-6l-194 -429h200zM194 1386h-194l41 168h340v-882h-187v714z" />
    <glyph glyph-name="onehalf" unicode="&#xbd;" horiz-adv-x="1559" 
d="M961 1554h186l-705 -1554h-186zM962 119c66 58 123.5 110.5 172.5 157.5s89.667 90 122 129s56.666 74.667 72.999 107s24.5 62.166 24.5 89.499c0 88.667 -56.667 133 -170 133c-23.333 0 -46.5 -0.833008 -69.5 -2.5l-62.5 -4.5c-22 -2.66699 -43 -5 -63 -7v131
c20 7.33301 43.333 14.333 70 21c23.333 5.33301 51.5 10.333 84.5 15s71.5 7 115.5 7c42.667 0 81.667 -5.5 117 -16.5s65.333 -27.333 90 -49s43.834 -48.5 57.501 -80.5s20.5 -69.333 20.5 -112c0 -48 -9.16699 -93.833 -27.5 -137.5s-42 -85 -71 -124
s-61.667 -75.667 -98 -110s-72.5 -66.166 -108.5 -95.499v-2h309v-168h-586v119zM186 1386h-194l41 168h340v-882h-187v714z" />
    <glyph glyph-name="threequarters" unicode="&#xbe;" horiz-adv-x="1632" 
d="M1102 1554h187l-705 -1554h-186zM920 279l295 604h293v-571h114v-156h-114v-156h-187v156h-401v123zM1321 312v429h-6l-194 -429h200zM40 829c20.667 -2 42.001 -3.66309 64.001 -4.99609c18.667 -1.33301 39.167 -2.5 61.5 -3.5s43.5 -1.5 63.5 -1.5
c38.667 0 70.167 2.33301 94.5 7s43.5 11.667 57.5 21s23.5 21.333 28.5 36s7.5 31.667 7.5 51c0 21.333 -3.5 39 -10.5 53s-19.333 25.333 -37 34s-41.334 15 -71.001 19s-67.167 7 -112.5 9v141c42 0.666992 76.833 3.16699 104.5 7.5s49.834 11.166 66.501 20.499
s28.5 21 35.5 35s10.5 30.667 10.5 50c0 40 -13 68.333 -39 85s-65 25 -117 25c-25.333 0 -50.166 -0.833008 -74.499 -2.5l-65.5 -4.5c-22.667 -2.66699 -44.334 -5 -65.001 -7v125c22 7.33301 46 14.333 72 21c22 5.33301 47.5 10.333 76.5 15s60.167 7 93.5 7
c44 0 84.167 -4 120.5 -12s67.666 -21.667 93.999 -41s46.666 -45 60.999 -77s21.5 -72 21.5 -120c0 -30 -3.33301 -55.833 -10 -77.5s-15.167 -39.834 -25.5 -54.501s-21.833 -26.334 -34.5 -35.001s-25 -14.334 -37 -17.001v-5c14 -5.33301 28.667 -12 44 -20
s29.5 -19.5 42.5 -34.5s23.667 -34.5 32 -58.5s12.5 -54.333 12.5 -91c0 -50.667 -7.33301 -93 -22 -127s-35.5 -61.167 -62.5 -81.5s-59.667 -34.833 -98 -43.5s-81.166 -13 -128.499 -13c-36 0 -69.333 1.83301 -100 5.5s-57.667 7.83398 -81 12.501
c-26.667 5.33301 -51 11.666 -73 18.999v133z" />
    <glyph glyph-name="questiondown" unicode="&#xbf;" horiz-adv-x="1031" 
d="M465 1145c-30 0 -54.833 2 -74.5 6s-35.334 11.667 -47.001 23s-19.667 26.833 -24 46.5s-6.5 45.167 -6.5 76.5c0 30.667 2.16699 55.834 6.5 75.501s12.333 35.334 24 47.001s27.334 19.667 47.001 24s44.5 6.5 74.5 6.5c30.667 0 56 -2.16699 76 -6.5
s35.667 -12.333 47 -24s19.333 -27.334 24 -47.001s7 -44.834 7 -75.501c0 -31.333 -2.33301 -56.833 -7 -76.5s-12.667 -35.167 -24 -46.5s-27 -19 -47 -23s-45.333 -6 -76 -6zM117 228c31.333 -6 62.999 -11 94.999 -15c28 -3.33301 58 -6.5 90 -9.5s63 -4.5 93 -4.5
c48 0 90 3 126 9s66.333 17.167 91 33.5s43.167 38.833 55.5 67.5s18.5 65.667 18.5 111c0 46.667 -7 85 -21 115s-35 54.167 -63 72.5s-63.333 31.833 -106 40.5s-92.667 15.334 -150 20.001v346h238v-178c42.667 -8.66699 84.667 -21.667 126 -39
s78.333 -41.833 111 -73.5s59 -72.334 79 -122.001s30 -111.5 30 -185.5c0 -86 -12 -156.833 -36 -212.5s-56 -99.5 -96 -131.5s-85.667 -54.333 -137 -67s-104.333 -19 -159 -19c-57.333 0 -109.666 3.16699 -156.999 9.5s-88 13.333 -122 21s-60.333 14.667 -79 21
s-27.667 9.5 -27 9.5v181z" />
    <glyph glyph-name="Agrave" unicode="&#xc0;" 
d="M477 1427h318l467 -1427h-265l-120 387h-486l-115 -387h-262zM811 602l-176 604h-4l-176 -604h356zM772 1516l-158 78.999l-66.5 34l-66.5 35.5l-60.5 34c-19 11 -35.5 21.167 -49.5 30.5c-44.667 30 -67 59.667 -67 89c0 12.667 3.33301 25.667 10 39s16.667 28 30 44
s25.5 29.333 36.5 40s20.833 19.334 29.5 26.001c10 7.33301 19 13.333 27 18l423 -353z" />
    <glyph glyph-name="Aacute" unicode="&#xc1;" 
d="M477 1427h318l467 -1427h-265l-120 387h-486l-115 -387h-262zM811 602l-176 604h-4l-176 -604h356zM411 1634l424 352.002c8 -4 17 -9.66699 27 -17c8.66699 -6.66699 18.5 -15.334 29.5 -26.001s23.167 -24.334 36.5 -41.001c13.333 -16 23.333 -30.667 30 -44
s10 -26.333 10 -39c0 -29.333 -22.333 -59 -67 -89c-14 -9.33301 -30.5 -19.5 -49.5 -30.5l-61 -34l-66.5 -35.5l-66 -34l-158 -79z" />
    <glyph glyph-name="Acircumflex" unicode="&#xc2;" 
d="M477 1427h318l467 -1427h-265l-120 387h-486l-115 -387h-262zM811 602l-176 604h-4l-176 -604h356zM424 1478l-116.994 57l101 252c11.333 28 24.166 50.833 38.499 68.5s30.666 31.334 48.999 41.001s39.166 16.334 62.499 20.001s49.666 5.5 78.999 5.5
s55.666 -1.83301 78.999 -5.5s44.166 -10.334 62.499 -20.001s34.833 -23.334 49.5 -41.001s27.667 -40.5 39 -68.5l100 -252l-117 -57l-213 309z" />
    <glyph glyph-name="Atilde" unicode="&#xc3;" 
d="M477 1427h318l467 -1427h-265l-120 387h-486l-115 -387h-262zM811 602l-176 604h-4l-176 -604h356zM229 1620c2.66699 22 9.82715 45.333 21.4941 70s27.834 47.5 48.501 68.5s45.334 38.667 74.001 53s61.334 22.166 98.001 23.499
c24.667 0.666992 47.667 -1.83301 69 -7.5s41.666 -12.667 60.999 -21s37.833 -17.666 55.5 -27.999s34.834 -19.666 51.501 -27.999s33.334 -15.333 50.001 -21s33.667 -8.16699 51 -7.5c21.333 1.33301 39.833 6.66602 55.5 15.999s28.834 19.666 39.501 30.999
c12 12.667 22.667 27.667 32 45l109 -69c-2.66699 -22 -10.167 -45.333 -22.5 -70s-28.666 -47.5 -48.999 -68.5s-44.833 -38.667 -73.5 -53s-61 -22.166 -97 -23.499s-69.667 4 -101 16s-60.833 25.167 -88.5 39.5l-78.5 39.5c-24.667 12 -48 17.667 -70 17
c-22 -1.33301 -41 -6.83301 -57 -16.5s-29.333 -20.167 -40 -31.5c-12 -13.333 -22 -28 -30 -44z" />
    <glyph glyph-name="Adieresis" unicode="&#xc4;" 
d="M477 1427h318l467 -1427h-265l-120 387h-486l-115 -387h-262zM811 602l-176 604h-4l-176 -604h356zM725 1691c0 31.333 2.16699 56.833 6.5 76.5s12.333 35.167 24 46.5s27.334 19 47.001 23s44.5 6 74.5 6c30.667 0 56 -2 76 -6s35.667 -11.667 47 -23
s19.333 -26.833 24 -46.5s7 -45.167 7 -76.5c0 -30.667 -2.33301 -55.834 -7 -75.501s-12.667 -35.334 -24 -47.001s-27 -19.667 -47 -24s-45.333 -6.5 -76 -6.5c-30 0 -54.833 2.16699 -74.5 6.5s-35.334 12.333 -47.001 24s-19.667 27.334 -24 47.001
s-6.5 44.834 -6.5 75.501zM260 1691c0 31.333 2.16699 56.833 6.5 76.5s12.333 35.167 24 46.5s27.334 19 47.001 23s44.5 6 74.5 6c30.667 0 56 -2 76 -6s35.667 -11.667 47 -23s19.333 -26.833 24 -46.5s7 -45.167 7 -76.5c0 -30.667 -2.33301 -55.834 -7 -75.501
s-12.667 -35.334 -24 -47.001s-27 -19.667 -47 -24s-45.333 -6.5 -76 -6.5c-30 0 -54.833 2.16699 -74.5 6.5s-35.334 12.333 -47.001 24s-19.667 27.334 -24 47.001s-6.5 44.834 -6.5 75.501z" />
    <glyph glyph-name="Aring" unicode="&#xc5;" 
d="M477 1427h318l467 -1427h-265l-120 387h-486l-115 -387h-262zM811 602l-176 604h-4l-176 -604h356zM637 1476c-36 0 -69.5029 3.33301 -100.503 10s-57.667 19 -80 37s-39.833 42.667 -52.5 74s-19 71.666 -19 120.999c0 50 6.5 90.833 19.5 122.5s30.833 56.5 53.5 74.5
s49.334 30.333 80.001 37s63.667 10 99 10s68.333 -3.33301 99 -10s57.334 -19 80.001 -37s40.5 -42.833 53.5 -74.5s19.5 -72.5 19.5 -122.5c0 -49.333 -6.16699 -89.666 -18.5 -120.999s-29.666 -56 -51.999 -74s-49 -30.333 -80 -37s-64.833 -10 -101.5 -10z
M636.997 1607c17.333 0 32 1.66699 44 5s21.667 9.33301 29 18s12.5 20.167 15.5 34.5s4.5 32.166 4.5 53.499c0 22 -1.5 40.167 -4.5 54.5s-8.16699 25.666 -15.5 33.999s-17 14.166 -29 17.499s-26.667 5 -44 5c-16.667 0 -30.834 -1.66699 -42.501 -5
s-21 -9.16602 -28 -17.499s-12 -19.666 -15 -33.999s-4.5 -32.5 -4.5 -54.5c0 -21.333 1.5 -39.166 4.5 -53.499s8 -25.833 15 -34.5s16.333 -14.667 28 -18s25.834 -5 42.501 -5z" />
    <glyph glyph-name="AE" unicode="&#xc6;" horiz-adv-x="1713" 
d="M473 1427h1094v-223h-705l123 -375h598v-219h-526l127 -387h459v-223h-650l-120 387h-486l-115 -387h-262zM807 602l-172 602h-6l-178 -602h356z" />
    <glyph glyph-name="Ccedilla" unicode="&#xc7;" horiz-adv-x="1179" 
d="M672 -25c-46 0 -91.832 4.33496 -137.499 13.002s-89 23.667 -130 45s-79.167 50.166 -114.5 86.499s-66 82.333 -92 138s-46.333 121.834 -61 198.501s-22 166.334 -22 269.001c0 98.667 8.33301 185.167 25 259.5s39 138.5 67 192.5s60.667 98.5 98 133.5
s76.666 62.833 117.999 83.5s83.333 35.167 126 43.5s83.667 12.5 123 12.5c66.667 0 124.667 -3.33301 174 -10s90.666 -14 123.999 -22c38.667 -9.33301 71.667 -20 99 -32v-172c-27.333 2 -56.666 4 -87.999 6l-91.5 4.5c-34.333 1.66699 -70.166 2.5 -107.499 2.5
c-34 0 -67.833 -1.33301 -101.5 -4s-66 -9.5 -97 -20.5s-59.833 -27.167 -86.5 -48.5s-49.834 -50.5 -69.501 -87.5s-35 -83.167 -46 -138.5s-16.5 -122.333 -16.5 -201c0 -82.667 5.66699 -153.334 17 -212.001s27 -107.667 47 -147s43.333 -70.333 70 -93
s55.667 -39.834 87 -51.501s64 -19 98 -22s68 -4.5 102 -4.5c44 0 84 0.666992 120 2s66.667 2.66602 92 3.99902c30 2 57 4 81 6v-172c-29.333 -12 -64 -22.333 -104 -31c-34.667 -8 -77.167 -15.167 -127.5 -21.5s-108.833 -9.5 -175.5 -9.5zM786.001 0.00195312
l-26.9951 -92c24 2 46.333 0.166992 67 -5.5s38.667 -14.834 54 -27.501s27.5 -29 36.5 -49s13.5 -43.333 13.5 -70c0 -7.33301 -0.5 -15 -1.5 -23s-2.16699 -16.667 -3.5 -26c-7.33301 -35.333 -17.833 -65.166 -31.5 -89.499s-31.834 -44.166 -54.501 -59.499
s-50.334 -26.333 -83.001 -33s-71.334 -10 -116.001 -10c-24.667 0 -48.834 1.83301 -72.501 5.5s-44.834 8.16699 -63.501 13.5c-22 6 -43 12.667 -63 20l35 133c10.667 -2.66699 23.667 -5.33398 39 -8.00098c12.667 -2 28.167 -3.66699 46.5 -5s39.166 -2 62.499 -2
c34 0 59.833 4 77.5 12s29.167 24.667 34.5 50c6 47.333 -27.333 71 -100 71c-11.333 0 -23.166 -0.5 -35.499 -1.5s-24.166 -2.16699 -35.499 -3.5c-12.667 -2 -25.334 -3.66699 -38.001 -5l54 205h205z" />
    <glyph glyph-name="Egrave" unicode="&#xc8;" horiz-adv-x="1149" 
d="M182 1427h858v-223h-618v-375h518v-219h-518v-387h635v-223h-875v1427zM774 1516l-158 78.999l-66.5 34l-66.5 35.5l-60.5 34c-19 11 -35.5 21.167 -49.5 30.5c-44.667 30 -67 59.667 -67 89c0 12.667 3.33301 25.667 10 39s16.667 28 30 44s25.5 29.333 36.5 40
s20.833 19.334 29.5 26.001c10 7.33301 19 13.333 27 18l423 -353z" />
    <glyph glyph-name="Eacute" unicode="&#xc9;" horiz-adv-x="1149" 
d="M182 1427h858v-223h-618v-375h518v-219h-518v-387h635v-223h-875v1427zM391 1613l424 352.002c8 -4 17 -9.66699 27 -17c8.66699 -6.66699 18.5 -15.334 29.5 -26.001s23.167 -24.334 36.5 -41.001c13.333 -16 23.333 -30.667 30 -44s10 -26.333 10 -39
c0 -29.333 -22.333 -59 -67 -89c-14 -9.33301 -30.5 -19.5 -49.5 -30.5l-61 -34l-66.5 -35.5l-66 -34l-158 -79z" />
    <glyph glyph-name="Ecircumflex" unicode="&#xca;" horiz-adv-x="1149" 
d="M182 1427h858v-223h-618v-375h518v-219h-518v-387h635v-223h-875v1427zM411 1518l-116.994 57l101 252c11.333 28 24.166 50.833 38.499 68.5s30.666 31.334 48.999 41.001s39.166 16.334 62.499 20.001s49.666 5.5 78.999 5.5s55.666 -1.83301 78.999 -5.5
s44.166 -10.334 62.499 -20.001s34.833 -23.334 49.5 -41.001s27.667 -40.5 39 -68.5l100 -252l-117 -57l-213 309z" />
    <glyph glyph-name="Edieresis" unicode="&#xcb;" horiz-adv-x="1149" 
d="M182 1427h858v-223h-618v-375h518v-219h-518v-387h635v-223h-875v1427zM702 1691c0 31.333 2.16699 56.833 6.5 76.5s12.333 35.167 24 46.5s27.334 19 47.001 23s44.5 6 74.5 6c30.667 0 56 -2 76 -6s35.667 -11.667 47 -23s19.333 -26.833 24 -46.5s7 -45.167 7 -76.5
c0 -30.667 -2.33301 -55.834 -7 -75.501s-12.667 -35.334 -24 -47.001s-27 -19.667 -47 -24s-45.333 -6.5 -76 -6.5c-30 0 -54.833 2.16699 -74.5 6.5s-35.334 12.333 -47.001 24s-19.667 27.334 -24 47.001s-6.5 44.834 -6.5 75.501zM237 1691
c0 31.333 2.16699 56.833 6.5 76.5s12.333 35.167 24 46.5s27.334 19 47.001 23s44.5 6 74.5 6c30.667 0 56 -2 76 -6s35.667 -11.667 47 -23s19.333 -26.833 24 -46.5s7 -45.167 7 -76.5c0 -30.667 -2.33301 -55.834 -7 -75.501s-12.667 -35.334 -24 -47.001
s-27 -19.667 -47 -24s-45.333 -6.5 -76 -6.5c-30 0 -54.833 2.16699 -74.5 6.5s-35.334 12.333 -47.001 24s-19.667 27.334 -24 47.001s-6.5 44.834 -6.5 75.501z" />
    <glyph glyph-name="Igrave" unicode="&#xcc;" horiz-adv-x="612" 
d="M192 1427h240v-1427h-240v1427zM455 1497l-158 78.999l-66.5 34l-66.5 35.5l-60.5 34c-19 11 -35.5 21.167 -49.5 30.5c-44.667 30 -67 59.667 -67 89c0 12.667 3.33301 25.667 10 39s16.667 28 30 44s25.5 29.333 36.5 40s20.833 19.334 29.5 26.001
c10 7.33301 19 13.333 27 18l423 -353z" />
    <glyph glyph-name="Iacute" unicode="&#xcd;" horiz-adv-x="613" 
d="M197 1427h240v-1427h-240v1427zM70 1634l424 352.002c8 -4 17 -9.66699 27 -17c8.66699 -6.66699 18.5 -15.334 29.5 -26.001s23.167 -24.334 36.5 -41.001c13.333 -16 23.333 -30.667 30 -44s10 -26.333 10 -39c0 -29.333 -22.333 -59 -67 -89
c-14 -9.33301 -30.5 -19.5 -49.5 -30.5l-61 -34l-66.5 -35.5l-66 -34l-158 -79z" />
    <glyph glyph-name="Icircumflex" unicode="&#xce;" horiz-adv-x="610" 
d="M184 1427h240v-1427h-240v1427zM93 1499l-116.994 57l101 252c11.333 28 24.166 50.833 38.499 68.5s30.666 31.334 48.999 41.001s39.166 16.334 62.499 20.001s49.666 5.5 78.999 5.5s55.666 -1.83301 78.999 -5.5s44.166 -10.334 62.499 -20.001
s34.833 -23.334 49.5 -41.001s27.667 -40.5 39 -68.5l100 -252l-117 -57l-213 309z" />
    <glyph glyph-name="Idieresis" unicode="&#xcf;" horiz-adv-x="611" 
d="M182 1427h240v-1427h-240v1427zM385 1691c0 31.333 2.16699 56.833 6.5 76.5s12.333 35.167 24 46.5s27.334 19 47.001 23s44.5 6 74.5 6c30.667 0 56 -2 76 -6s35.667 -11.667 47 -23s19.333 -26.833 24 -46.5s7 -45.167 7 -76.5c0 -30.667 -2.33301 -55.834 -7 -75.501
s-12.667 -35.334 -24 -47.001s-27 -19.667 -47 -24s-45.333 -6.5 -76 -6.5c-30 0 -54.833 2.16699 -74.5 6.5s-35.334 12.333 -47.001 24s-19.667 27.334 -24 47.001s-6.5 44.834 -6.5 75.501zM-79 1691c0 31.333 2.16699 56.833 6.5 76.5s12.333 35.167 24 46.5
s27.334 19 47.001 23s44.5 6 74.5 6c30.667 0 56 -2 76 -6s35.667 -11.667 47 -23s19.333 -26.833 24 -46.5s7 -45.167 7 -76.5c0 -30.667 -2.33301 -55.834 -7 -75.501s-12.667 -35.334 -24 -47.001s-27 -19.667 -47 -24s-45.333 -6.5 -76 -6.5
c-30 0 -54.833 2.16699 -74.5 6.5s-35.334 12.333 -47.001 24s-19.667 27.334 -24 47.001s-6.5 44.834 -6.5 75.501z" />
    <glyph glyph-name="Eth" unicode="&#xd0;" horiz-adv-x="1419" 
d="M231 605l-170.995 0.000976562v218h171v604h512c52.667 0 103.167 -3.66699 151.5 -11s93.166 -20.333 134.499 -39s79 -44.667 113 -78s63 -76 87 -128s42.5 -114.667 55.5 -188s19.5 -159.333 19.5 -258c0 -102 -6 -190.833 -18 -266.5s-29.333 -140.334 -52 -194.001
s-50.334 -97.667 -83.001 -132s-69.834 -61.333 -111.501 -81s-87.334 -33.167 -137.001 -40.5s-102.834 -11 -159.501 -11h-512v605zM678.005 223.001c34 0 66.999 0.833008 98.999 2.5s61.833 7.5 89.5 17.5s53 25.167 76 45.5s42.667 49.166 59 86.499s29 84.5 38 141.5
s13.5 127.167 13.5 210.5c0 77.333 -4.33301 142.833 -13 196.5s-21 98.167 -37 133.5s-35.167 62.833 -57.5 82.5s-47.5 34.334 -75.5 44.001s-58.167 15.5 -90.5 17.5s-66.166 3 -101.499 3h-207v-381h324v-218h-324v-382h207z" />
    <glyph glyph-name="Ntilde" unicode="&#xd1;" horiz-adv-x="1521" 
d="M182 1427h398l520 -1204h5l-2 73c-0.666992 21.333 -1 44.333 -1 69v71v991h237v-1427h-389l-440 1004l-34 78c-10.667 24 -19.667 45 -27 63l-25 59h-4v-1204h-238v1427zM372 1651c2.66699 22 9.82715 45.333 21.4941 70s27.834 47.5 48.501 68.5
s45.334 38.667 74.001 53s61.334 22.166 98.001 23.499c24.667 0.666992 47.667 -1.83301 69 -7.5s41.666 -12.667 60.999 -21s37.833 -17.666 55.5 -27.999s34.834 -19.666 51.501 -27.999s33.334 -15.333 50.001 -21s33.667 -8.16699 51 -7.5
c21.333 1.33301 39.833 6.66602 55.5 15.999s28.834 19.666 39.501 30.999c12 12.667 22.667 27.667 32 45l109 -69c-2.66699 -22 -10.167 -45.333 -22.5 -70s-28.666 -47.5 -48.999 -68.5s-44.833 -38.667 -73.5 -53s-61 -22.166 -97 -23.499s-69.667 4 -101 16
s-60.833 25.167 -88.5 39.5l-78.5 39.5c-24.667 12 -48 17.667 -70 17c-22 -1.33301 -41 -6.83301 -57 -16.5s-29.333 -20.167 -40 -31.5c-12 -13.333 -22 -28 -30 -44z" />
    <glyph glyph-name="Ograve" unicode="&#xd2;" horiz-adv-x="1401" 
d="M702 -31c-61.333 0 -118.335 4.32812 -171.002 12.9951s-100.667 23.834 -144 45.501s-81.833 50.5 -115.5 86.5s-62.167 81.5 -85.5 136.5s-41 120.167 -53 195.5s-18 163 -18 263c0 150 13.333 273.333 40 370s65.334 172.834 116.001 228.501
s112.334 94.334 185.001 116.001s154.667 32.5 246 32.5c60.667 0 117.334 -4.66699 170.001 -14s100.667 -25 144 -47s81.666 -51.5 114.999 -88.5s61.5 -83.167 84.5 -138.5s40.5 -120.833 52.5 -196.5s18 -163.167 18 -262.5s-6 -186.666 -18 -261.999
s-29.5 -140.5 -52.5 -195.5s-51.167 -100.667 -84.5 -137s-71.666 -65.166 -114.999 -86.499s-91.333 -36.5 -144 -45.5s-109.334 -13.5 -170.001 -13.5zM701.998 189.995c65.333 0 119.5 7.66699 162.5 23s77.167 42.5 102.5 81.5s43.166 92 53.499 159
s15.5 152.167 15.5 255.5c0 104 -5.16699 189.667 -15.5 257s-28.166 120.833 -53.499 160.5s-59.5 67.334 -102.5 83.001s-97.167 23.5 -162.5 23.5s-119.666 -7.83301 -162.999 -23.5s-77.666 -43.334 -102.999 -83.001s-43.166 -93.167 -53.499 -160.5
s-15.5 -153 -15.5 -257c0 -103.333 5.16699 -188.5 15.5 -255.5s28.166 -120 53.499 -159s59.666 -66.167 102.999 -81.5s97.666 -23 162.999 -23zM898.998 1516l-158 78.999l-66.5 34l-66.5 35.5l-60.5 34c-19 11 -35.5 21.167 -49.5 30.5c-44.667 30 -67 59.667 -67 89
c0 12.667 3.33301 25.667 10 39s16.667 28 30 44s25.5 29.333 36.5 40s20.833 19.334 29.5 26.001c10 7.33301 19 13.333 27 18l423 -353z" />
    <glyph glyph-name="Oacute" unicode="&#xd3;" horiz-adv-x="1401" 
d="M702 -31c-61.333 0 -118.335 4.32812 -171.002 12.9951s-100.667 23.834 -144 45.501s-81.833 50.5 -115.5 86.5s-62.167 81.5 -85.5 136.5s-41 120.167 -53 195.5s-18 163 -18 263c0 150 13.333 273.333 40 370s65.334 172.834 116.001 228.501
s112.334 94.334 185.001 116.001s154.667 32.5 246 32.5c60.667 0 117.334 -4.66699 170.001 -14s100.667 -25 144 -47s81.666 -51.5 114.999 -88.5s61.5 -83.167 84.5 -138.5s40.5 -120.833 52.5 -196.5s18 -163.167 18 -262.5s-6 -186.666 -18 -261.999
s-29.5 -140.5 -52.5 -195.5s-51.167 -100.667 -84.5 -137s-71.666 -65.166 -114.999 -86.499s-91.333 -36.5 -144 -45.5s-109.334 -13.5 -170.001 -13.5zM701.998 189.995c65.333 0 119.5 7.66699 162.5 23s77.167 42.5 102.5 81.5s43.166 92 53.499 159
s15.5 152.167 15.5 255.5c0 104 -5.16699 189.667 -15.5 257s-28.166 120.833 -53.499 160.5s-59.5 67.334 -102.5 83.001s-97.167 23.5 -162.5 23.5s-119.666 -7.83301 -162.999 -23.5s-77.666 -43.334 -102.999 -83.001s-43.166 -93.167 -53.499 -160.5
s-15.5 -153 -15.5 -257c0 -103.333 5.16699 -188.5 15.5 -255.5s28.166 -120 53.499 -159s59.666 -66.167 102.999 -81.5s97.666 -23 162.999 -23zM416.998 1653l424 352.002c8 -4 17 -9.66699 27 -17c8.66699 -6.66699 18.5 -15.334 29.5 -26.001
s23.167 -24.334 36.5 -41.001c13.333 -16 23.333 -30.667 30 -44s10 -26.333 10 -39c0 -29.333 -22.333 -59 -67 -89c-14 -9.33301 -30.5 -19.5 -49.5 -30.5l-61 -34l-66.5 -35.5l-66 -34l-158 -79z" />
    <glyph glyph-name="Ocircumflex" unicode="&#xd4;" horiz-adv-x="1401" 
d="M702 -31c-61.333 0 -118.335 4.32812 -171.002 12.9951s-100.667 23.834 -144 45.501s-81.833 50.5 -115.5 86.5s-62.167 81.5 -85.5 136.5s-41 120.167 -53 195.5s-18 163 -18 263c0 150 13.333 273.333 40 370s65.334 172.834 116.001 228.501
s112.334 94.334 185.001 116.001s154.667 32.5 246 32.5c60.667 0 117.334 -4.66699 170.001 -14s100.667 -25 144 -47s81.666 -51.5 114.999 -88.5s61.5 -83.167 84.5 -138.5s40.5 -120.833 52.5 -196.5s18 -163.167 18 -262.5s-6 -186.666 -18 -261.999
s-29.5 -140.5 -52.5 -195.5s-51.167 -100.667 -84.5 -137s-71.666 -65.166 -114.999 -86.499s-91.333 -36.5 -144 -45.5s-109.334 -13.5 -170.001 -13.5zM701.998 189.995c65.333 0 119.5 7.66699 162.5 23s77.167 42.5 102.5 81.5s43.166 92 53.499 159
s15.5 152.167 15.5 255.5c0 104 -5.16699 189.667 -15.5 257s-28.166 120.833 -53.499 160.5s-59.5 67.334 -102.5 83.001s-97.167 23.5 -162.5 23.5s-119.666 -7.83301 -162.999 -23.5s-77.666 -43.334 -102.999 -83.001s-43.166 -93.167 -53.499 -160.5
s-15.5 -153 -15.5 -257c0 -103.333 5.16699 -188.5 15.5 -255.5s28.166 -120 53.499 -159s59.666 -66.167 102.999 -81.5s97.666 -23 162.999 -23zM486.998 1518l-116.994 57l101 252c11.333 28 24.166 50.833 38.499 68.5s30.666 31.334 48.999 41.001
s39.166 16.334 62.499 20.001s49.666 5.5 78.999 5.5s55.666 -1.83301 78.999 -5.5s44.166 -10.334 62.499 -20.001s34.833 -23.334 49.5 -41.001s27.667 -40.5 39 -68.5l100 -252l-117 -57l-213 309z" />
    <glyph glyph-name="Otilde" unicode="&#xd5;" horiz-adv-x="1401" 
d="M702 -31c-61.333 0 -118.335 4.32812 -171.002 12.9951s-100.667 23.834 -144 45.501s-81.833 50.5 -115.5 86.5s-62.167 81.5 -85.5 136.5s-41 120.167 -53 195.5s-18 163 -18 263c0 150 13.333 273.333 40 370s65.334 172.834 116.001 228.501
s112.334 94.334 185.001 116.001s154.667 32.5 246 32.5c60.667 0 117.334 -4.66699 170.001 -14s100.667 -25 144 -47s81.666 -51.5 114.999 -88.5s61.5 -83.167 84.5 -138.5s40.5 -120.833 52.5 -196.5s18 -163.167 18 -262.5s-6 -186.666 -18 -261.999
s-29.5 -140.5 -52.5 -195.5s-51.167 -100.667 -84.5 -137s-71.666 -65.166 -114.999 -86.499s-91.333 -36.5 -144 -45.5s-109.334 -13.5 -170.001 -13.5zM701.998 189.995c65.333 0 119.5 7.66699 162.5 23s77.167 42.5 102.5 81.5s43.166 92 53.499 159
s15.5 152.167 15.5 255.5c0 104 -5.16699 189.667 -15.5 257s-28.166 120.833 -53.499 160.5s-59.5 67.334 -102.5 83.001s-97.167 23.5 -162.5 23.5s-119.666 -7.83301 -162.999 -23.5s-77.666 -43.334 -102.999 -83.001s-43.166 -93.167 -53.499 -160.5
s-15.5 -153 -15.5 -257c0 -103.333 5.16699 -188.5 15.5 -255.5s28.166 -120 53.499 -159s59.666 -66.167 102.999 -81.5s97.666 -23 162.999 -23zM291.998 1620c2.66699 22 9.82715 45.333 21.4941 70s27.834 47.5 48.501 68.5s45.334 38.667 74.001 53
s61.334 22.166 98.001 23.499c24.667 0.666992 47.667 -1.83301 69 -7.5s41.666 -12.667 60.999 -21s37.833 -17.666 55.5 -27.999s34.834 -19.666 51.501 -27.999s33.334 -15.333 50.001 -21s33.667 -8.16699 51 -7.5c21.333 1.33301 39.833 6.66602 55.5 15.999
s28.834 19.666 39.501 30.999c12 12.667 22.667 27.667 32 45l109 -69c-2.66699 -22 -10.167 -45.333 -22.5 -70s-28.666 -47.5 -48.999 -68.5s-44.833 -38.667 -73.5 -53s-61 -22.166 -97 -23.499s-69.667 4 -101 16s-60.833 25.167 -88.5 39.5l-78.5 39.5
c-24.667 12 -48 17.667 -70 17c-22 -1.33301 -41 -6.83301 -57 -16.5s-29.333 -20.167 -40 -31.5c-12 -13.333 -22 -28 -30 -44z" />
    <glyph glyph-name="Odieresis" unicode="&#xd6;" horiz-adv-x="1401" 
d="M702 -31c-61.333 0 -118.335 4.32812 -171.002 12.9951s-100.667 23.834 -144 45.501s-81.833 50.5 -115.5 86.5s-62.167 81.5 -85.5 136.5s-41 120.167 -53 195.5s-18 163 -18 263c0 150 13.333 273.333 40 370s65.334 172.834 116.001 228.501
s112.334 94.334 185.001 116.001s154.667 32.5 246 32.5c60.667 0 117.334 -4.66699 170.001 -14s100.667 -25 144 -47s81.666 -51.5 114.999 -88.5s61.5 -83.167 84.5 -138.5s40.5 -120.833 52.5 -196.5s18 -163.167 18 -262.5s-6 -186.666 -18 -261.999
s-29.5 -140.5 -52.5 -195.5s-51.167 -100.667 -84.5 -137s-71.666 -65.166 -114.999 -86.499s-91.333 -36.5 -144 -45.5s-109.334 -13.5 -170.001 -13.5zM701.998 189.995c65.333 0 119.5 7.66699 162.5 23s77.167 42.5 102.5 81.5s43.166 92 53.499 159
s15.5 152.167 15.5 255.5c0 104 -5.16699 189.667 -15.5 257s-28.166 120.833 -53.499 160.5s-59.5 67.334 -102.5 83.001s-97.167 23.5 -162.5 23.5s-119.666 -7.83301 -162.999 -23.5s-77.666 -43.334 -102.999 -83.001s-43.166 -93.167 -53.499 -160.5
s-15.5 -153 -15.5 -257c0 -103.333 5.16699 -188.5 15.5 -255.5s28.166 -120 53.499 -159s59.666 -66.167 102.999 -81.5s97.666 -23 162.999 -23zM787.998 1691c0 31.333 2.16699 56.833 6.5 76.5s12.333 35.167 24 46.5s27.334 19 47.001 23s44.5 6 74.5 6
c30.667 0 56 -2 76 -6s35.667 -11.667 47 -23s19.333 -26.833 24 -46.5s7 -45.167 7 -76.5c0 -30.667 -2.33301 -55.834 -7 -75.501s-12.667 -35.334 -24 -47.001s-27 -19.667 -47 -24s-45.333 -6.5 -76 -6.5c-30 0 -54.833 2.16699 -74.5 6.5s-35.334 12.333 -47.001 24
s-19.667 27.334 -24 47.001s-6.5 44.834 -6.5 75.501zM322.998 1691c0 31.333 2.16699 56.833 6.5 76.5s12.333 35.167 24 46.5s27.334 19 47.001 23s44.5 6 74.5 6c30.667 0 56 -2 76 -6s35.667 -11.667 47 -23s19.333 -26.833 24 -46.5s7 -45.167 7 -76.5
c0 -30.667 -2.33301 -55.834 -7 -75.501s-12.667 -35.334 -24 -47.001s-27 -19.667 -47 -24s-45.333 -6.5 -76 -6.5c-30 0 -54.833 2.16699 -74.5 6.5s-35.334 12.333 -47.001 24s-19.667 27.334 -24 47.001s-6.5 44.834 -6.5 75.501z" />
    <glyph glyph-name="multiply" unicode="&#xd7;" horiz-adv-x="1004" 
d="M47 334l314 325l-316 328l146 143l313 -323l311 321l138 -139l-314 -323l320 -330l-146 -143l-317 325l-311 -321z" />
    <glyph glyph-name="Oslash" unicode="&#xd8;" horiz-adv-x="1451" 
d="M326 85c-30 26 -56.502 57.8301 -79.502 95.4971s-42.5 82 -58.5 133s-28 109.167 -36 174.5s-12 139 -12 221c0 150 13.333 273.333 40 370s65.334 172.834 116.001 228.501s112.334 94.334 185.001 116.001s154.667 32.5 246 32.5c38.667 0 75.5 -1.83301 110.5 -5.5
s68.5 -9.5 100.5 -17.5l74 162h219l-114 -251c31.333 -26.667 59 -59 83 -97s44.333 -82.833 61 -134.5s29.167 -110.834 37.5 -177.501s12.5 -142 12.5 -226c0 -99.333 -6 -186.666 -18 -261.999s-29.5 -140.5 -52.5 -195.5s-51.167 -100.667 -84.5 -137
s-71.666 -65.166 -114.999 -86.499s-91.333 -36.5 -144 -45.5s-109.334 -13.5 -170.001 -13.5c-41.333 0 -80.5 1.83301 -117.5 5.5s-72.167 10.167 -105.5 19.5l-75 -166h-220zM842.998 1223c-32.667 6.66699 -71.3359 10.001 -116.003 10.001
c-65.333 0 -119.666 -7.83301 -162.999 -23.5s-77.666 -43.334 -102.999 -83.001s-43.166 -93.167 -53.499 -160.5s-15.5 -153 -15.5 -257c0 -88 3.5 -162.333 10.5 -223s19.167 -111 36.5 -151zM598.996 201.998c18 -4.66699 37.668 -7.83203 59.001 -9.49902
s44.333 -2.5 69 -2.5c65.333 0 119.5 7.66699 162.5 23s77.167 42.5 102.5 81.5s43.166 92 53.499 159s15.5 152.167 15.5 255.5c0 93.333 -4.16699 171.666 -12.5 234.999s-22.5 115.333 -42.5 156z" />
    <glyph glyph-name="Ugrave" unicode="&#xd9;" horiz-adv-x="1405" 
d="M177 1427l238 -0.00195312v-954c0 -56.667 5 -103.334 15 -140.001s26.5 -65.5 49.5 -86.5s52.833 -35.667 89.5 -44s81.667 -12.5 135 -12.5c48 0 89.833 4.16699 125.5 12.5s65.5 23 89.5 44s41.833 49.833 53.5 86.5s17.5 83.334 17.5 140.001v954h238v-968
c0 -83.333 -9.5 -155.666 -28.5 -216.999s-49.5 -112.166 -91.5 -152.499s-96.167 -70.5 -162.5 -90.5s-146.833 -30 -241.5 -30s-175.334 9.83301 -242.001 29.5s-121.167 49.5 -163.5 89.5s-73.166 90.5 -92.499 151.5s-29 132.833 -29 215.5v972zM881 1516l-158 78.999
l-66.5 34l-66.5 35.5l-60.5 34c-19 11 -35.5 21.167 -49.5 30.5c-44.667 30 -67 59.667 -67 89c0 12.667 3.33301 25.667 10 39s16.667 28 30 44s25.5 29.333 36.5 40s20.833 19.334 29.5 26.001c10 7.33301 19 13.333 27 18l423 -353z" />
    <glyph glyph-name="Uacute" unicode="&#xda;" horiz-adv-x="1405" 
d="M177 1427l238 -0.00195312v-954c0 -56.667 5 -103.334 15 -140.001s26.5 -65.5 49.5 -86.5s52.833 -35.667 89.5 -44s81.667 -12.5 135 -12.5c48 0 89.833 4.16699 125.5 12.5s65.5 23 89.5 44s41.833 49.833 53.5 86.5s17.5 83.334 17.5 140.001v954h238v-968
c0 -83.333 -9.5 -155.666 -28.5 -216.999s-49.5 -112.166 -91.5 -152.499s-96.167 -70.5 -162.5 -90.5s-146.833 -30 -241.5 -30s-175.334 9.83301 -242.001 29.5s-121.167 49.5 -163.5 89.5s-73.166 90.5 -92.499 151.5s-29 132.833 -29 215.5v972zM476 1653l424 352.002
c8 -4 17 -9.66699 27 -17c8.66699 -6.66699 18.5 -15.334 29.5 -26.001s23.167 -24.334 36.5 -41.001c13.333 -16 23.333 -30.667 30 -44s10 -26.333 10 -39c0 -29.333 -22.333 -59 -67 -89c-14 -9.33301 -30.5 -19.5 -49.5 -30.5l-61 -34l-66.5 -35.5l-66 -34l-158 -79z
" />
    <glyph glyph-name="Ucircumflex" unicode="&#xdb;" horiz-adv-x="1405" 
d="M177 1427l238 -0.00195312v-954c0 -56.667 5 -103.334 15 -140.001s26.5 -65.5 49.5 -86.5s52.833 -35.667 89.5 -44s81.667 -12.5 135 -12.5c48 0 89.833 4.16699 125.5 12.5s65.5 23 89.5 44s41.833 49.833 53.5 86.5s17.5 83.334 17.5 140.001v954h238v-968
c0 -83.333 -9.5 -155.666 -28.5 -216.999s-49.5 -112.166 -91.5 -152.499s-96.167 -70.5 -162.5 -90.5s-146.833 -30 -241.5 -30s-175.334 9.83301 -242.001 29.5s-121.167 49.5 -163.5 89.5s-73.166 90.5 -92.499 151.5s-29 132.833 -29 215.5v972zM488 1499l-116.994 57
l101 252c11.333 28 24.166 50.833 38.499 68.5s30.666 31.334 48.999 41.001s39.166 16.334 62.499 20.001s49.666 5.5 78.999 5.5s55.666 -1.83301 78.999 -5.5s44.166 -10.334 62.499 -20.001s34.833 -23.334 49.5 -41.001s27.667 -40.5 39 -68.5l100 -252l-117 -57
l-213 309z" />
    <glyph glyph-name="Udieresis" unicode="&#xdc;" horiz-adv-x="1405" 
d="M177 1427l238 -0.00195312v-954c0 -56.667 5 -103.334 15 -140.001s26.5 -65.5 49.5 -86.5s52.833 -35.667 89.5 -44s81.667 -12.5 135 -12.5c48 0 89.833 4.16699 125.5 12.5s65.5 23 89.5 44s41.833 49.833 53.5 86.5s17.5 83.334 17.5 140.001v954h238v-968
c0 -83.333 -9.5 -155.666 -28.5 -216.999s-49.5 -112.166 -91.5 -152.499s-96.167 -70.5 -162.5 -90.5s-146.833 -30 -241.5 -30s-175.334 9.83301 -242.001 29.5s-121.167 49.5 -163.5 89.5s-73.166 90.5 -92.499 151.5s-29 132.833 -29 215.5v972zM789 1691
c0 31.333 2.16699 56.833 6.5 76.5s12.333 35.167 24 46.5s27.334 19 47.001 23s44.5 6 74.5 6c30.667 0 56 -2 76 -6s35.667 -11.667 47 -23s19.333 -26.833 24 -46.5s7 -45.167 7 -76.5c0 -30.667 -2.33301 -55.834 -7 -75.501s-12.667 -35.334 -24 -47.001
s-27 -19.667 -47 -24s-45.333 -6.5 -76 -6.5c-30 0 -54.833 2.16699 -74.5 6.5s-35.334 12.333 -47.001 24s-19.667 27.334 -24 47.001s-6.5 44.834 -6.5 75.501zM324 1691c0 31.333 2.16699 56.833 6.5 76.5s12.333 35.167 24 46.5s27.334 19 47.001 23s44.5 6 74.5 6
c30.667 0 56 -2 76 -6s35.667 -11.667 47 -23s19.333 -26.833 24 -46.5s7 -45.167 7 -76.5c0 -30.667 -2.33301 -55.834 -7 -75.501s-12.667 -35.334 -24 -47.001s-27 -19.667 -47 -24s-45.333 -6.5 -76 -6.5c-30 0 -54.833 2.16699 -74.5 6.5s-35.334 12.333 -47.001 24
s-19.667 27.334 -24 47.001s-6.5 44.834 -6.5 75.501z" />
    <glyph glyph-name="Yacute" unicode="&#xdd;" horiz-adv-x="1221" 
d="M492 551l-492 876h281l327 -622h4l328 622h281l-492 -876v-551h-237v551zM444 1593l424 352.002c8 -4 17 -9.66699 27 -17c8.66699 -6.66699 18.5 -15.334 29.5 -26.001s23.167 -24.334 36.5 -41.001c13.333 -16 23.333 -30.667 30 -44s10 -26.333 10 -39
c0 -29.333 -22.333 -59 -67 -89c-14 -9.33301 -30.5 -19.5 -49.5 -30.5l-61 -34l-66.5 -35.5l-66 -34l-158 -79z" />
    <glyph glyph-name="Thorn" unicode="&#xde;" horiz-adv-x="1228" 
d="M182 1427l240.005 -0.00195312v-273c12.667 4 29.834 8.83301 51.501 14.5s46.167 11.334 73.5 17.001s56.666 10.334 87.999 14.001s63.333 5.5 96 5.5c62 0 120.167 -7.16699 174.5 -21.5s101.666 -40 141.999 -77s72.166 -87.5 95.499 -151.5s35 -145.333 35 -244
c0 -100.667 -11.5 -183.167 -34.5 -247.5s-54.833 -115 -95.5 -152s-88.834 -62.5 -144.501 -76.5s-115.834 -21 -180.501 -21c-30 0 -59.833 1.83301 -89.5 5.5s-57.834 8.16699 -84.501 13.5s-51 11 -73 17s-40 11.333 -54 16v-266h-240v1427zM422.005 441.998
c13.333 -2.66699 39 -6.16602 77 -10.499s84 -6.5 138 -6.5c46.667 0 88.334 4 125.001 12s67.834 22.5 93.501 43.5s45.167 50.167 58.5 87.5s20 85.666 20 144.999c0 58.667 -5.5 106.5 -16.5 143.5s-27.833 65.833 -50.5 86.5s-51.334 34.667 -86.001 42
s-75.334 11 -122.001 11c-28 0 -55 -0.666992 -81 -2s-49.667 -2.66602 -71 -3.99902s-39.5 -2.83301 -54.5 -4.5s-25.167 -2.83398 -30.5 -3.50098v-540z" />
    <glyph glyph-name="germandbls" unicode="&#xdf;" horiz-adv-x="1220" 
d="M175 1040c0 60.667 7.33496 116.503 22.002 167.503s39.667 95 75 132s82 65.667 140 86s130.667 30.5 218 30.5c84.667 0 155.334 -10 212.001 -30s102 -46.5 136 -79.5s58.167 -71 72.5 -114s21.5 -87.833 21.5 -134.5c0 -56 -7.83301 -103.833 -23.5 -143.5
s-34 -72.334 -55 -98.001s-41.667 -45.167 -62 -58.5s-35.5 -21.333 -45.5 -24c-3.33301 -1.33301 -5 -4 -5 -8s1.66699 -6.66699 5 -8c8.66699 -2.66699 20.667 -7.33398 36 -14.001s31.833 -16.334 49.5 -29.001s35.667 -29 54 -49s34.833 -44.5 49.5 -73.5
s26.667 -62.833 36 -101.5s14 -83 14 -133c0 -64 -9.83301 -119.667 -29.5 -167s-46.5 -86.833 -80.5 -118.5s-73.667 -55.167 -119 -70.5s-93.666 -23 -144.999 -23c-36.667 0 -69.834 2 -99.501 6s-55.167 8.66699 -76.5 14c-24.667 6 -46.667 13 -66 21l4 176
c16.667 -2.66699 35 -5.33398 55 -8.00098c17.333 -2 37.166 -3.66699 59.499 -5s46.166 -2 71.499 -2c26.667 0 51.334 3.66699 74.001 11s42.167 18.666 58.5 33.999s29.166 35.333 38.499 60s14 54.334 14 89.001c0 47.333 -6.5 85.833 -19.5 115.5
s-29.5 53.667 -49.5 72s-42 33.166 -66 44.499l-70 34c-7.33301 3.33301 -13 14.5 -17 33.5s-6 39.167 -6 60.5s2 40.833 6 58.5s9.66699 28.834 17 33.501c15.333 9.33301 32.333 20.333 51 33s36 28.167 52 46.5s29.5 39.833 40.5 64.5s16.5 54 16.5 88
c0 38 -3.16699 68.833 -9.5 92.5s-17.333 42.334 -33 56.001s-37.167 23 -64.5 28s-62 7.5 -104 7.5c-39.333 0 -72.5 -3.5 -99.5 -10.5s-48.833 -18.667 -65.5 -35s-28.834 -37.5 -36.501 -63.5s-11.5 -58 -11.5 -96v-1038h-240v1040z" />
    <glyph glyph-name="agrave" unicode="&#xe0;" horiz-adv-x="1180" 
d="M127 299c0 60 8.83008 110.666 26.4971 151.999s41.667 74.666 72 99.999s66 43.666 107 54.999s85.167 17 132.5 17c48 0 91.5 -2.66699 130.5 -8s72.833 -11.333 101.5 -18c32.667 -7.33301 62.334 -15.666 89.001 -24.999v98c0 24.667 -0.833008 45.5 -2.5 62.5
s-4.5 31.833 -8.5 44.5s-9.5 23.334 -16.5 32.001s-15.5 17 -25.5 25c-21.333 15.333 -50.666 26.333 -87.999 33s-86 10 -146 10c-38 0 -74.833 -1.16699 -110.5 -3.5s-67.5 -5.16602 -95.5 -8.49902c-32.667 -3.33301 -63.667 -7 -93 -11v166
c26.667 10.667 59.667 20.334 99 29.001c33.333 7.33301 75 14.166 125 20.499s109.333 9.5 178 9.5c46 0 86.833 -1.83301 122.5 -5.5s67.167 -9.83398 94.5 -18.501s51.5 -20 72.5 -34s39.833 -31.333 56.5 -52c14 -17.333 25.667 -35.666 35 -54.999s17 -42 23 -68
s10.167 -55.833 12.5 -89.5s3.5 -72.834 3.5 -117.501v-639h-201l-18 78c-29.333 -20.667 -61.666 -39 -96.999 -55c-30.667 -13.333 -66.5 -25.666 -107.5 -36.999s-86.167 -17 -135.5 -17c-60 0 -111.333 6 -154 18s-77.5 31 -104.5 57s-46.667 60 -59 102
s-18.5 93 -18.5 153zM369.997 298.999c0 -29.333 3.66699 -52.6641 11 -69.9971s18 -30.5 32 -39.5s31.167 -14.833 51.5 -17.5s43.5 -4 69.5 -4c34 0 66.167 3.16699 96.5 9.5s57.166 13.166 80.499 20.499c26.667 8.66699 51.667 18.667 75 30v183
c-21.333 4 -44.333 7.66699 -69 11c-21.333 3.33301 -45.5 6.16602 -72.5 8.49902s-55.5 3.5 -85.5 3.5c-33.333 0 -61.833 -1.5 -85.5 -4.5s-43.167 -9.33301 -58.5 -19s-26.666 -23.334 -33.999 -41.001s-11 -41.167 -11 -70.5zM753.997 1151l-142 86.999l-57 36
l-55.5 34.5c-17.667 11 -33.5 21.333 -47.5 31s-25.333 17.834 -34 24.501c-32.667 24.667 -56.5 45.667 -71.5 63s-22.5 34.333 -22.5 51c0 11.333 3.16699 23 9.5 35s15.833 25.667 28.5 41c11.333 14.667 23 27.5 35 38.5s22.667 20.167 32 27.5
c11.333 8.66699 22 16 32 22l393 -368l-100 -123v0z" />
    <glyph glyph-name="aacute" unicode="&#xe1;" horiz-adv-x="1180" 
d="M127 299c0 60 8.83008 110.666 26.4971 151.999s41.667 74.666 72 99.999s66 43.666 107 54.999s85.167 17 132.5 17c48 0 91.5 -2.66699 130.5 -8s72.833 -11.333 101.5 -18c32.667 -7.33301 62.334 -15.666 89.001 -24.999v98c0 24.667 -0.833008 45.5 -2.5 62.5
s-4.5 31.833 -8.5 44.5s-9.5 23.334 -16.5 32.001s-15.5 17 -25.5 25c-21.333 15.333 -50.666 26.333 -87.999 33s-86 10 -146 10c-38 0 -74.833 -1.16699 -110.5 -3.5s-67.5 -5.16602 -95.5 -8.49902c-32.667 -3.33301 -63.667 -7 -93 -11v166
c26.667 10.667 59.667 20.334 99 29.001c33.333 7.33301 75 14.166 125 20.499s109.333 9.5 178 9.5c46 0 86.833 -1.83301 122.5 -5.5s67.167 -9.83398 94.5 -18.501s51.5 -20 72.5 -34s39.833 -31.333 56.5 -52c14 -17.333 25.667 -35.666 35 -54.999s17 -42 23 -68
s10.167 -55.833 12.5 -89.5s3.5 -72.834 3.5 -117.501v-639h-201l-18 78c-29.333 -20.667 -61.666 -39 -96.999 -55c-30.667 -13.333 -66.5 -25.666 -107.5 -36.999s-86.167 -17 -135.5 -17c-60 0 -111.333 6 -154 18s-77.5 31 -104.5 57s-46.667 60 -59 102
s-18.5 93 -18.5 153zM369.997 298.999c0 -29.333 3.66699 -52.6641 11 -69.9971s18 -30.5 32 -39.5s31.167 -14.833 51.5 -17.5s43.5 -4 69.5 -4c34 0 66.167 3.16699 96.5 9.5s57.166 13.166 80.499 20.499c26.667 8.66699 51.667 18.667 75 30v183
c-21.333 4 -44.333 7.66699 -69 11c-21.333 3.33301 -45.5 6.16602 -72.5 8.49902s-55.5 3.5 -85.5 3.5c-33.333 0 -61.833 -1.5 -85.5 -4.5s-43.167 -9.33301 -58.5 -19s-26.666 -23.334 -33.999 -41.001s-11 -41.167 -11 -70.5zM326.997 1278l407.997 382.998
c8.66699 -4.66699 18.334 -11 29.001 -19c9.33301 -7.33301 19.833 -16.666 31.5 -27.999s24.834 -25.666 39.501 -42.999c12.667 -15.333 22.334 -29.333 29.001 -42s10 -24.667 10 -36c0 -16.667 -7.5 -33.5 -22.5 -50.5s-39.5 -37.833 -73.5 -62.5l-36 -25l-49 -33
l-57 -37.5l-59 -38.5l-147 -95z" />
    <glyph glyph-name="acircumflex" unicode="&#xe2;" horiz-adv-x="1180" 
d="M127 299c0 60 8.83008 110.666 26.4971 151.999s41.667 74.666 72 99.999s66 43.666 107 54.999s85.167 17 132.5 17c48 0 91.5 -2.66699 130.5 -8s72.833 -11.333 101.5 -18c32.667 -7.33301 62.334 -15.666 89.001 -24.999v98c0 24.667 -0.833008 45.5 -2.5 62.5
s-4.5 31.833 -8.5 44.5s-9.5 23.334 -16.5 32.001s-15.5 17 -25.5 25c-21.333 15.333 -50.666 26.333 -87.999 33s-86 10 -146 10c-38 0 -74.833 -1.16699 -110.5 -3.5s-67.5 -5.16602 -95.5 -8.49902c-32.667 -3.33301 -63.667 -7 -93 -11v166
c26.667 10.667 59.667 20.334 99 29.001c33.333 7.33301 75 14.166 125 20.499s109.333 9.5 178 9.5c46 0 86.833 -1.83301 122.5 -5.5s67.167 -9.83398 94.5 -18.501s51.5 -20 72.5 -34s39.833 -31.333 56.5 -52c14 -17.333 25.667 -35.666 35 -54.999s17 -42 23 -68
s10.167 -55.833 12.5 -89.5s3.5 -72.834 3.5 -117.501v-639h-201l-18 78c-29.333 -20.667 -61.666 -39 -96.999 -55c-30.667 -13.333 -66.5 -25.666 -107.5 -36.999s-86.167 -17 -135.5 -17c-60 0 -111.333 6 -154 18s-77.5 31 -104.5 57s-46.667 60 -59 102
s-18.5 93 -18.5 153zM369.997 298.999c0 -29.333 3.66699 -52.6641 11 -69.9971s18 -30.5 32 -39.5s31.167 -14.833 51.5 -17.5s43.5 -4 69.5 -4c34 0 66.167 3.16699 96.5 9.5s57.166 13.166 80.499 20.499c26.667 8.66699 51.667 18.667 75 30v183
c-21.333 4 -44.333 7.66699 -69 11c-21.333 3.33301 -45.5 6.16602 -72.5 8.49902s-55.5 3.5 -85.5 3.5c-33.333 0 -61.833 -1.5 -85.5 -4.5s-43.167 -9.33301 -58.5 -19s-26.666 -23.334 -33.999 -41.001s-11 -41.167 -11 -70.5zM206.997 1204l153.998 276
c14.667 26.667 29.334 48.667 44.001 66s30.834 31.166 48.501 41.499s37.5 17.5 59.5 21.5s47.667 6 77 6s55 -2 77 -6s41.833 -11.167 59.5 -21.5s34 -24.166 49 -41.499s29.833 -39.333 44.5 -66l153 -276l-113 -74l-270 327l-270 -327z" />
    <glyph glyph-name="atilde" unicode="&#xe3;" horiz-adv-x="1180" 
d="M127 299c0 60 8.83008 110.666 26.4971 151.999s41.667 74.666 72 99.999s66 43.666 107 54.999s85.167 17 132.5 17c48 0 91.5 -2.66699 130.5 -8s72.833 -11.333 101.5 -18c32.667 -7.33301 62.334 -15.666 89.001 -24.999v98c0 24.667 -0.833008 45.5 -2.5 62.5
s-4.5 31.833 -8.5 44.5s-9.5 23.334 -16.5 32.001s-15.5 17 -25.5 25c-21.333 15.333 -50.666 26.333 -87.999 33s-86 10 -146 10c-38 0 -74.833 -1.16699 -110.5 -3.5s-67.5 -5.16602 -95.5 -8.49902c-32.667 -3.33301 -63.667 -7 -93 -11v166
c26.667 10.667 59.667 20.334 99 29.001c33.333 7.33301 75 14.166 125 20.499s109.333 9.5 178 9.5c46 0 86.833 -1.83301 122.5 -5.5s67.167 -9.83398 94.5 -18.501s51.5 -20 72.5 -34s39.833 -31.333 56.5 -52c14 -17.333 25.667 -35.666 35 -54.999s17 -42 23 -68
s10.167 -55.833 12.5 -89.5s3.5 -72.834 3.5 -117.501v-639h-201l-18 78c-29.333 -20.667 -61.666 -39 -96.999 -55c-30.667 -13.333 -66.5 -25.666 -107.5 -36.999s-86.167 -17 -135.5 -17c-60 0 -111.333 6 -154 18s-77.5 31 -104.5 57s-46.667 60 -59 102
s-18.5 93 -18.5 153zM369.997 298.999c0 -29.333 3.66699 -52.6641 11 -69.9971s18 -30.5 32 -39.5s31.167 -14.833 51.5 -17.5s43.5 -4 69.5 -4c34 0 66.167 3.16699 96.5 9.5s57.166 13.166 80.499 20.499c26.667 8.66699 51.667 18.667 75 30v183
c-21.333 4 -44.333 7.66699 -69 11c-21.333 3.33301 -45.5 6.16602 -72.5 8.49902s-55.5 3.5 -85.5 3.5c-33.333 0 -61.833 -1.5 -85.5 -4.5s-43.167 -9.33301 -58.5 -19s-26.666 -23.334 -33.999 -41.001s-11 -41.167 -11 -70.5zM181.997 1264
c2.66699 22 9.82715 45.3311 21.4941 69.998s27.834 47.5 48.501 68.5s45.334 38.667 74.001 53s61.334 22.166 98.001 23.499c24.667 0.666992 47.667 -1.83301 69 -7.5s41.666 -12.667 60.999 -21s37.833 -17.666 55.5 -27.999s34.834 -19.666 51.501 -27.999
s33.334 -15.333 50.001 -21s33.667 -8.16699 51 -7.5c21.333 1.33301 39.833 6.66602 55.5 15.999s28.834 19.666 39.501 30.999c12 12.667 22.667 27.667 32 45l109 -69c-2.66699 -22 -10.167 -45.333 -22.5 -70s-28.666 -47.5 -48.999 -68.5s-44.833 -38.667 -73.5 -53
s-61 -22.166 -97 -23.499s-69.667 3.83398 -101 15.501s-60.833 24.834 -88.5 39.501l-78.5 40c-24.667 12 -48 17.667 -70 17c-22 -1.33301 -41 -6.83301 -57 -16.5s-29.333 -20.167 -40 -31.5c-12 -13.333 -22 -28 -30 -44z" />
    <glyph glyph-name="adieresis" unicode="&#xe4;" horiz-adv-x="1180" 
d="M127 299c0 60 8.83008 110.666 26.4971 151.999s41.667 74.666 72 99.999s66 43.666 107 54.999s85.167 17 132.5 17c48 0 91.5 -2.66699 130.5 -8s72.833 -11.333 101.5 -18c32.667 -7.33301 62.334 -15.666 89.001 -24.999v98c0 24.667 -0.833008 45.5 -2.5 62.5
s-4.5 31.833 -8.5 44.5s-9.5 23.334 -16.5 32.001s-15.5 17 -25.5 25c-21.333 15.333 -50.666 26.333 -87.999 33s-86 10 -146 10c-38 0 -74.833 -1.16699 -110.5 -3.5s-67.5 -5.16602 -95.5 -8.49902c-32.667 -3.33301 -63.667 -7 -93 -11v166
c26.667 10.667 59.667 20.334 99 29.001c33.333 7.33301 75 14.166 125 20.499s109.333 9.5 178 9.5c46 0 86.833 -1.83301 122.5 -5.5s67.167 -9.83398 94.5 -18.501s51.5 -20 72.5 -34s39.833 -31.333 56.5 -52c14 -17.333 25.667 -35.666 35 -54.999s17 -42 23 -68
s10.167 -55.833 12.5 -89.5s3.5 -72.834 3.5 -117.501v-639h-201l-18 78c-29.333 -20.667 -61.666 -39 -96.999 -55c-30.667 -13.333 -66.5 -25.666 -107.5 -36.999s-86.167 -17 -135.5 -17c-60 0 -111.333 6 -154 18s-77.5 31 -104.5 57s-46.667 60 -59 102
s-18.5 93 -18.5 153zM369.997 298.999c0 -29.333 3.66699 -52.6641 11 -69.9971s18 -30.5 32 -39.5s31.167 -14.833 51.5 -17.5s43.5 -4 69.5 -4c34 0 66.167 3.16699 96.5 9.5s57.166 13.166 80.499 20.499c26.667 8.66699 51.667 18.667 75 30v183
c-21.333 4 -44.333 7.66699 -69 11c-21.333 3.33301 -45.5 6.16602 -72.5 8.49902s-55.5 3.5 -85.5 3.5c-33.333 0 -61.833 -1.5 -85.5 -4.5s-43.167 -9.33301 -58.5 -19s-26.666 -23.334 -33.999 -41.001s-11 -41.167 -11 -70.5zM199.997 1317
c0 31.333 2.16699 56.833 6.5 76.5s12.333 35.167 24 46.5s27.334 19 47.001 23s44.5 6 74.5 6c30.667 0 56 -2 76 -6s35.667 -11.667 47 -23s19.333 -26.833 24 -46.5s7 -45.167 7 -76.5c0 -30.667 -2.33301 -55.834 -7 -75.501s-12.667 -35.334 -24 -47.001
s-27 -19.667 -47 -24s-45.333 -6.5 -76 -6.5c-30 0 -54.833 2.16699 -74.5 6.5s-35.334 12.333 -47.001 24s-19.667 27.334 -24 47.001s-6.5 44.834 -6.5 75.501zM668.997 1317c0 31.333 2.16699 56.833 6.5 76.5s12.333 35.167 24 46.5s27.334 19 47.001 23s44.5 6 74.5 6
c30.667 0 56 -2 76 -6s35.667 -11.667 47 -23s19.333 -26.833 24 -46.5s7 -45.167 7 -76.5c0 -30.667 -2.33301 -55.834 -7 -75.501s-12.667 -35.334 -24 -47.001s-27 -19.667 -47 -24s-45.333 -6.5 -76 -6.5c-30 0 -54.833 2.16699 -74.5 6.5s-35.334 12.333 -47.001 24
s-19.667 27.334 -24 47.001s-6.5 44.834 -6.5 75.501z" />
    <glyph glyph-name="aring" unicode="&#xe5;" horiz-adv-x="1180" 
d="M127 299c0 60 8.83008 110.666 26.4971 151.999s41.667 74.666 72 99.999s66 43.666 107 54.999s85.167 17 132.5 17c48 0 91.5 -2.66699 130.5 -8s72.833 -11.333 101.5 -18c32.667 -7.33301 62.334 -15.666 89.001 -24.999v98c0 24.667 -0.833008 45.5 -2.5 62.5
s-4.5 31.833 -8.5 44.5s-9.5 23.334 -16.5 32.001s-15.5 17 -25.5 25c-21.333 15.333 -50.666 26.333 -87.999 33s-86 10 -146 10c-38 0 -74.833 -1.16699 -110.5 -3.5s-67.5 -5.16602 -95.5 -8.49902c-32.667 -3.33301 -63.667 -7 -93 -11v166
c26.667 10.667 59.667 20.334 99 29.001c33.333 7.33301 75 14.166 125 20.499s109.333 9.5 178 9.5c46 0 86.833 -1.83301 122.5 -5.5s67.167 -9.83398 94.5 -18.501s51.5 -20 72.5 -34s39.833 -31.333 56.5 -52c14 -17.333 25.667 -35.666 35 -54.999s17 -42 23 -68
s10.167 -55.833 12.5 -89.5s3.5 -72.834 3.5 -117.501v-639h-201l-18 78c-29.333 -20.667 -61.666 -39 -96.999 -55c-30.667 -13.333 -66.5 -25.666 -107.5 -36.999s-86.167 -17 -135.5 -17c-60 0 -111.333 6 -154 18s-77.5 31 -104.5 57s-46.667 60 -59 102
s-18.5 93 -18.5 153zM369.997 298.999c0 -29.333 3.66699 -52.6641 11 -69.9971s18 -30.5 32 -39.5s31.167 -14.833 51.5 -17.5s43.5 -4 69.5 -4c34 0 66.167 3.16699 96.5 9.5s57.166 13.166 80.499 20.499c26.667 8.66699 51.667 18.667 75 30v183
c-21.333 4 -44.333 7.66699 -69 11c-21.333 3.33301 -45.5 6.16602 -72.5 8.49902s-55.5 3.5 -85.5 3.5c-33.333 0 -61.833 -1.5 -85.5 -4.5s-43.167 -9.33301 -58.5 -19s-26.666 -23.334 -33.999 -41.001s-11 -41.167 -11 -70.5zM588.997 1146
c-36 0 -69.5029 3.33301 -100.503 10s-57.667 19 -80 37s-39.833 42.667 -52.5 74s-19 71.666 -19 120.999c0 50 6.5 90.833 19.5 122.5s30.833 56.5 53.5 74.5s49.334 30.333 80.001 37s63.667 10 99 10s68.333 -3.33301 99 -10s57.334 -19 80.001 -37
s40.5 -42.833 53.5 -74.5s19.5 -72.5 19.5 -122.5c0 -49.333 -6.16699 -89.666 -18.5 -120.999s-29.666 -56 -51.999 -74s-49 -30.333 -80 -37s-64.833 -10 -101.5 -10zM588.994 1277c17.333 0 32 1.66699 44 5s21.667 9.33301 29 18s12.5 20.167 15.5 34.5
s4.5 32.166 4.5 53.499c0 22 -1.5 40.167 -4.5 54.5s-8.16699 25.666 -15.5 33.999s-17 14.166 -29 17.499s-26.667 5 -44 5c-16.667 0 -30.834 -1.66699 -42.501 -5s-21 -9.16602 -28 -17.499s-12 -19.666 -15 -33.999s-4.5 -32.5 -4.5 -54.5
c0 -21.333 1.5 -39.166 4.5 -53.499s8 -25.833 15 -34.5s16.333 -14.667 28 -18s25.834 -5 42.501 -5z" />
    <glyph glyph-name="ae" unicode="&#xe6;" horiz-adv-x="1781" 
d="M127 301c0 111.333 33.1689 194.835 99.502 250.502s165.5 83.5 297.5 83.5h272v35c0 24.667 -0.833008 45.667 -2.5 63s-4.5 32.166 -8.5 44.499s-9.5 22.833 -16.5 31.5s-15.5 17 -25.5 25c-21.333 15.333 -52.333 26.333 -93 33s-91 10 -151 10
c-39.333 0 -76.166 -1.16699 -110.499 -3.5s-64.833 -5.16602 -91.5 -8.49902c-31.333 -3.33301 -60 -7 -86 -11v166c35.333 12 73 22.667 113 32c34 8 73 15.5 117 22.5s90 10.5 138 10.5c87.333 0 160.833 -12.5 220.5 -37.5s103.5 -61.5 131.5 -109.5
c29.333 46 74.166 82 134.499 108s137.166 39 230.499 39c80.667 0 147.5 -10.667 200.5 -32s95.167 -51.5 126.5 -90.5s53.333 -85.833 66 -140.5s19 -115.334 19 -182.001c0 -31.333 -1.16699 -63.5 -3.5 -96.5s-5.5 -67.5 -9.5 -103.5l-661 4
c1.33301 -46 6.16602 -85.5 14.499 -118.5s23.166 -60.167 44.499 -81.5s50.666 -37 87.999 -47s86 -15 146 -15c46 0 89.167 1.16699 129.5 3.5s75.833 5.16602 106.5 8.49902c35.333 3.33301 68 7.66602 98 12.999v-170c-34 -12.667 -71 -24 -111 -34
c-34 -8.66699 -73.667 -16.5 -119 -23.5s-93.666 -10.5 -144.999 -10.5c-49.333 0 -93.5 2.33301 -132.5 7s-74.5 12.834 -106.5 24.501s-61.667 27.5 -89 47.5s-54.333 45.667 -81 77c-41.333 -46.667 -92.666 -84.334 -153.999 -113.001s-132.333 -43 -213 -43
c-72 0 -132.5 7.83301 -181.5 23.5s-88.5 37.834 -118.5 66.501s-51.333 63.5 -64 104.5s-19 86.833 -19 137.5zM1489 635.002l-0.000976562 32c0 36 -2.5 67.667 -7.5 95s-15.167 50.166 -30.5 68.499s-37.166 32 -65.499 41s-65.833 13.5 -112.5 13.5
c-52.667 0 -94.667 -6.33301 -126 -19s-55.333 -30.167 -72 -52.5s-27.667 -48.666 -33 -78.999s-8 -63.5 -8 -99.5h455zM360.001 311.002c0 -31.333 3.33203 -56.333 9.99902 -75s16.834 -33 30.501 -43s31.167 -16.667 52.5 -20s47 -5 77 -5c60 0 114 9.5 162 28.5
s88.333 42.5 121 70.5c-4.66699 19.333 -8.33398 39.333 -11.001 60s-4.66699 42.667 -6 66l-2 51h-227c-37.333 0 -69.166 -2.66699 -95.499 -8s-47.833 -13.333 -64.5 -24s-28.667 -24.5 -36 -41.5s-11 -36.833 -11 -59.5z" />
    <glyph glyph-name="ccedilla" unicode="&#xe7;" horiz-adv-x="965" 
d="M94 528c0 100 12.167 184.996 36.5 254.996s57.333 126.833 99 170.5s90.5 75.5 146.5 95.5s115.667 30 179 30c48.667 0 92.334 -3.16699 131.001 -9.5s71.667 -13.166 99 -20.499c32 -8.66699 59.667 -18.334 83 -29.001v-164c-22.667 2 -47.334 4.33301 -74.001 7
l-77 4.5c-28.667 1.66699 -58.667 2.5 -90 2.5c-50 0 -93 -4.33301 -129 -13s-65.333 -25.167 -88 -49.5s-39.334 -58.666 -50.001 -102.999s-16 -102.5 -16 -174.5c0 -73.333 6.16699 -132.666 18.5 -177.999s31.166 -80.5 56.499 -105.5s57 -41.667 95 -50
s83 -12.5 135 -12.5c32.667 0 62.834 0.833008 90.501 2.5s51.834 3.83398 72.501 6.50098c24 2.66699 45.667 6 65 10v-166c-21.333 -12 -47.333 -22.667 -78 -32c-26 -8 -58.667 -15.333 -98 -22s-85.333 -10 -138 -10c-64.667 0 -125.5 8.83301 -182.5 26.5
s-106.667 47.834 -149 90.501s-75.833 99.5 -100.5 170.5s-37 160.167 -37 267.5zM689 -0.00390625l-26.9951 -92c24 2 46.333 0.166992 67 -5.5s38.667 -14.834 54 -27.501s27.5 -29 36.5 -49s13.5 -43.333 13.5 -70c0 -7.33301 -0.5 -15 -1.5 -23
s-2.16699 -16.667 -3.5 -26c-7.33301 -35.333 -17.833 -65.166 -31.5 -89.499s-31.834 -44.166 -54.501 -59.499s-50.334 -26.333 -83.001 -33s-71.334 -10 -116.001 -10c-24.667 0 -48.834 1.83301 -72.501 5.5s-44.834 8.16699 -63.501 13.5c-22 6 -43 12.667 -63 20
l35 133c10.667 -2.66699 23.667 -5.33398 39 -8.00098c12.667 -2 28.167 -3.66699 46.5 -5s39.166 -2 62.499 -2c34 0 59.833 4 77.5 12s29.167 24.667 34.5 50c6 47.333 -27.333 71 -100 71c-11.333 0 -23.166 -0.5 -35.499 -1.5s-24.166 -2.16699 -35.499 -3.5
c-12.667 -2 -25.334 -3.66699 -38.001 -5l54 205h205z" />
    <glyph glyph-name="egrave" unicode="&#xe8;" horiz-adv-x="1085" 
d="M94 539c0 110 14.3271 200.329 42.9941 270.996s66.667 126.334 114 167.001s101.333 68.834 162 84.501s123 23.5 187 23.5c80.667 0 147.5 -11 200.5 -33s95.167 -52.833 126.5 -92.5s53.333 -87.167 66 -142.5s19 -116.333 19 -183
c0 -31.333 -1.16699 -63.666 -3.5 -96.999s-5.5 -67.666 -9.5 -102.999h-661c0.666992 -47.333 5.83398 -87.166 15.501 -119.499s25.667 -58.666 48 -78.999s52 -35 89 -44s83.167 -13.5 138.5 -13.5c46.667 0 90.334 1.16699 131.001 3.5s76.334 5.16602 107.001 8.49902
c36 3.33301 68.667 7.66602 98 12.999v-166c-34 -12.667 -71 -24 -111 -34c-34 -8.66699 -73.667 -16.5 -119 -23.5s-93.666 -10.5 -144.999 -10.5c-78.667 0 -148.667 9.83301 -210 29.5s-113.166 52 -155.499 97s-74.666 103.833 -96.999 176.5s-33.5 161.667 -33.5 267z
M792.994 611.996l0.000976562 38.001c0 40 -2.5 74.833 -7.5 104.5s-15.167 54.167 -30.5 73.5s-37 33.666 -65 42.999s-65.333 14 -112 14c-50 0 -90.833 -5.83301 -122.5 -17.5s-56.334 -29 -74.001 -52s-29.667 -51.5 -36 -85.5s-9.5 -73.333 -9.5 -118h457z
M718.995 1151l-142 86.999l-57 36l-55.5 34.5c-17.667 11 -33.5 21.333 -47.5 31s-25.333 17.834 -34 24.501c-32.667 24.667 -56.5 45.667 -71.5 63s-22.5 34.333 -22.5 51c0 11.333 3.16699 23 9.5 35s15.833 25.667 28.5 41c11.333 14.667 23 27.5 35 38.5
s22.667 20.167 32 27.5c11.333 8.66699 22 16 32 22l393 -368l-100 -123v0z" />
    <glyph glyph-name="eacute" unicode="&#xe9;" horiz-adv-x="1085" 
d="M94 539c0 110 14.3271 200.329 42.9941 270.996s66.667 126.334 114 167.001s101.333 68.834 162 84.501s123 23.5 187 23.5c80.667 0 147.5 -11 200.5 -33s95.167 -52.833 126.5 -92.5s53.333 -87.167 66 -142.5s19 -116.333 19 -183
c0 -31.333 -1.16699 -63.666 -3.5 -96.999s-5.5 -67.666 -9.5 -102.999h-661c0.666992 -47.333 5.83398 -87.166 15.501 -119.499s25.667 -58.666 48 -78.999s52 -35 89 -44s83.167 -13.5 138.5 -13.5c46.667 0 90.334 1.16699 131.001 3.5s76.334 5.16602 107.001 8.49902
c36 3.33301 68.667 7.66602 98 12.999v-166c-34 -12.667 -71 -24 -111 -34c-34 -8.66699 -73.667 -16.5 -119 -23.5s-93.666 -10.5 -144.999 -10.5c-78.667 0 -148.667 9.83301 -210 29.5s-113.166 52 -155.499 97s-74.666 103.833 -96.999 176.5s-33.5 161.667 -33.5 267z
M792.994 611.996l0.000976562 38.001c0 40 -2.5 74.833 -7.5 104.5s-15.167 54.167 -30.5 73.5s-37 33.666 -65 42.999s-65.333 14 -112 14c-50 0 -90.833 -5.83301 -122.5 -17.5s-56.334 -29 -74.001 -52s-29.667 -51.5 -36 -85.5s-9.5 -73.333 -9.5 -118h457z
M330.995 1278l407.997 382.998c8.66699 -4.66699 18.334 -11 29.001 -19c9.33301 -7.33301 19.833 -16.666 31.5 -27.999s24.834 -25.666 39.501 -42.999c12.667 -15.333 22.334 -29.333 29.001 -42s10 -24.667 10 -36c0 -16.667 -7.5 -33.5 -22.5 -50.5
s-39.5 -37.833 -73.5 -62.5l-36 -25l-49 -33l-57 -37.5l-59 -38.5l-147 -95z" />
    <glyph glyph-name="ecircumflex" unicode="&#xea;" horiz-adv-x="1085" 
d="M94 539c0 110 14.3271 200.329 42.9941 270.996s66.667 126.334 114 167.001s101.333 68.834 162 84.501s123 23.5 187 23.5c80.667 0 147.5 -11 200.5 -33s95.167 -52.833 126.5 -92.5s53.333 -87.167 66 -142.5s19 -116.333 19 -183
c0 -31.333 -1.16699 -63.666 -3.5 -96.999s-5.5 -67.666 -9.5 -102.999h-661c0.666992 -47.333 5.83398 -87.166 15.501 -119.499s25.667 -58.666 48 -78.999s52 -35 89 -44s83.167 -13.5 138.5 -13.5c46.667 0 90.334 1.16699 131.001 3.5s76.334 5.16602 107.001 8.49902
c36 3.33301 68.667 7.66602 98 12.999v-166c-34 -12.667 -71 -24 -111 -34c-34 -8.66699 -73.667 -16.5 -119 -23.5s-93.666 -10.5 -144.999 -10.5c-78.667 0 -148.667 9.83301 -210 29.5s-113.166 52 -155.499 97s-74.666 103.833 -96.999 176.5s-33.5 161.667 -33.5 267z
M792.994 611.996l0.000976562 38.001c0 40 -2.5 74.833 -7.5 104.5s-15.167 54.167 -30.5 73.5s-37 33.666 -65 42.999s-65.333 14 -112 14c-50 0 -90.833 -5.83301 -122.5 -17.5s-56.334 -29 -74.001 -52s-29.667 -51.5 -36 -85.5s-9.5 -73.333 -9.5 -118h457z
M208.995 1181l153.998 276c14.667 26.667 29.334 48.667 44.001 66s30.834 31.166 48.501 41.499s37.5 17.5 59.5 21.5s47.667 6 77 6s55 -2 77 -6s41.833 -11.167 59.5 -21.5s34 -24.166 49 -41.499s29.833 -39.333 44.5 -66l153 -276l-113 -74l-270 327l-270 -327z" />
    <glyph glyph-name="edieresis" unicode="&#xeb;" horiz-adv-x="1085" 
d="M94 539c0 110 14.3271 200.329 42.9941 270.996s66.667 126.334 114 167.001s101.333 68.834 162 84.501s123 23.5 187 23.5c80.667 0 147.5 -11 200.5 -33s95.167 -52.833 126.5 -92.5s53.333 -87.167 66 -142.5s19 -116.333 19 -183
c0 -31.333 -1.16699 -63.666 -3.5 -96.999s-5.5 -67.666 -9.5 -102.999h-661c0.666992 -47.333 5.83398 -87.166 15.501 -119.499s25.667 -58.666 48 -78.999s52 -35 89 -44s83.167 -13.5 138.5 -13.5c46.667 0 90.334 1.16699 131.001 3.5s76.334 5.16602 107.001 8.49902
c36 3.33301 68.667 7.66602 98 12.999v-166c-34 -12.667 -71 -24 -111 -34c-34 -8.66699 -73.667 -16.5 -119 -23.5s-93.666 -10.5 -144.999 -10.5c-78.667 0 -148.667 9.83301 -210 29.5s-113.166 52 -155.499 97s-74.666 103.833 -96.999 176.5s-33.5 161.667 -33.5 267z
M792.994 611.996l0.000976562 38.001c0 40 -2.5 74.833 -7.5 104.5s-15.167 54.167 -30.5 73.5s-37 33.666 -65 42.999s-65.333 14 -112 14c-50 0 -90.833 -5.83301 -122.5 -17.5s-56.334 -29 -74.001 -52s-29.667 -51.5 -36 -85.5s-9.5 -73.333 -9.5 -118h457z
M187.697 1174.1c0 28.2002 1.9502 51.1504 5.85059 68.8506c3.89941 17.7002 11.0996 31.6504 21.6006 41.8506c10.5 10.2002 24.6006 17.1006 42.3008 20.7012s40.0508 5.40039 67.0518 5.40039c27.6006 0 50.4014 -1.7998 68.4023 -5.40039
s32.1016 -10.501 42.3018 -20.7012s17.4004 -24.1504 21.6006 -41.8506s6.30078 -40.6504 6.30078 -68.8506c0 -27.6006 -2.10059 -50.251 -6.30078 -67.9512s-11.4004 -31.8008 -21.6006 -42.3008c-10.2002 -10.501 -24.3008 -17.7012 -42.3018 -21.6006
c-18.001 -3.90039 -40.8018 -5.85059 -68.4023 -5.85059c-27.001 0 -49.3516 1.9502 -67.0518 5.85059c-17.7002 3.89941 -31.8008 11.0996 -42.3008 21.6006c-10.501 10.5 -17.7012 24.6006 -21.6006 42.3008c-3.90039 17.7002 -5.85059 40.3506 -5.85059 67.9512z
M611.697 1174.1c0 28.2002 1.9502 51.1504 5.85059 68.8506c3.89941 17.7002 11.0996 31.6504 21.6006 41.8506c10.5 10.2002 24.6006 17.1006 42.3008 20.7012s40.0508 5.40039 67.0518 5.40039c27.6006 0 50.4014 -1.7998 68.4023 -5.40039
s32.1016 -10.501 42.3018 -20.7012s17.4004 -24.1504 21.6006 -41.8506s6.30078 -40.6504 6.30078 -68.8506c0 -27.6006 -2.10059 -50.251 -6.30078 -67.9512s-11.4004 -31.8008 -21.6006 -42.3008c-10.2002 -10.501 -24.3008 -17.7012 -42.3018 -21.6006
c-18.001 -3.90039 -40.8018 -5.85059 -68.4023 -5.85059c-27.001 0 -49.3516 1.9502 -67.0518 5.85059c-17.7002 3.89941 -31.8008 11.0996 -42.3008 21.6006c-10.501 10.5 -17.7012 24.6006 -21.6006 42.3008c-3.90039 17.7002 -5.85059 40.3506 -5.85059 67.9512z" />
    <glyph glyph-name="igrave" unicode="&#xec;" horiz-adv-x="616" 
d="M197 1055h238v-1055h-238v1055zM431 1151l-142 86.999l-57 36l-55.5 34.5c-17.667 11 -33.5 21.333 -47.5 31s-25.333 17.834 -34 24.501c-32.667 24.667 -56.5 45.667 -71.5 63s-22.5 34.333 -22.5 51c0 11.333 3.16699 23 9.5 35s15.833 25.667 28.5 41
c11.333 14.667 23 27.5 35 38.5s22.667 20.167 32 27.5c11.333 8.66699 22 16 32 22l393 -368l-100 -123v0z" />
    <glyph glyph-name="iacute" unicode="&#xed;" horiz-adv-x="633" 
d="M194 1055h238v-1055h-238v1055zM85 1264l407.997 382.998c8.66699 -4.66699 18.334 -11 29.001 -19c9.33301 -7.33301 19.833 -16.666 31.5 -27.999s24.834 -25.666 39.501 -42.999c12.667 -15.333 22.334 -29.333 29.001 -42s10 -24.667 10 -36
c0 -16.667 -7.5 -33.5 -22.5 -50.5s-39.5 -37.833 -73.5 -62.5l-36 -25l-49 -33l-57 -37.5l-59 -38.5l-147 -95z" />
    <glyph glyph-name="icircumflex" unicode="&#xee;" horiz-adv-x="610" 
d="M92 1107l-116.994 57l101 252c11.333 28 24.166 50.833 38.499 68.5s30.666 31.334 48.999 41.001s39.166 16.334 62.499 20.001s49.666 5.5 78.999 5.5s55.666 -1.83301 78.999 -5.5s44.166 -10.334 62.499 -20.001s34.833 -23.334 49.5 -41.001s27.667 -40.5 39 -68.5
l100 -252l-117 -57l-213 309zM186.006 1055h238v-1055h-238v1055z" />
    <glyph glyph-name="idieresis" unicode="&#xef;" horiz-adv-x="606" 
d="M188 1055h238v-1055h-238v1055zM-50 1303c0 28 1.83301 50.833 5.5 68.5s10.834 31.667 21.501 42s24.834 17.333 42.501 21s39.834 5.5 66.501 5.5c28 0 51 -1.83301 69 -5.5s32 -10.667 42 -21s17.167 -24.333 21.5 -42s6.5 -40.5 6.5 -68.5
c0 -27.333 -2.16699 -49.833 -6.5 -67.5s-11.5 -31.834 -21.5 -42.501s-24 -18 -42 -22s-41 -6 -69 -6c-26.667 0 -48.834 2 -66.501 6s-31.834 11.333 -42.501 22s-17.834 24.834 -21.501 42.501s-5.5 40.167 -5.5 67.5zM381 1303c0 28 1.83301 50.833 5.5 68.5
s10.834 31.667 21.501 42s24.834 17.333 42.501 21s39.834 5.5 66.501 5.5c28 0 51 -1.83301 69 -5.5s32 -10.667 42 -21s17.167 -24.333 21.5 -42s6.5 -40.5 6.5 -68.5c0 -27.333 -2.16699 -49.833 -6.5 -67.5s-11.5 -31.834 -21.5 -42.501s-24 -18 -42 -22s-41 -6 -69 -6
c-26.667 0 -48.834 2 -66.501 6s-31.834 11.333 -42.501 22s-17.834 24.834 -21.501 42.501s-5.5 40.167 -5.5 67.5z" />
    <glyph glyph-name="eth" unicode="&#xf0;" horiz-adv-x="1173" 
d="M111 476c0 89.333 8.33398 162.999 25.001 220.999s40 103.833 70 137.5s66.167 57.167 108.5 70.5s89.166 20 140.499 20c25.333 0 52.5 -1.66699 81.5 -5s58.5 -8.33301 88.5 -15s59.833 -15 89.5 -25s58.5 -21.667 86.5 -35c0 70.667 -13.333 135.5 -40 194.5
s-62 111.5 -106 157.5l-198 -174l-99 145l158 138c-42.667 25.333 -86.667 45 -132 59s-90 22.667 -134 26l24 173c83.333 -4.66699 158.5 -16.667 225.5 -36s127.5 -45 181.5 -77l196 171l97 -143l-153 -135c38 -38.667 70.667 -80.667 98 -126
s49.833 -92.666 67.5 -141.999s30.667 -100.333 39 -153s12.5 -105.667 12.5 -159v-350c0 -80.667 -10.667 -149.167 -32 -205.5s-51.833 -102.333 -91.5 -138s-87.5 -61.5 -143.5 -77.5s-118.333 -24 -187 -24c-83.333 0 -154.833 10 -214.5 30s-108.667 50.667 -147 92
s-66.5 94 -84.5 158s-27 139.667 -27 227zM358.001 484.999c0 -48 3.49902 -90 10.499 -126s19 -66.167 36 -90.5s40 -42.666 69 -54.999s65.833 -18.5 110.5 -18.5c45.333 0 82.166 5 110.499 15s50.333 25.5 66 46.5s26.334 47.667 32.001 80s8.5 71.166 8.5 116.499v218
c0.666992 0 -5 2 -17 6s-28.167 8.5 -48.5 13.5s-43.666 9.5 -69.999 13.5s-53.5 6 -81.5 6c-41.333 0 -76.333 -2 -105 -6s-52 -13.667 -70 -29s-31 -37.833 -39 -67.5s-12 -70.5 -12 -122.5z" />
    <glyph glyph-name="ntilde" unicode="&#xf1;" horiz-adv-x="1243" 
d="M166 1055l174 0.000976562l29 -78c36.667 20 76.667 38 120 54c37.333 13.333 80.333 25.666 129 36.999s100.667 17 156 17c104 0 180.833 -27.167 230.5 -81.5s74.5 -139.5 74.5 -255.5v-748h-237v719c0 27.333 -1.83301 50.833 -5.5 70.5s-11.5 35.667 -23.5 48
s-29.333 21.5 -52 27.5s-53 9 -91 9c-40 0 -76.333 -2.5 -109 -7.5s-60.667 -10.167 -84 -15.5c-27.333 -6.66699 -52 -14 -74 -22v-829h-237v1055zM223 1266c2.66699 22 9.82715 45.3311 21.4941 69.998s27.834 47.5 48.501 68.5s45.334 38.667 74.001 53
s61.334 22.166 98.001 23.499c24.667 0.666992 47.667 -1.83301 69 -7.5s41.666 -12.667 60.999 -21s37.833 -17.666 55.5 -27.999s34.834 -19.666 51.501 -27.999s33.334 -15.333 50.001 -21s33.667 -8.16699 51 -7.5c21.333 1.33301 39.833 6.66602 55.5 15.999
s28.834 19.666 39.501 30.999c12 12.667 22.667 27.667 32 45l109 -69c-2.66699 -22 -10.167 -45.333 -22.5 -70s-28.666 -47.5 -48.999 -68.5s-44.833 -38.667 -73.5 -53s-61 -22.166 -97 -23.499s-69.667 3.83398 -101 15.501s-60.833 24.834 -88.5 39.501l-78.5 40
c-24.667 12 -48 17.667 -70 17c-22 -1.33301 -41 -6.83301 -57 -16.5s-29.333 -20.167 -40 -31.5c-12 -13.333 -22 -28 -30 -44z" />
    <glyph glyph-name="ograve" unicode="&#xf2;" horiz-adv-x="1188" 
d="M94 528c0 89.333 9.66699 168.5 29 237.5s49.5 127.167 90.5 174.5s92.833 83.333 155.5 108s137.667 37 225 37s162.5 -12.333 225.5 -37s114.833 -60.667 155.5 -108s70.667 -105.5 90 -174.5s29 -148.167 29 -237.5s-9.66699 -168.833 -29 -238.5
s-49.333 -128.167 -90 -175.5s-92.5 -83.333 -155.5 -108s-138.167 -37 -225.5 -37s-162.333 12.333 -225 37s-114.5 60.667 -155.5 108s-71.167 105.833 -90.5 175.5s-29 149.167 -29 238.5zM594 170c52.667 0 95.334 7.83301 128.001 23.5s58 38.667 76 69
s30.167 67.666 36.5 111.999s9.5 95.5 9.5 153.5c0 57.333 -3.16699 108.166 -9.5 152.499s-18.5 81.666 -36.5 111.999s-43.333 53.333 -76 69s-75.334 23.5 -128.001 23.5c-52 0 -94.333 -7.83301 -127 -23.5s-58.167 -38.667 -76.5 -69s-30.666 -67.666 -36.999 -111.999
s-9.5 -95.166 -9.5 -152.499c0 -58 3.16699 -109.167 9.5 -153.5s18.666 -81.666 36.999 -111.999s43.833 -53.333 76.5 -69s75 -23.5 127 -23.5zM750 1151l-142 86.999l-57 36l-55.5 34.5c-17.667 11 -33.5 21.333 -47.5 31s-25.333 17.834 -34 24.501
c-32.667 24.667 -56.5 45.667 -71.5 63s-22.5 34.333 -22.5 51c0 11.333 3.16699 23 9.5 35s15.833 25.667 28.5 41c11.333 14.667 23 27.5 35 38.5s22.667 20.167 32 27.5c11.333 8.66699 22 16 32 22l393 -368l-100 -123v0z" />
    <glyph glyph-name="oacute" unicode="&#xf3;" horiz-adv-x="1188" 
d="M94 528c0 89.333 9.66699 168.5 29 237.5s49.5 127.167 90.5 174.5s92.833 83.333 155.5 108s137.667 37 225 37s162.5 -12.333 225.5 -37s114.833 -60.667 155.5 -108s70.667 -105.5 90 -174.5s29 -148.167 29 -237.5s-9.66699 -168.833 -29 -238.5
s-49.333 -128.167 -90 -175.5s-92.5 -83.333 -155.5 -108s-138.167 -37 -225.5 -37s-162.333 12.333 -225 37s-114.5 60.667 -155.5 108s-71.167 105.833 -90.5 175.5s-29 149.167 -29 238.5zM594 170c52.667 0 95.334 7.83301 128.001 23.5s58 38.667 76 69
s30.167 67.666 36.5 111.999s9.5 95.5 9.5 153.5c0 57.333 -3.16699 108.166 -9.5 152.499s-18.5 81.666 -36.5 111.999s-43.333 53.333 -76 69s-75.334 23.5 -128.001 23.5c-52 0 -94.333 -7.83301 -127 -23.5s-58.167 -38.667 -76.5 -69s-30.666 -67.666 -36.999 -111.999
s-9.5 -95.166 -9.5 -152.499c0 -58 3.16699 -109.167 9.5 -153.5s18.666 -81.666 36.999 -111.999s43.833 -53.333 76.5 -69s75 -23.5 127 -23.5zM309 1278l407.997 382.998c8.66699 -4.66699 18.334 -11 29.001 -19c9.33301 -7.33301 19.833 -16.666 31.5 -27.999
s24.834 -25.666 39.501 -42.999c12.667 -15.333 22.334 -29.333 29.001 -42s10 -24.667 10 -36c0 -16.667 -7.5 -33.5 -22.5 -50.5s-39.5 -37.833 -73.5 -62.5l-36 -25l-49 -33l-57 -37.5l-59 -38.5l-147 -95z" />
    <glyph glyph-name="ocircumflex" unicode="&#xf4;" horiz-adv-x="1188" 
d="M94 528c0 89.333 9.66699 168.5 29 237.5s49.5 127.167 90.5 174.5s92.833 83.333 155.5 108s137.667 37 225 37s162.5 -12.333 225.5 -37s114.833 -60.667 155.5 -108s70.667 -105.5 90 -174.5s29 -148.167 29 -237.5s-9.66699 -168.833 -29 -238.5
s-49.333 -128.167 -90 -175.5s-92.5 -83.333 -155.5 -108s-138.167 -37 -225.5 -37s-162.333 12.333 -225 37s-114.5 60.667 -155.5 108s-71.167 105.833 -90.5 175.5s-29 149.167 -29 238.5zM594 170c52.667 0 95.334 7.83301 128.001 23.5s58 38.667 76 69
s30.167 67.666 36.5 111.999s9.5 95.5 9.5 153.5c0 57.333 -3.16699 108.166 -9.5 152.499s-18.5 81.666 -36.5 111.999s-43.333 53.333 -76 69s-75.334 23.5 -128.001 23.5c-52 0 -94.333 -7.83301 -127 -23.5s-58.167 -38.667 -76.5 -69s-30.666 -67.666 -36.999 -111.999
s-9.5 -95.166 -9.5 -152.499c0 -58 3.16699 -109.167 9.5 -153.5s18.666 -81.666 36.999 -111.999s43.833 -53.333 76.5 -69s75 -23.5 127 -23.5zM211 1184l153.998 276c14.667 26.667 29.334 48.667 44.001 66s30.834 31.166 48.501 41.499s37.5 17.5 59.5 21.5
s47.667 6 77 6s55 -2 77 -6s41.833 -11.167 59.5 -21.5s34 -24.166 49 -41.499s29.833 -39.333 44.5 -66l153 -276l-113 -74l-270 327l-270 -327z" />
    <glyph glyph-name="otilde" unicode="&#xf5;" horiz-adv-x="1188" 
d="M94 528c0 89.333 9.66699 168.5 29 237.5s49.5 127.167 90.5 174.5s92.833 83.333 155.5 108s137.667 37 225 37s162.5 -12.333 225.5 -37s114.833 -60.667 155.5 -108s70.667 -105.5 90 -174.5s29 -148.167 29 -237.5s-9.66699 -168.833 -29 -238.5
s-49.333 -128.167 -90 -175.5s-92.5 -83.333 -155.5 -108s-138.167 -37 -225.5 -37s-162.333 12.333 -225 37s-114.5 60.667 -155.5 108s-71.167 105.833 -90.5 175.5s-29 149.167 -29 238.5zM594 170c52.667 0 95.334 7.83301 128.001 23.5s58 38.667 76 69
s30.167 67.666 36.5 111.999s9.5 95.5 9.5 153.5c0 57.333 -3.16699 108.166 -9.5 152.499s-18.5 81.666 -36.5 111.999s-43.333 53.333 -76 69s-75.334 23.5 -128.001 23.5c-52 0 -94.333 -7.83301 -127 -23.5s-58.167 -38.667 -76.5 -69s-30.666 -67.666 -36.999 -111.999
s-9.5 -95.166 -9.5 -152.499c0 -58 3.16699 -109.167 9.5 -153.5s18.666 -81.666 36.999 -111.999s43.833 -53.333 76.5 -69s75 -23.5 127 -23.5zM186 1264c2.66699 22 9.82715 45.3311 21.4941 69.998s27.834 47.5 48.501 68.5s45.334 38.667 74.001 53
s61.334 22.166 98.001 23.499c24.667 0.666992 47.667 -1.83301 69 -7.5s41.666 -12.667 60.999 -21s37.833 -17.666 55.5 -27.999s34.834 -19.666 51.501 -27.999s33.334 -15.333 50.001 -21s33.667 -8.16699 51 -7.5c21.333 1.33301 39.833 6.66602 55.5 15.999
s28.834 19.666 39.501 30.999c12 12.667 22.667 27.667 32 45l109 -69c-2.66699 -22 -10.167 -45.333 -22.5 -70s-28.666 -47.5 -48.999 -68.5s-44.833 -38.667 -73.5 -53s-61 -22.166 -97 -23.499s-69.667 3.83398 -101 15.501s-60.833 24.834 -88.5 39.501l-78.5 40
c-24.667 12 -48 17.667 -70 17c-22 -1.33301 -41 -6.83301 -57 -16.5s-29.333 -20.167 -40 -31.5c-12 -13.333 -22 -28 -30 -44z" />
    <glyph glyph-name="odieresis" unicode="&#xf6;" horiz-adv-x="1188" 
d="M94 528c0 89.333 9.66699 168.5 29 237.5s49.5 127.167 90.5 174.5s92.833 83.333 155.5 108s137.667 37 225 37s162.5 -12.333 225.5 -37s114.833 -60.667 155.5 -108s70.667 -105.5 90 -174.5s29 -148.167 29 -237.5s-9.66699 -168.833 -29 -238.5
s-49.333 -128.167 -90 -175.5s-92.5 -83.333 -155.5 -108s-138.167 -37 -225.5 -37s-162.333 12.333 -225 37s-114.5 60.667 -155.5 108s-71.167 105.833 -90.5 175.5s-29 149.167 -29 238.5zM594 170c52.667 0 95.334 7.83301 128.001 23.5s58 38.667 76 69
s30.167 67.666 36.5 111.999s9.5 95.5 9.5 153.5c0 57.333 -3.16699 108.166 -9.5 152.499s-18.5 81.666 -36.5 111.999s-43.333 53.333 -76 69s-75.334 23.5 -128.001 23.5c-52 0 -94.333 -7.83301 -127 -23.5s-58.167 -38.667 -76.5 -69s-30.666 -67.666 -36.999 -111.999
s-9.5 -95.166 -9.5 -152.499c0 -58 3.16699 -109.167 9.5 -153.5s18.666 -81.666 36.999 -111.999s43.833 -53.333 76.5 -69s75 -23.5 127 -23.5zM209.702 1200.1c0 28.2002 1.9502 51.1504 5.85059 68.8506c3.89941 17.7002 11.0996 31.6504 21.6006 41.8506
c10.5 10.2002 24.6006 17.1006 42.3008 20.7012s40.0508 5.40039 67.0518 5.40039c27.6006 0 50.4014 -1.7998 68.4023 -5.40039s32.1016 -10.501 42.3018 -20.7012s17.4004 -24.1504 21.6006 -41.8506s6.30078 -40.6504 6.30078 -68.8506
c0 -27.6006 -2.10059 -50.251 -6.30078 -67.9512s-11.4004 -31.8008 -21.6006 -42.3008c-10.2002 -10.501 -24.3008 -17.7012 -42.3018 -21.6006c-18.001 -3.90039 -40.8018 -5.85059 -68.4023 -5.85059c-27.001 0 -49.3516 1.9502 -67.0518 5.85059
c-17.7002 3.89941 -31.8008 11.0996 -42.3008 21.6006c-10.501 10.5 -17.7012 24.6006 -21.6006 42.3008c-3.90039 17.7002 -5.85059 40.3506 -5.85059 67.9512zM633.702 1200.1c0 28.2002 1.9502 51.1504 5.85059 68.8506c3.89941 17.7002 11.0996 31.6504 21.6006 41.8506
c10.5 10.2002 24.6006 17.1006 42.3008 20.7012s40.0508 5.40039 67.0518 5.40039c27.6006 0 50.4014 -1.7998 68.4023 -5.40039s32.1016 -10.501 42.3018 -20.7012s17.4004 -24.1504 21.6006 -41.8506s6.30078 -40.6504 6.30078 -68.8506
c0 -27.6006 -2.10059 -50.251 -6.30078 -67.9512s-11.4004 -31.8008 -21.6006 -42.3008c-10.2002 -10.501 -24.3008 -17.7012 -42.3018 -21.6006c-18.001 -3.90039 -40.8018 -5.85059 -68.4023 -5.85059c-27.001 0 -49.3516 1.9502 -67.0518 5.85059
c-17.7002 3.89941 -31.8008 11.0996 -42.3008 21.6006c-10.501 10.5 -17.7012 24.6006 -21.6006 42.3008c-3.90039 17.7002 -5.85059 40.3506 -5.85059 67.9512z" />
    <glyph glyph-name="divide" unicode="&#xf7;" horiz-adv-x="1124" 
d="M562 850c-30 0 -54.5 2.16699 -73.5 6.5s-34.167 12.166 -45.5 23.499s-19.166 26.666 -23.499 45.999s-6.5 43.666 -6.5 72.999s2.16699 53.5 6.5 72.5s12.166 34.167 23.499 45.5s26.5 19.166 45.5 23.499s43.5 6.5 73.5 6.5c29.333 0 53.5 -2.16699 72.5 -6.5
s34.167 -12.166 45.5 -23.499s19.166 -26.5 23.499 -45.5s6.5 -43.167 6.5 -72.5s-2.16699 -53.666 -6.5 -72.999s-12.166 -34.666 -23.499 -45.999s-26.5 -19.166 -45.5 -23.499s-43.167 -6.5 -72.5 -6.5zM60 733h1004v-194h-1004v194zM413 272c0 30 2.16699 54.667 6.5 74
s12.166 34.666 23.499 45.999s26.5 19.166 45.5 23.499s43.5 6.5 73.5 6.5c29.333 0 53.5 -2.16699 72.5 -6.5s34.167 -12.166 45.5 -23.499s19.166 -26.666 23.499 -45.999s6.5 -44 6.5 -74c0 -29.333 -2.16699 -53.333 -6.5 -72s-12.166 -33.667 -23.499 -45
s-26.5 -19.166 -45.5 -23.499s-43.167 -6.5 -72.5 -6.5c-30 0 -54.5 2.16699 -73.5 6.5s-34.167 12.166 -45.5 23.499s-19.166 26.333 -23.499 45s-6.5 42.667 -6.5 72z" />
    <glyph glyph-name="oslash" unicode="&#xf8;" horiz-adv-x="1200" 
d="M280 53c-64.667 46 -111.833 108.667 -141.5 188s-44.5 175 -44.5 287c0 89.333 9.66699 168.5 29 237.5s49.5 127.167 90.5 174.5s92.833 83.333 155.5 108s137.667 37 225 37c38 0 73.667 -2.33301 107 -7s64.333 -11.667 93 -21l91 176h159l-124 -241
c60 -46 104 -108 132 -186s42 -170.667 42 -278c0 -89.333 -9.66699 -168.833 -29 -238.5s-49.333 -128.167 -90 -175.5s-92.5 -83.333 -155.5 -108s-138.167 -37 -225.5 -37c-70 0 -132 8 -186 24l-85 -165h-159zM699.001 870c-29.333 10 -64.333 14.999 -105 14.999
c-52 0 -94.333 -7.83301 -127 -23.5s-58.167 -38.667 -76.5 -69s-30.666 -67.666 -36.999 -111.999s-9.5 -95.166 -9.5 -152.499s3.16699 -107.833 9.5 -151.5s18.166 -80.834 35.499 -111.501zM504.001 179.999c24.667 -6.66699 54.666 -9.99902 89.999 -9.99902
c52.667 0 95.334 7.83301 128.001 23.5s58 38.667 76 69s30.167 67.666 36.5 111.999s9.5 95.5 9.5 153.5c0 52 -2.5 98.333 -7.5 139s-14.5 76 -28.5 106z" />
    <glyph glyph-name="ugrave" unicode="&#xf9;" horiz-adv-x="1245" 
d="M166 1055l236.999 -0.000976562v-719c0 -28 1.83301 -51.667 5.5 -71s11.5 -35.166 23.5 -47.499s29.333 -21.333 52 -27s53 -8.5 91 -8.5c40 0 76.333 2.16699 109 6.5s60.667 9.16602 84 14.499c27.333 6.66699 52 14 74 22v830h237v-1055h-174l-28 78
c-37.333 -20.667 -77.666 -39 -120.999 -55c-37.333 -13.333 -80.5 -25.666 -129.5 -36.999s-100.833 -17 -155.5 -17c-103.333 0 -180 27.5 -230 82.5s-75 140.833 -75 257.5v746zM745.999 1111l-142 86.999l-57 36l-55.5 34.5c-17.667 11 -33.5 21.333 -47.5 31
s-25.333 17.834 -34 24.501c-32.667 24.667 -56.5 45.667 -71.5 63s-22.5 34.333 -22.5 51c0 11.333 3.16699 23 9.5 35s15.833 25.667 28.5 41c11.333 14.667 23 27.5 35 38.5s22.667 20.167 32 27.5c11.333 8.66699 22 16 32 22l393 -368l-100 -123v0z" />
    <glyph glyph-name="uacute" unicode="&#xfa;" horiz-adv-x="1245" 
d="M166 1055l236.999 -0.000976562v-719c0 -28 1.83301 -51.667 5.5 -71s11.5 -35.166 23.5 -47.499s29.333 -21.333 52 -27s53 -8.5 91 -8.5c40 0 76.333 2.16699 109 6.5s60.667 9.16602 84 14.499c27.333 6.66699 52 14 74 22v830h237v-1055h-174l-28 78
c-37.333 -20.667 -77.666 -39 -120.999 -55c-37.333 -13.333 -80.5 -25.666 -129.5 -36.999s-100.833 -17 -155.5 -17c-103.333 0 -180 27.5 -230 82.5s-75 140.833 -75 257.5v746zM420.999 1238l407.997 382.998c8.66699 -4.66699 18.334 -11 29.001 -19
c9.33301 -7.33301 19.833 -16.666 31.5 -27.999s24.834 -25.666 39.501 -42.999c12.667 -15.333 22.334 -29.333 29.001 -42s10 -24.667 10 -36c0 -16.667 -7.5 -33.5 -22.5 -50.5s-39.5 -37.833 -73.5 -62.5l-36 -25l-49 -33l-57 -37.5l-59 -38.5l-147 -95z" />
    <glyph glyph-name="ucircumflex" unicode="&#xfb;" horiz-adv-x="1245" 
d="M166 1055l236.999 -0.000976562v-719c0 -28 1.83301 -51.667 5.5 -71s11.5 -35.166 23.5 -47.499s29.333 -21.333 52 -27s53 -8.5 91 -8.5c40 0 76.333 2.16699 109 6.5s60.667 9.16602 84 14.499c27.333 6.66699 52 14 74 22v830h237v-1055h-174l-28 78
c-37.333 -20.667 -77.666 -39 -120.999 -55c-37.333 -13.333 -80.5 -25.666 -129.5 -36.999s-100.833 -17 -155.5 -17c-103.333 0 -180 27.5 -230 82.5s-75 140.833 -75 257.5v746zM238.999 1194l153.998 276c14.667 26.667 29.334 48.667 44.001 66
s30.834 31.166 48.501 41.499s37.5 17.5 59.5 21.5s47.667 6 77 6s55 -2 77 -6s41.833 -11.167 59.5 -21.5s34 -24.166 49 -41.499s29.833 -39.333 44.5 -66l153 -276l-113 -74l-270 327l-270 -327z" />
    <glyph glyph-name="udieresis" unicode="&#xfc;" horiz-adv-x="1245" 
d="M166 1055l236.999 -0.000976562v-719c0 -28 1.83301 -51.667 5.5 -71s11.5 -35.166 23.5 -47.499s29.333 -21.333 52 -27s53 -8.5 91 -8.5c40 0 76.333 2.16699 109 6.5s60.667 9.16602 84 14.499c27.333 6.66699 52 14 74 22v830h237v-1055h-174l-28 78
c-37.333 -20.667 -77.666 -39 -120.999 -55c-37.333 -13.333 -80.5 -25.666 -129.5 -36.999s-100.833 -17 -155.5 -17c-103.333 0 -180 27.5 -230 82.5s-75 140.833 -75 257.5v746zM244.701 1200.1c0 28.2002 1.9502 51.1504 5.85059 68.8506
c3.89941 17.7002 11.0996 31.6504 21.6006 41.8506c10.5 10.2002 24.6006 17.1006 42.3008 20.7012s40.0508 5.40039 67.0518 5.40039c27.6006 0 50.4014 -1.7998 68.4023 -5.40039s32.1016 -10.501 42.3018 -20.7012s17.4004 -24.1504 21.6006 -41.8506
s6.30078 -40.6504 6.30078 -68.8506c0 -27.6006 -2.10059 -50.251 -6.30078 -67.9512s-11.4004 -31.8008 -21.6006 -42.3008c-10.2002 -10.501 -24.3008 -17.7012 -42.3018 -21.6006c-18.001 -3.90039 -40.8018 -5.85059 -68.4023 -5.85059
c-27.001 0 -49.3516 1.9502 -67.0518 5.85059c-17.7002 3.89941 -31.8008 11.0996 -42.3008 21.6006c-10.501 10.5 -17.7012 24.6006 -21.6006 42.3008c-3.90039 17.7002 -5.85059 40.3506 -5.85059 67.9512zM668.701 1200.1c0 28.2002 1.9502 51.1504 5.85059 68.8506
c3.89941 17.7002 11.0996 31.6504 21.6006 41.8506c10.5 10.2002 24.6006 17.1006 42.3008 20.7012s40.0508 5.40039 67.0518 5.40039c27.6006 0 50.4014 -1.7998 68.4023 -5.40039s32.1016 -10.501 42.3018 -20.7012s17.4004 -24.1504 21.6006 -41.8506
s6.30078 -40.6504 6.30078 -68.8506c0 -27.6006 -2.10059 -50.251 -6.30078 -67.9512s-11.4004 -31.8008 -21.6006 -42.3008c-10.2002 -10.501 -24.3008 -17.7012 -42.3018 -21.6006c-18.001 -3.90039 -40.8018 -5.85059 -68.4023 -5.85059
c-27.001 0 -49.3516 1.9502 -67.0518 5.85059c-17.7002 3.89941 -31.8008 11.0996 -42.3008 21.6006c-10.501 10.5 -17.7012 24.6006 -21.6006 42.3008c-3.90039 17.7002 -5.85059 40.3506 -5.85059 67.9512z" />
    <glyph glyph-name="yacute" unicode="&#xfd;" horiz-adv-x="1089" 
d="M127 -301c9.33301 -1.33301 20.001 -2.33398 32.001 -3.00098c20.667 -2 51.667 -3 93 -3c22.667 0 42.5 2.33301 59.5 7s31.667 12.334 44 23.001s23.333 24 33 40s18.834 35.667 27.501 59l65 178h-102l-367 1055h264l271 -846h8l272 846h262l-452 -1274
c-18.667 -52 -37.834 -95.833 -57.501 -131.5s-41 -64.5 -64 -86.5s-48 -38 -75 -48s-56.5 -15 -88.5 -15c-36.667 0 -68.834 1.66699 -96.501 5s-51.167 7.33301 -70.5 12c-22 5.33301 -41.333 11.333 -58 18v164v0zM368.001 1238l407.997 382.998
c8.66699 -4.66699 18.334 -11 29.001 -19c9.33301 -7.33301 19.833 -16.666 31.5 -27.999s24.834 -25.666 39.501 -42.999c12.667 -15.333 22.334 -29.333 29.001 -42s10 -24.667 10 -36c0 -16.667 -7.5 -33.5 -22.5 -50.5s-39.5 -37.833 -73.5 -62.5l-36 -25l-49 -33
l-57 -37.5l-59 -38.5l-147 -95z" />
    <glyph glyph-name="thorn" unicode="&#xfe;" horiz-adv-x="1228" 
d="M403 -485l-237 0.00195312v2039h237v-544c31.333 13.333 65.333 25.666 102 36.999c32 9.33301 69.333 18 112 26s89 12 139 12c70.667 0 129.167 -12.5 175.5 -37.5s83.166 -61.333 110.499 -109s46.5 -105.667 57.5 -174s16.5 -145.833 16.5 -232.5
c0 -104 -8.33301 -191.667 -25 -263s-40.667 -129.333 -72 -174s-70.166 -76.834 -116.499 -96.501s-98.833 -29.5 -157.5 -29.5c-40.667 0 -79.167 4 -115.5 12s-69.333 17.5 -99 28.5s-55.5 22.333 -77.5 34s-38.667 21.167 -50 28.5v-557zM403 238.002
c21.333 -10.667 45.6689 -20.002 73.002 -28.002c23.333 -7.33301 51.333 -13.833 84 -19.5s69.334 -8.5 110.001 -8.5c40 0 72.667 5.83301 98 17.5s45.166 30.667 59.499 57s24.333 61 30 104s8.5 96.167 8.5 159.5c0 70.667 -2.33301 128.834 -7 174.501
s-14.5 81.834 -29.5 108.501s-37 45.167 -66 55.5s-67.833 15.5 -116.5 15.5c-30.667 0 -60.334 -2 -89.001 -6s-54.667 -8.33301 -78 -13c-26.667 -6 -52.334 -12.333 -77.001 -19v-598z" />
    <glyph glyph-name="ydieresis" unicode="&#xff;" horiz-adv-x="1089" 
d="M127 -301c9.33301 -1.33301 20.001 -2.33398 32.001 -3.00098c20.667 -2 51.667 -3 93 -3c22.667 0 42.5 2.33301 59.5 7s31.667 12.334 44 23.001s23.333 24 33 40s18.834 35.667 27.501 59l65 178h-102l-367 1055h264l271 -846h8l272 846h262l-452 -1274
c-18.667 -52 -37.834 -95.833 -57.501 -131.5s-41 -64.5 -64 -86.5s-48 -38 -75 -48s-56.5 -15 -88.5 -15c-36.667 0 -68.834 1.66699 -96.501 5s-51.167 7.33301 -70.5 12c-22 5.33301 -41.333 11.333 -58 18v164v0zM176.703 1218.1
c0 28.2002 1.9502 51.1504 5.85059 68.8506c3.89941 17.7002 11.0996 31.6504 21.6006 41.8506c10.5 10.2002 24.6006 17.1006 42.3008 20.7012s40.0508 5.40039 67.0518 5.40039c27.6006 0 50.4014 -1.7998 68.4023 -5.40039s32.1016 -10.501 42.3018 -20.7012
s17.4004 -24.1504 21.6006 -41.8506s6.30078 -40.6504 6.30078 -68.8506c0 -27.6006 -2.10059 -50.251 -6.30078 -67.9512s-11.4004 -31.8008 -21.6006 -42.3008c-10.2002 -10.501 -24.3008 -17.7012 -42.3018 -21.6006
c-18.001 -3.90039 -40.8018 -5.85059 -68.4023 -5.85059c-27.001 0 -49.3516 1.9502 -67.0518 5.85059c-17.7002 3.89941 -31.8008 11.0996 -42.3008 21.6006c-10.501 10.5 -17.7012 24.6006 -21.6006 42.3008c-3.90039 17.7002 -5.85059 40.3506 -5.85059 67.9512z
M600.703 1218.1c0 28.2002 1.9502 51.1504 5.85059 68.8506c3.89941 17.7002 11.0996 31.6504 21.6006 41.8506c10.5 10.2002 24.6006 17.1006 42.3008 20.7012s40.0508 5.40039 67.0518 5.40039c27.6006 0 50.4014 -1.7998 68.4023 -5.40039
s32.1016 -10.501 42.3018 -20.7012s17.4004 -24.1504 21.6006 -41.8506s6.30078 -40.6504 6.30078 -68.8506c0 -27.6006 -2.10059 -50.251 -6.30078 -67.9512s-11.4004 -31.8008 -21.6006 -42.3008c-10.2002 -10.501 -24.3008 -17.7012 -42.3018 -21.6006
c-18.001 -3.90039 -40.8018 -5.85059 -68.4023 -5.85059c-27.001 0 -49.3516 1.9502 -67.0518 5.85059c-17.7002 3.89941 -31.8008 11.0996 -42.3008 21.6006c-10.501 10.5 -17.7012 24.6006 -21.6006 42.3008c-3.90039 17.7002 -5.85059 40.3506 -5.85059 67.9512z" />
    <glyph glyph-name="Amacron" unicode="&#x100;" 
d="M477 1427h318l467 -1427h-265l-120 387h-486l-115 -387h-262zM811 602l-176 604h-4l-176 -604h356zM284 1753h705v-196h-705v196z" />
    <glyph glyph-name="amacron" unicode="&#x101;" horiz-adv-x="1180" 
d="M127 299c0 60 8.83008 110.666 26.4971 151.999s41.667 74.666 72 99.999s66 43.666 107 54.999s85.167 17 132.5 17c48 0 91.5 -2.66699 130.5 -8s72.833 -11.333 101.5 -18c32.667 -7.33301 62.334 -15.666 89.001 -24.999v98c0 24.667 -0.833008 45.5 -2.5 62.5
s-4.5 31.833 -8.5 44.5s-9.5 23.334 -16.5 32.001s-15.5 17 -25.5 25c-21.333 15.333 -50.666 26.333 -87.999 33s-86 10 -146 10c-38 0 -74.833 -1.16699 -110.5 -3.5s-67.5 -5.16602 -95.5 -8.49902c-32.667 -3.33301 -63.667 -7 -93 -11v166
c26.667 10.667 59.667 20.334 99 29.001c33.333 7.33301 75 14.166 125 20.499s109.333 9.5 178 9.5c46 0 86.833 -1.83301 122.5 -5.5s67.167 -9.83398 94.5 -18.501s51.5 -20 72.5 -34s39.833 -31.333 56.5 -52c14 -17.333 25.667 -35.666 35 -54.999s17 -42 23 -68
s10.167 -55.833 12.5 -89.5s3.5 -72.834 3.5 -117.501v-639h-201l-18 78c-29.333 -20.667 -61.666 -39 -96.999 -55c-30.667 -13.333 -66.5 -25.666 -107.5 -36.999s-86.167 -17 -135.5 -17c-60 0 -111.333 6 -154 18s-77.5 31 -104.5 57s-46.667 60 -59 102
s-18.5 93 -18.5 153zM369.997 298.999c0 -29.333 3.66699 -52.6641 11 -69.9971s18 -30.5 32 -39.5s31.167 -14.833 51.5 -17.5s43.5 -4 69.5 -4c34 0 66.167 3.16699 96.5 9.5s57.166 13.166 80.499 20.499c26.667 8.66699 51.667 18.667 75 30v183
c-21.333 4 -44.333 7.66699 -69 11c-21.333 3.33301 -45.5 6.16602 -72.5 8.49902s-55.5 3.5 -85.5 3.5c-33.333 0 -61.833 -1.5 -85.5 -4.5s-43.167 -9.33301 -58.5 -19s-26.666 -23.334 -33.999 -41.001s-11 -41.167 -11 -70.5zM216.997 1376.54h705v-176.404h-705
v176.404z" />
    <glyph glyph-name="Abreve" unicode="&#x102;" 
d="M477 1427h318l467 -1427h-265l-120 387h-486l-115 -387h-262zM811 602l-176 604h-4l-176 -604h356zM633 1528c-58.667 0 -109.672 7.33496 -153.005 22.002s-79.166 35.5 -107.499 62.5s-49.5 59.667 -63.5 98s-21 80.833 -21 127.5
c0 7.33301 0.166992 14.666 0.5 21.999s0.833008 14.666 1.5 21.999h121c9.33301 -36 20.333 -65.333 33 -88s27.834 -40.334 45.501 -53.001s38.334 -21.334 62.001 -26.001s50.834 -7 81.501 -7s57.5 2.16699 80.5 6.5s43.333 12.833 61 25.5s32.834 30.334 45.501 53.001
s24 52.334 34 89.001h118c2 -17.333 3 -34 3 -50c0 -46 -7 -87.667 -21 -125s-35.167 -69.333 -63.5 -96s-63.833 -47.167 -106.5 -61.5s-93 -21.5 -151 -21.5z" />
    <glyph glyph-name="abreve" unicode="&#x103;" horiz-adv-x="1180" 
d="M127 299c0 60 8.83008 110.666 26.4971 151.999s41.667 74.666 72 99.999s66 43.666 107 54.999s85.167 17 132.5 17c48 0 91.5 -2.66699 130.5 -8s72.833 -11.333 101.5 -18c32.667 -7.33301 62.334 -15.666 89.001 -24.999v98c0 24.667 -0.833008 45.5 -2.5 62.5
s-4.5 31.833 -8.5 44.5s-9.5 23.334 -16.5 32.001s-15.5 17 -25.5 25c-21.333 15.333 -50.666 26.333 -87.999 33s-86 10 -146 10c-38 0 -74.833 -1.16699 -110.5 -3.5s-67.5 -5.16602 -95.5 -8.49902c-32.667 -3.33301 -63.667 -7 -93 -11v166
c26.667 10.667 59.667 20.334 99 29.001c33.333 7.33301 75 14.166 125 20.499s109.333 9.5 178 9.5c46 0 86.833 -1.83301 122.5 -5.5s67.167 -9.83398 94.5 -18.501s51.5 -20 72.5 -34s39.833 -31.333 56.5 -52c14 -17.333 25.667 -35.666 35 -54.999s17 -42 23 -68
s10.167 -55.833 12.5 -89.5s3.5 -72.834 3.5 -117.501v-639h-201l-18 78c-29.333 -20.667 -61.666 -39 -96.999 -55c-30.667 -13.333 -66.5 -25.666 -107.5 -36.999s-86.167 -17 -135.5 -17c-60 0 -111.333 6 -154 18s-77.5 31 -104.5 57s-46.667 60 -59 102
s-18.5 93 -18.5 153zM369.997 298.999c0 -29.333 3.66699 -52.6641 11 -69.9971s18 -30.5 32 -39.5s31.167 -14.833 51.5 -17.5s43.5 -4 69.5 -4c34 0 66.167 3.16699 96.5 9.5s57.166 13.166 80.499 20.499c26.667 8.66699 51.667 18.667 75 30v183
c-21.333 4 -44.333 7.66699 -69 11c-21.333 3.33301 -45.5 6.16602 -72.5 8.49902s-55.5 3.5 -85.5 3.5c-33.333 0 -61.833 -1.5 -85.5 -4.5s-43.167 -9.33301 -58.5 -19s-26.666 -23.334 -33.999 -41.001s-11 -41.167 -11 -70.5zM585.997 1157
c-58.667 0 -109.672 7.33496 -153.005 22.002s-79.166 35.5 -107.499 62.5s-49.5 59.667 -63.5 98s-21 80.833 -21 127.5c0 7.33301 0.166992 14.666 0.5 21.999s0.833008 14.666 1.5 21.999h121c9.33301 -36 20.333 -65.333 33 -88s27.834 -40.334 45.501 -53.001
s38.334 -21.334 62.001 -26.001s50.834 -7 81.501 -7s57.5 2.16699 80.5 6.5s43.333 12.833 61 25.5s32.834 30.334 45.501 53.001s24 52.334 34 89.001h118c2 -17.333 3 -34 3 -50c0 -46 -7 -87.667 -21 -125s-35.167 -69.333 -63.5 -96s-63.833 -47.167 -106.5 -61.5
s-93 -21.5 -151 -21.5z" />
    <glyph glyph-name="Aogonek" unicode="&#x104;" 
d="M477 1427h318.003l467 -1427c-62.667 -37.333 -107.834 -75.666 -135.501 -114.999s-41.5 -76 -41.5 -110c0 -28 8.33301 -50.333 25 -67s42 -25 76 -25c18.667 0 34.667 1 48 3c7.33301 0.666992 14.333 1.66699 21 3v-168
c-12.667 -4.66699 -26.334 -8.33398 -41.001 -11.001c-12.667 -2.66699 -27.334 -5 -44.001 -7s-34.667 -3 -54 -3c-35.333 0 -68.333 4.66699 -99 14s-57.334 23.166 -80.001 41.499s-40.5 41.333 -53.5 69s-19.5 59.834 -19.5 96.501c0 29.333 4 57.5 12 84.5
s18.333 52.167 31 75.5s26.834 45 42.501 65s31.5 38 47.5 54l-120 387h-486l-115 -387h-262zM811.003 602l-176 604h-4l-176 -604h356z" />
    <glyph glyph-name="aogonek" unicode="&#x105;" horiz-adv-x="1180" 
d="M127 299c0 60 8.83301 110.667 26.5 152s41.667 74.666 72 99.999s66 43.666 107 54.999s85.167 17 132.5 17c48 0 91.5 -2.66699 130.5 -8s72.833 -11.333 101.5 -18c32.667 -7.33301 62.334 -15.666 89.001 -24.999v98c0 24.667 -0.833008 45.5 -2.5 62.5
s-4.5 31.833 -8.5 44.5s-9.5 23.334 -16.5 32.001s-15.5 17 -25.5 25c-21.333 15.333 -50.666 26.333 -87.999 33s-86 10 -146 10c-38 0 -74.833 -1.16699 -110.5 -3.5s-67.5 -5.16602 -95.5 -8.49902c-32.667 -3.33301 -63.667 -7 -93 -11v166
c26.667 10.667 59.667 20.334 99 29.001c33.333 7.33301 75 14.166 125 20.499s109.333 9.5 178 9.5c46 0 86.833 -1.83301 122.5 -5.5s67.167 -9.83398 94.5 -18.501s51.5 -20 72.5 -34s39.833 -31.333 56.5 -52c14 -17.333 25.667 -35.666 35 -54.999s17 -42 23 -68
s10.167 -55.833 12.5 -89.5s3.5 -72.834 3.5 -117.501v-639c-62.667 -40 -107 -79 -133 -117s-39 -74 -39 -108c0 -28 8.16699 -50.333 24.5 -67s41.5 -25 75.5 -25c19.333 0 35.666 1 48.999 3c7.33301 0.666992 14.333 1.66699 21 3v-168
c-12.667 -4.66699 -27.334 -8.33398 -44.001 -11.001c-14 -2.66699 -30.833 -5 -50.5 -7s-41.167 -3 -64.5 -3c-34 0 -65.167 4.5 -93.5 13.5s-52.833 22.5 -73.5 40.5s-36.834 40.167 -48.501 66.5s-17.5 56.5 -17.5 90.5c0 34.667 6 67 18 97s27.333 57.667 46 83
s39.167 48 61.5 68s43.833 37.333 64.5 52l-15 67c-29.333 -20.667 -61.666 -39 -96.999 -55c-30.667 -13.333 -66.5 -25.666 -107.5 -36.999s-86.167 -17 -135.5 -17c-60 0 -111.333 6 -154 18s-77.5 31 -104.5 57s-46.667 60 -59 102s-18.5 93 -18.5 153zM370 299
c0 -29.333 3.66699 -52.6641 11 -69.9971s18 -30.5 32 -39.5s31.167 -14.833 51.5 -17.5s43.5 -4 69.5 -4c34 0 66.167 3.16699 96.5 9.5s57.166 13.166 80.499 20.499c26.667 8.66699 51.667 18.667 75 30v183c-21.333 4 -44.333 7.66699 -69 11
c-21.333 3.33301 -45.5 6.16602 -72.5 8.49902s-55.5 3.5 -85.5 3.5c-33.333 0 -61.833 -1.5 -85.5 -4.5s-43.167 -9.33301 -58.5 -19s-26.666 -23.334 -33.999 -41.001s-11 -41.167 -11 -70.5z" />
    <glyph glyph-name="Cacute" unicode="&#x106;" horiz-adv-x="1179" 
d="M672 -25c-46 0 -91.832 4.33496 -137.499 13.002s-89 23.667 -130 45s-79.167 50.166 -114.5 86.499s-66 82.333 -92 138s-46.333 121.834 -61 198.501s-22 166.334 -22 269.001c0 98.667 8.33301 185.167 25 259.5s39 138.5 67 192.5s60.667 98.5 98 133.5
s76.666 62.833 117.999 83.5s83.333 35.167 126 43.5s83.667 12.5 123 12.5c66.667 0 124.667 -3.33301 174 -10s90.666 -14 123.999 -22c38.667 -9.33301 71.667 -20 99 -32v-172c-27.333 2 -56.666 4 -87.999 6l-91.5 4.5c-34.333 1.66699 -70.166 2.5 -107.499 2.5
c-34 0 -67.833 -1.33301 -101.5 -4s-66 -9.5 -97 -20.5s-59.833 -27.167 -86.5 -48.5s-49.834 -50.5 -69.501 -87.5s-35 -83.167 -46 -138.5s-16.5 -122.333 -16.5 -201c0 -82.667 5.66699 -153.334 17 -212.001s27 -107.667 47 -147s43.333 -70.333 70 -93
s55.667 -39.834 87 -51.501s64 -19 98 -22s68 -4.5 102 -4.5c44 0 84 0.666992 120 2s66.667 2.66602 92 3.99902c30 2 57 4 81 6v-172c-29.333 -12 -64 -22.333 -104 -31c-34.667 -8 -77.167 -15.167 -127.5 -21.5s-108.833 -9.5 -175.5 -9.5zM419.001 1653l424 352.002
c8 -4 17 -9.66699 27 -17c8.66699 -6.66699 18.5 -15.334 29.5 -26.001s23.167 -24.334 36.5 -41.001c13.333 -16 23.333 -30.667 30 -44s10 -26.333 10 -39c0 -29.333 -22.333 -59 -67 -89c-14 -9.33301 -30.5 -19.5 -49.5 -30.5l-61 -34l-66.5 -35.5l-66 -34l-158 -79z
" />
    <glyph glyph-name="cacute" unicode="&#x107;" horiz-adv-x="965" 
d="M94 528c0 100 12.167 184.996 36.5 254.996s57.333 126.833 99 170.5s90.5 75.5 146.5 95.5s115.667 30 179 30c48.667 0 92.334 -3.16699 131.001 -9.5s71.667 -13.166 99 -20.499c32 -8.66699 59.667 -18.334 83 -29.001v-164c-22.667 2 -47.334 4.33301 -74.001 7
l-77 4.5c-28.667 1.66699 -58.667 2.5 -90 2.5c-50 0 -93 -4.33301 -129 -13s-65.333 -25.167 -88 -49.5s-39.334 -58.666 -50.001 -102.999s-16 -102.5 -16 -174.5c0 -73.333 6.16699 -132.666 18.5 -177.999s31.166 -80.5 56.499 -105.5s57 -41.667 95 -50
s83 -12.5 135 -12.5c32.667 0 62.834 0.833008 90.501 2.5s51.834 3.83398 72.501 6.50098c24 2.66699 45.667 6 65 10v-166c-21.333 -12 -47.333 -22.667 -78 -32c-26 -8 -58.667 -15.333 -98 -22s-85.333 -10 -138 -10c-64.667 0 -125.5 8.83301 -182.5 26.5
s-106.667 47.834 -149 90.501s-75.833 99.5 -100.5 170.5s-37 160.167 -37 267.5zM276 1278l407.997 382.998c8.66699 -4.66699 18.334 -11 29.001 -19c9.33301 -7.33301 19.833 -16.666 31.5 -27.999s24.834 -25.666 39.501 -42.999
c12.667 -15.333 22.334 -29.333 29.001 -42s10 -24.667 10 -36c0 -16.667 -7.5 -33.5 -22.5 -50.5s-39.5 -37.833 -73.5 -62.5l-36 -25l-49 -33l-57 -37.5l-59 -38.5l-147 -95z" />
    <glyph glyph-name="Ccircumflex" unicode="&#x108;" horiz-adv-x="1179" 
d="M672 -25c-46 0 -91.832 4.33496 -137.499 13.002s-89 23.667 -130 45s-79.167 50.166 -114.5 86.499s-66 82.333 -92 138s-46.333 121.834 -61 198.501s-22 166.334 -22 269.001c0 98.667 8.33301 185.167 25 259.5s39 138.5 67 192.5s60.667 98.5 98 133.5
s76.666 62.833 117.999 83.5s83.333 35.167 126 43.5s83.667 12.5 123 12.5c66.667 0 124.667 -3.33301 174 -10s90.666 -14 123.999 -22c38.667 -9.33301 71.667 -20 99 -32v-172c-27.333 2 -56.666 4 -87.999 6l-91.5 4.5c-34.333 1.66699 -70.166 2.5 -107.499 2.5
c-34 0 -67.833 -1.33301 -101.5 -4s-66 -9.5 -97 -20.5s-59.833 -27.167 -86.5 -48.5s-49.834 -50.5 -69.501 -87.5s-35 -83.167 -46 -138.5s-16.5 -122.333 -16.5 -201c0 -82.667 5.66699 -153.334 17 -212.001s27 -107.667 47 -147s43.333 -70.333 70 -93
s55.667 -39.834 87 -51.501s64 -19 98 -22s68 -4.5 102 -4.5c44 0 84 0.666992 120 2s66.667 2.66602 92 3.99902c30 2 57 4 81 6v-172c-29.333 -12 -64 -22.333 -104 -31c-34.667 -8 -77.167 -15.167 -127.5 -21.5s-108.833 -9.5 -175.5 -9.5zM477.001 1501l-116.994 57
l101 252c11.333 28 24.166 50.833 38.499 68.5s30.666 31.334 48.999 41.001s39.166 16.334 62.499 20.001s49.666 5.5 78.999 5.5s55.666 -1.83301 78.999 -5.5s44.166 -10.334 62.499 -20.001s34.833 -23.334 49.5 -41.001s27.667 -40.5 39 -68.5l100 -252l-117 -57
l-213 309z" />
    <glyph glyph-name="ccircumflex" unicode="&#x109;" horiz-adv-x="1011" 
d="M94 528c0 100 12.167 184.996 36.5 254.996s57.333 126.833 99 170.5s90.5 75.5 146.5 95.5s115.667 30 179 30c48.667 0 92.334 -3.16699 131.001 -9.5s71.667 -13.166 99 -20.499c32 -8.66699 59.667 -18.334 83 -29.001v-164c-22.667 2 -47.334 4.33301 -74.001 7
l-77 4.5c-28.667 1.66699 -58.667 2.5 -90 2.5c-50 0 -93 -4.33301 -129 -13s-65.333 -25.167 -88 -49.5s-39.334 -58.666 -50.001 -102.999s-16 -102.5 -16 -174.5c0 -73.333 6.16699 -132.666 18.5 -177.999s31.166 -80.5 56.499 -105.5s57 -41.667 95 -50
s83 -12.5 135 -12.5c32.667 0 62.834 0.833008 90.501 2.5s51.834 3.83398 72.501 6.50098c24 2.66699 45.667 6 65 10v-166c-21.333 -12 -47.333 -22.667 -78 -32c-26 -8 -58.667 -15.333 -98 -22s-85.333 -10 -138 -10c-64.667 0 -125.5 8.83301 -182.5 26.5
s-106.667 47.834 -149 90.501s-75.833 99.5 -100.5 170.5s-37 160.167 -37 267.5zM157 1184l153.998 276c14.667 26.667 29.334 48.667 44.001 66s30.834 31.166 48.501 41.499s37.5 17.5 59.5 21.5s47.667 6 77 6s55 -2 77 -6s41.833 -11.167 59.5 -21.5
s34 -24.166 49 -41.499s29.833 -39.333 44.5 -66l153 -276l-113 -74l-270 327l-270 -327z" />
    <glyph glyph-name="Cdotaccent" unicode="&#x10a;" horiz-adv-x="1179" 
d="M672 -25c-46 0 -91.832 4.33496 -137.499 13.002s-89 23.667 -130 45s-79.167 50.166 -114.5 86.499s-66 82.333 -92 138s-46.333 121.834 -61 198.501s-22 166.334 -22 269.001c0 98.667 8.33301 185.167 25 259.5s39 138.5 67 192.5s60.667 98.5 98 133.5
s76.666 62.833 117.999 83.5s83.333 35.167 126 43.5s83.667 12.5 123 12.5c66.667 0 124.667 -3.33301 174 -10s90.666 -14 123.999 -22c38.667 -9.33301 71.667 -20 99 -32v-172c-27.333 2 -56.666 4 -87.999 6l-91.5 4.5c-34.333 1.66699 -70.166 2.5 -107.499 2.5
c-34 0 -67.833 -1.33301 -101.5 -4s-66 -9.5 -97 -20.5s-59.833 -27.167 -86.5 -48.5s-49.834 -50.5 -69.501 -87.5s-35 -83.167 -46 -138.5s-16.5 -122.333 -16.5 -201c0 -82.667 5.66699 -153.334 17 -212.001s27 -107.667 47 -147s43.333 -70.333 70 -93
s55.667 -39.834 87 -51.501s64 -19 98 -22s68 -4.5 102 -4.5c44 0 84 0.666992 120 2s66.667 2.66602 92 3.99902c30 2 57 4 81 6v-172c-29.333 -12 -64 -22.333 -104 -31c-34.667 -8 -77.167 -15.167 -127.5 -21.5s-108.833 -9.5 -175.5 -9.5zM701.001 1548
c-27.333 0 -49.833 2 -67.5 6s-31.834 11 -42.501 21s-18 23.667 -22 41s-6 39.666 -6 66.999s2 49.833 6 67.5s11.333 31.834 22 42.501s24.834 18 42.501 22s40.167 6 67.5 6c26.667 0 48.667 -2 66 -6s31.166 -11.333 41.499 -22s17.5 -24.834 21.5 -42.501
s6 -40.167 6 -67.5s-2 -49.666 -6 -66.999s-11.167 -31 -21.5 -41s-24.166 -17 -41.499 -21s-39.333 -6 -66 -6z" />
    <glyph glyph-name="cdotaccent" unicode="&#x10b;" horiz-adv-x="965" 
d="M94 528c0 100 12.167 184.996 36.5 254.996s57.333 126.833 99 170.5s90.5 75.5 146.5 95.5s115.667 30 179 30c48.667 0 92.334 -3.16699 131.001 -9.5s71.667 -13.166 99 -20.499c32 -8.66699 59.667 -18.334 83 -29.001v-164c-22.667 2 -47.334 4.33301 -74.001 7
l-77 4.5c-28.667 1.66699 -58.667 2.5 -90 2.5c-50 0 -93 -4.33301 -129 -13s-65.333 -25.167 -88 -49.5s-39.334 -58.666 -50.001 -102.999s-16 -102.5 -16 -174.5c0 -73.333 6.16699 -132.666 18.5 -177.999s31.166 -80.5 56.499 -105.5s57 -41.667 95 -50
s83 -12.5 135 -12.5c32.667 0 62.834 0.833008 90.501 2.5s51.834 3.83398 72.501 6.50098c24 2.66699 45.667 6 65 10v-166c-21.333 -12 -47.333 -22.667 -78 -32c-26 -8 -58.667 -15.333 -98 -22s-85.333 -10 -138 -10c-64.667 0 -125.5 8.83301 -182.5 26.5
s-106.667 47.834 -149 90.501s-75.833 99.5 -100.5 170.5s-37 160.167 -37 267.5zM545 1204c-27.333 0 -49.833 2 -67.5 6s-31.834 11 -42.501 21s-18 23.667 -22 41s-6 39.666 -6 66.999s2 49.833 6 67.5s11.333 31.834 22 42.501s24.834 18 42.501 22s40.167 6 67.5 6
c26.667 0 48.667 -2 66 -6s31.166 -11.333 41.499 -22s17.5 -24.834 21.5 -42.501s6 -40.167 6 -67.5s-2 -49.666 -6 -66.999s-11.167 -31 -21.5 -41s-24.166 -17 -41.499 -21s-39.333 -6 -66 -6z" />
    <glyph glyph-name="Ccaron" unicode="&#x10c;" horiz-adv-x="1179" 
d="M672 -25c-46 0 -91.832 4.33496 -137.499 13.002s-89 23.667 -130 45s-79.167 50.166 -114.5 86.499s-66 82.333 -92 138s-46.333 121.834 -61 198.501s-22 166.334 -22 269.001c0 98.667 8.33301 185.167 25 259.5s39 138.5 67 192.5s60.667 98.5 98 133.5
s76.666 62.833 117.999 83.5s83.333 35.167 126 43.5s83.667 12.5 123 12.5c66.667 0 124.667 -3.33301 174 -10s90.666 -14 123.999 -22c38.667 -9.33301 71.667 -20 99 -32v-172c-27.333 2 -56.666 4 -87.999 6l-91.5 4.5c-34.333 1.66699 -70.166 2.5 -107.499 2.5
c-34 0 -67.833 -1.33301 -101.5 -4s-66 -9.5 -97 -20.5s-59.833 -27.167 -86.5 -48.5s-49.834 -50.5 -69.501 -87.5s-35 -83.167 -46 -138.5s-16.5 -122.333 -16.5 -201c0 -82.667 5.66699 -153.334 17 -212.001s27 -107.667 47 -147s43.333 -70.333 70 -93
s55.667 -39.834 87 -51.501s64 -19 98 -22s68 -4.5 102 -4.5c44 0 84 0.666992 120 2s66.667 2.66602 92 3.99902c30 2 57 4 81 6v-172c-29.333 -12 -64 -22.333 -104 -31c-34.667 -8 -77.167 -15.167 -127.5 -21.5s-108.833 -9.5 -175.5 -9.5zM670.001 1518
c-29.333 0 -55.6719 1.66699 -79.0049 5s-44.166 10 -62.499 20s-34.666 23.833 -48.999 41.5s-27.166 40.5 -38.499 68.5l-101 252l117 57l213 -309l213 309l117 -57l-100 -252c-11.333 -28 -24.333 -50.833 -39 -68.5s-31.167 -31.5 -49.5 -41.5
s-39.166 -16.667 -62.499 -20s-49.666 -5 -78.999 -5z" />
    <glyph glyph-name="ccaron" unicode="&#x10d;" horiz-adv-x="1040" 
d="M94 528c0 100 12.167 184.996 36.5 254.996s57.333 126.833 99 170.5s90.5 75.5 146.5 95.5s115.667 30 179 30c48.667 0 92.334 -3.16699 131.001 -9.5s71.667 -13.166 99 -20.499c32 -8.66699 59.667 -18.334 83 -29.001v-164c-22.667 2 -47.334 4.33301 -74.001 7
l-77 4.5c-28.667 1.66699 -58.667 2.5 -90 2.5c-50 0 -93 -4.33301 -129 -13s-65.333 -25.167 -88 -49.5s-39.334 -58.666 -50.001 -102.999s-16 -102.5 -16 -174.5c0 -73.333 6.16699 -132.666 18.5 -177.999s31.166 -80.5 56.499 -105.5s57 -41.667 95 -50
s83 -12.5 135 -12.5c32.667 0 62.834 0.833008 90.501 2.5s51.834 3.83398 72.501 6.50098c24 2.66699 45.667 6 65 10v-166c-21.333 -12 -47.333 -22.667 -78 -32c-26 -8 -58.667 -15.333 -98 -22s-85.333 -10 -138 -10c-64.667 0 -125.5 8.83301 -182.5 26.5
s-106.667 47.834 -149 90.501s-75.833 99.5 -100.5 170.5s-37 160.167 -37 267.5zM569 1155c-29.333 0 -54.998 2 -76.998 6s-41.833 11.167 -59.5 21.5s-33.834 24.166 -48.501 41.499s-29.334 39.333 -44.001 66l-154 276l113 74l270 -328l270 328l113 -74l-153 -276
c-14.667 -26.667 -29.5 -48.667 -44.5 -66s-31.333 -31.166 -49 -41.499s-37.5 -17.5 -59.5 -21.5s-47.667 -6 -77 -6z" />
    <glyph glyph-name="Dcaron" unicode="&#x10e;" horiz-adv-x="1370" 
d="M182 1427l512.005 0.000976562c52.667 0 103.167 -3.66699 151.5 -11s93.166 -20.333 134.499 -39s79 -44.667 113 -78s63 -76 87 -128s42.5 -114.667 55.5 -188s19.5 -159.333 19.5 -258c0 -102 -6 -190.833 -18 -266.5s-29.333 -140.334 -52 -194.001
s-50.334 -97.667 -83.001 -132s-69.834 -61.333 -111.501 -81s-87.334 -33.167 -137.001 -40.5s-102.834 -11 -159.501 -11h-512v1427zM629.005 223.001c34 0 66.999 0.833008 98.999 2.5s61.833 7.5 89.5 17.5s53 25.167 76 45.5s42.667 49.166 59 86.499s29 84.5 38 141.5
s13.5 127.167 13.5 210.5c0 77.333 -4.33301 142.833 -13 196.5s-21 98.167 -37 133.5s-35.167 62.833 -57.5 82.5s-47.5 34.334 -75.5 44.001s-58.167 15.5 -90.5 17.5s-66.166 3 -101.499 3h-207v-981h207zM663.004 1522c-29.333 0 -55.6719 1.66699 -79.0049 5
s-44.166 10 -62.499 20s-34.666 23.833 -48.999 41.5s-27.166 40.5 -38.499 68.5l-101 252l117 57l213 -309l213 309l117 -57l-100 -252c-11.333 -28 -24.333 -50.833 -39 -68.5s-31.167 -31.5 -49.5 -41.5s-39.166 -16.667 -62.499 -20s-49.666 -5 -78.999 -5z" />
    <glyph glyph-name="dcaron" unicode="&#x10f;" horiz-adv-x="1333" 
d="M1207 1559c13.333 -1.33301 27.3311 -2.99902 41.998 -4.99902c12.667 -2 26.334 -4.33301 41.001 -7s29.334 -6.33398 44.001 -11.001c26.667 -9.33301 46.667 -19.333 60 -30s20 -26 20 -46c0 -26 -11.667 -63.333 -35 -112c-4 -10 -9.33301 -22 -16 -36l-21.5 -45.5
l-24.5 -51.5l-25 -52l-62 -127l-148 49zM467.998 -30.999c-59.333 0 -111.499 9.66602 -156.499 28.999s-82.5 50.833 -112.5 94.5s-52.833 100.834 -68.5 171.501s-23.834 157 -24.501 259c-1.33301 101.333 6.16699 187.666 22.5 258.999s40 129.5 71 174.5
s69 77.667 114 98s95.833 30.5 152.5 30.5c52 0 99.333 -4 142 -12s79.667 -16.667 111 -26c36.667 -11.333 69 -23.666 97 -36.999v544h238v-1554h-205l-14 84c-30 -21.333 -64 -40.666 -102 -57.999c-32.667 -14.667 -71.5 -27.834 -116.5 -39.501
s-94.5 -17.5 -148.5 -17.5zM551.999 182c34.667 0 67.8301 2.50098 99.4971 7.50098s59.834 10.833 84.501 17.5c28.667 7.33301 55.334 16 80.001 26v603c-27.333 6.66699 -56.333 13 -87 19c-26 4.66699 -55.833 9 -89.5 13s-68.167 6 -103.5 6
c-36.667 0 -66.667 -6.16699 -90 -18.5s-41.666 -32.833 -54.999 -61.5s-22.5 -66.334 -27.5 -113.001s-7.5 -104.334 -7.5 -173.001c0 -59.333 2.33301 -109.666 7 -150.999s14 -75 28 -101s33.833 -44.833 59.5 -56.5s59.5 -17.5 101.5 -17.5z" />
    <glyph glyph-name="Dcroat" unicode="&#x110;" horiz-adv-x="1419" 
d="M231 605l-170.995 0.000976562v218h171v604h512c52.667 0 103.167 -3.66699 151.5 -11s93.166 -20.333 134.499 -39s79 -44.667 113 -78s63 -76 87 -128s42.5 -114.667 55.5 -188s19.5 -159.333 19.5 -258c0 -102 -6 -190.833 -18 -266.5s-29.333 -140.334 -52 -194.001
s-50.334 -97.667 -83.001 -132s-69.834 -61.333 -111.501 -81s-87.334 -33.167 -137.001 -40.5s-102.834 -11 -159.501 -11h-512v605zM678.005 223.001c34 0 66.999 0.833008 98.999 2.5s61.833 7.5 89.5 17.5s53 25.167 76 45.5s42.667 49.166 59 86.499s29 84.5 38 141.5
s13.5 127.167 13.5 210.5c0 77.333 -4.33301 142.833 -13 196.5s-21 98.167 -37 133.5s-35.167 62.833 -57.5 82.5s-47.5 34.334 -75.5 44.001s-58.167 15.5 -90.5 17.5s-66.166 3 -101.499 3h-207v-381h324v-218h-324v-382h207z" />
    <glyph glyph-name="dcroat" unicode="&#x111;" horiz-adv-x="1197" 
d="M468 -31c-59.333 0 -111.499 9.66602 -156.499 28.999s-82.5 50.833 -112.5 94.5s-52.833 100.834 -68.5 171.501s-23.834 157 -24.501 259c-1.33301 101.333 6.16699 187.666 22.5 258.999s40 129.5 71 174.5s69 77.667 114 98s95.833 30.5 152.5 30.5
c52 0 99.333 -4 142 -12s79.667 -16.667 111 -26c36.667 -11.333 69 -23.666 97 -36.999v194h-285v180h285v170h238v-170h145v-180h-145v-1204h-205l-14 84c-30 -21.333 -64 -40.666 -102 -57.999c-32.667 -14.667 -71.5 -27.834 -116.5 -39.501s-94.5 -17.5 -148.5 -17.5z
M552.001 181.999c34.667 0 67.8301 2.50098 99.4971 7.50098s59.834 10.833 84.501 17.5c28.667 7.33301 55.334 16 80.001 26v603c-27.333 6.66699 -56.333 13 -87 19c-26 4.66699 -55.833 9 -89.5 13s-68.167 6 -103.5 6c-36.667 0 -66.667 -6.16699 -90 -18.5
s-41.666 -32.833 -54.999 -61.5s-22.5 -66.334 -27.5 -113.001s-7.5 -104.334 -7.5 -173.001c0 -59.333 2.33301 -109.666 7 -150.999s14 -75 28 -101s33.833 -44.833 59.5 -56.5s59.5 -17.5 101.5 -17.5z" />
    <glyph glyph-name="Emacron" unicode="&#x112;" horiz-adv-x="1149" 
d="M182 1427h858v-223h-618v-375h518v-219h-518v-387h635v-223h-875v1427zM276 1757h705v-196h-705v196z" />
    <glyph glyph-name="emacron" unicode="&#x113;" horiz-adv-x="1085" 
d="M94 539c0 110 14.3271 200.329 42.9941 270.996s66.667 126.334 114 167.001s101.333 68.834 162 84.501s123 23.5 187 23.5c80.667 0 147.5 -11 200.5 -33s95.167 -52.833 126.5 -92.5s53.333 -87.167 66 -142.5s19 -116.333 19 -183
c0 -31.333 -1.16699 -63.666 -3.5 -96.999s-5.5 -67.666 -9.5 -102.999h-661c0.666992 -47.333 5.83398 -87.166 15.501 -119.499s25.667 -58.666 48 -78.999s52 -35 89 -44s83.167 -13.5 138.5 -13.5c46.667 0 90.334 1.16699 131.001 3.5s76.334 5.16602 107.001 8.49902
c36 3.33301 68.667 7.66602 98 12.999v-166c-34 -12.667 -71 -24 -111 -34c-34 -8.66699 -73.667 -16.5 -119 -23.5s-93.666 -10.5 -144.999 -10.5c-78.667 0 -148.667 9.83301 -210 29.5s-113.166 52 -155.499 97s-74.666 103.833 -96.999 176.5s-33.5 161.667 -33.5 267z
M792.994 611.996l0.000976562 38.001c0 40 -2.5 74.833 -7.5 104.5s-15.167 54.167 -30.5 73.5s-37 33.666 -65 42.999s-65.333 14 -112 14c-50 0 -90.833 -5.83301 -122.5 -17.5s-56.334 -29 -74.001 -52s-29.667 -51.5 -36 -85.5s-9.5 -73.333 -9.5 -118h457z
M238.995 1396h705v-196h-705v196z" />
    <glyph glyph-name="Ebreve" unicode="&#x114;" horiz-adv-x="1149" 
d="M182 1427h858v-223h-618v-375h518v-219h-518v-387h635v-223h-875v1427zM642 1508c-58.667 0 -109.672 7.33496 -153.005 22.002s-79.166 35.5 -107.499 62.5s-49.5 59.667 -63.5 98s-21 80.833 -21 127.5c0 7.33301 0.166992 14.666 0.5 21.999
s0.833008 14.666 1.5 21.999h121c9.33301 -36 20.333 -65.333 33 -88s27.834 -40.334 45.501 -53.001s38.334 -21.334 62.001 -26.001s50.834 -7 81.501 -7s57.5 2.16699 80.5 6.5s43.333 12.833 61 25.5s32.834 30.334 45.501 53.001s24 52.334 34 89.001h118
c2 -17.333 3 -34 3 -50c0 -46 -7 -87.667 -21 -125s-35.167 -69.333 -63.5 -96s-63.833 -47.167 -106.5 -61.5s-93 -21.5 -151 -21.5z" />
    <glyph glyph-name="ebreve" unicode="&#x115;" horiz-adv-x="1085" 
d="M94 539c0 110 14.3271 200.329 42.9941 270.996s66.667 126.334 114 167.001s101.333 68.834 162 84.501s123 23.5 187 23.5c80.667 0 147.5 -11 200.5 -33s95.167 -52.833 126.5 -92.5s53.333 -87.167 66 -142.5s19 -116.333 19 -183
c0 -31.333 -1.16699 -63.666 -3.5 -96.999s-5.5 -67.666 -9.5 -102.999h-661c0.666992 -47.333 5.83398 -87.166 15.501 -119.499s25.667 -58.666 48 -78.999s52 -35 89 -44s83.167 -13.5 138.5 -13.5c46.667 0 90.334 1.16699 131.001 3.5s76.334 5.16602 107.001 8.49902
c36 3.33301 68.667 7.66602 98 12.999v-166c-34 -12.667 -71 -24 -111 -34c-34 -8.66699 -73.667 -16.5 -119 -23.5s-93.666 -10.5 -144.999 -10.5c-78.667 0 -148.667 9.83301 -210 29.5s-113.166 52 -155.499 97s-74.666 103.833 -96.999 176.5s-33.5 161.667 -33.5 267z
M792.994 611.996l0.000976562 38.001c0 40 -2.5 74.833 -7.5 104.5s-15.167 54.167 -30.5 73.5s-37 33.666 -65 42.999s-65.333 14 -112 14c-50 0 -90.833 -5.83301 -122.5 -17.5s-56.334 -29 -74.001 -52s-29.667 -51.5 -36 -85.5s-9.5 -73.333 -9.5 -118h457z
M583.995 1157c-58.667 0 -109.672 7.33496 -153.005 22.002s-79.166 35.5 -107.499 62.5s-49.5 59.667 -63.5 98s-21 80.833 -21 127.5c0 7.33301 0.166992 14.666 0.5 21.999s0.833008 14.666 1.5 21.999h121c9.33301 -36 20.333 -65.333 33 -88
s27.834 -40.334 45.501 -53.001s38.334 -21.334 62.001 -26.001s50.834 -7 81.501 -7s57.5 2.16699 80.5 6.5s43.333 12.833 61 25.5s32.834 30.334 45.501 53.001s24 52.334 34 89.001h118c2 -17.333 3 -34 3 -50c0 -46 -7 -87.667 -21 -125s-35.167 -69.333 -63.5 -96
s-63.833 -47.167 -106.5 -61.5s-93 -21.5 -151 -21.5z" />
    <glyph glyph-name="Edotaccent" unicode="&#x116;" horiz-adv-x="1149" 
d="M182 1427h858v-223h-618v-375h518v-219h-518v-387h635v-223h-875v1427zM637 1536c-27.333 0 -49.833 2 -67.5 6s-31.834 11 -42.501 21s-18 23.667 -22 41s-6 39.666 -6 66.999s2 49.833 6 67.5s11.333 31.834 22 42.501s24.834 18 42.501 22s40.167 6 67.5 6
c26.667 0 48.667 -2 66 -6s31.166 -11.333 41.499 -22s17.5 -24.834 21.5 -42.501s6 -40.167 6 -67.5s-2 -49.666 -6 -66.999s-11.167 -31 -21.5 -41s-24.166 -17 -41.499 -21s-39.333 -6 -66 -6z" />
    <glyph glyph-name="edotaccent" unicode="&#x117;" horiz-adv-x="1085" 
d="M94 539c0 110 14.3271 200.329 42.9941 270.996s66.667 126.334 114 167.001s101.333 68.834 162 84.501s123 23.5 187 23.5c80.667 0 147.5 -11 200.5 -33s95.167 -52.833 126.5 -92.5s53.333 -87.167 66 -142.5s19 -116.333 19 -183
c0 -31.333 -1.16699 -63.666 -3.5 -96.999s-5.5 -67.666 -9.5 -102.999h-661c0.666992 -47.333 5.83398 -87.166 15.501 -119.499s25.667 -58.666 48 -78.999s52 -35 89 -44s83.167 -13.5 138.5 -13.5c46.667 0 90.334 1.16699 131.001 3.5s76.334 5.16602 107.001 8.49902
c36 3.33301 68.667 7.66602 98 12.999v-166c-34 -12.667 -71 -24 -111 -34c-34 -8.66699 -73.667 -16.5 -119 -23.5s-93.666 -10.5 -144.999 -10.5c-78.667 0 -148.667 9.83301 -210 29.5s-113.166 52 -155.499 97s-74.666 103.833 -96.999 176.5s-33.5 161.667 -33.5 267z
M792.994 611.996l0.000976562 38.001c0 40 -2.5 74.833 -7.5 104.5s-15.167 54.167 -30.5 73.5s-37 33.666 -65 42.999s-65.333 14 -112 14c-50 0 -90.833 -5.83301 -122.5 -17.5s-56.334 -29 -74.001 -52s-29.667 -51.5 -36 -85.5s-9.5 -73.333 -9.5 -118h457z
M583.995 1182c-27.333 0 -49.833 2 -67.5 6s-31.834 11 -42.501 21s-18 23.667 -22 41s-6 39.666 -6 66.999s2 49.833 6 67.5s11.333 31.834 22 42.501s24.834 18 42.501 22s40.167 6 67.5 6c26.667 0 48.667 -2 66 -6s31.166 -11.333 41.499 -22s17.5 -24.834 21.5 -42.501
s6 -40.167 6 -67.5s-2 -49.666 -6 -66.999s-11.167 -31 -21.5 -41s-24.166 -17 -41.499 -21s-39.333 -6 -66 -6z" />
    <glyph glyph-name="Eogonek" unicode="&#x118;" horiz-adv-x="1149" 
d="M182 1427h857.999v-223h-618v-375h518v-219h-518v-387h635v-223c-62.667 -40 -107 -79 -133 -117s-39 -74 -39 -108c0 -28 8.16699 -50.333 24.5 -67s41.5 -25 75.5 -25c19.333 0 35.666 1 48.999 3c7.33301 0.666992 14.333 1.66699 21 3v-168
c-13.333 -4.66699 -27.333 -8.33398 -42 -11.001c-13.333 -2.66699 -28.166 -5 -44.499 -7s-34.166 -3 -53.499 -3c-35.333 0 -68.333 4.66699 -99 14s-57.334 23.166 -80.001 41.499s-40.5 41.333 -53.5 69s-19.5 59.834 -19.5 96.501c0 29.333 4 57.333 12 84
s18.333 51.834 31 75.501s26.834 45.5 42.501 65.5s31.167 38 46.5 54h-613v1427z" />
    <glyph glyph-name="eogonek" unicode="&#x119;" horiz-adv-x="1085" 
d="M94 539c0 110 14.3311 200.329 42.998 270.996s66.667 126.334 114 167.001s101.333 68.834 162 84.501s123 23.5 187 23.5c80.667 0 147.5 -11 200.5 -33s95.167 -52.833 126.5 -92.5s53.333 -87.167 66 -142.5s19 -116.333 19 -183
c0 -31.333 -1.16699 -63.666 -3.5 -96.999s-5.5 -67.666 -9.5 -102.999h-661c0.666992 -47.333 5.83398 -87.166 15.501 -119.499s25.667 -58.666 48 -78.999s52 -35 89 -44s83.167 -13.5 138.5 -13.5c46.667 0 90.334 1.16699 131.001 3.5s76.334 5.16602 107.001 8.49902
c36 3.33301 68.667 7.66602 98 12.999v-166c-50 -22 -91.667 -44.5 -125 -67.5s-60.333 -45.833 -81 -68.5s-35.334 -44.667 -44.001 -66s-13 -41.333 -13 -60c0 -28 8.33301 -50.333 25 -67s42 -25 76 -25c18.667 0 34.667 1 48 3c7.33301 0.666992 14.333 1.66699 21 3
v-168c-12.667 -4.66699 -26.334 -8.33398 -41.001 -11.001c-12.667 -2.66699 -27.334 -5 -44.001 -7s-34.667 -3 -54 -3c-35.333 0 -68.333 4.66699 -99 14s-57.334 23.166 -80.001 41.499s-40.5 41.333 -53.5 69s-19.5 59.834 -19.5 96.501c0 26 3.16699 50.833 9.5 74.5
s14.833 45.834 25.5 66.501s22.834 40 36.501 58s27.5 34.333 41.5 49h-4c-78.667 0 -148.667 9.83301 -210 29.5s-113.166 52 -155.499 97s-74.666 103.833 -96.999 176.5s-33.5 161.667 -33.5 267zM792.998 611.996l0.000976562 38.001c0 40 -2.5 74.833 -7.5 104.5
s-15.167 54.167 -30.5 73.5s-37 33.666 -65 42.999s-65.333 14 -112 14c-50 0 -90.833 -5.83301 -122.5 -17.5s-56.334 -29 -74.001 -52s-29.667 -51.5 -36 -85.5s-9.5 -73.333 -9.5 -118h457z" />
    <glyph glyph-name="Ecaron" unicode="&#x11a;" horiz-adv-x="1149" 
d="M182 1427h858v-223h-618v-375h518v-219h-518v-387h635v-223h-875v1427zM639 1515c-29.333 0 -55.6719 1.66699 -79.0049 5s-44.166 10 -62.499 20s-34.666 23.833 -48.999 41.5s-27.166 40.5 -38.499 68.5l-101 252l117 57l213 -309l213 309l117 -57l-100 -252
c-11.333 -28 -24.333 -50.833 -39 -68.5s-31.167 -31.5 -49.5 -41.5s-39.166 -16.667 -62.499 -20s-49.666 -5 -78.999 -5z" />
    <glyph glyph-name="ecaron" unicode="&#x11b;" horiz-adv-x="1085" 
d="M94 539c0 110 14.3271 200.329 42.9941 270.996s66.667 126.334 114 167.001s101.333 68.834 162 84.501s123 23.5 187 23.5c80.667 0 147.5 -11 200.5 -33s95.167 -52.833 126.5 -92.5s53.333 -87.167 66 -142.5s19 -116.333 19 -183
c0 -31.333 -1.16699 -63.666 -3.5 -96.999s-5.5 -67.666 -9.5 -102.999h-661c0.666992 -47.333 5.83398 -87.166 15.501 -119.499s25.667 -58.666 48 -78.999s52 -35 89 -44s83.167 -13.5 138.5 -13.5c46.667 0 90.334 1.16699 131.001 3.5s76.334 5.16602 107.001 8.49902
c36 3.33301 68.667 7.66602 98 12.999v-166c-34 -12.667 -71 -24 -111 -34c-34 -8.66699 -73.667 -16.5 -119 -23.5s-93.666 -10.5 -144.999 -10.5c-78.667 0 -148.667 9.83301 -210 29.5s-113.166 52 -155.499 97s-74.666 103.833 -96.999 176.5s-33.5 161.667 -33.5 267z
M792.994 611.996l0.000976562 38.001c0 40 -2.5 74.833 -7.5 104.5s-15.167 54.167 -30.5 73.5s-37 33.666 -65 42.999s-65.333 14 -112 14c-50 0 -90.833 -5.83301 -122.5 -17.5s-56.334 -29 -74.001 -52s-29.667 -51.5 -36 -85.5s-9.5 -73.333 -9.5 -118h457z
M572.995 1155c-29.333 0 -54.998 2 -76.998 6s-41.833 11.167 -59.5 21.5s-33.834 24.166 -48.501 41.499s-29.334 39.333 -44.001 66l-154 276l113 74l270 -328l270 328l113 -74l-153 -276c-14.667 -26.667 -29.5 -48.667 -44.5 -66s-31.333 -31.166 -49 -41.499
s-37.5 -17.5 -59.5 -21.5s-47.667 -6 -77 -6z" />
    <glyph glyph-name="Gcircumflex" unicode="&#x11c;" horiz-adv-x="1350" 
d="M115 727c0 136.667 14.8311 251.498 44.498 344.498s72 168 127 225s121.167 97.833 198.5 122.5s164 37 260 37c64.667 0 122.5 -3.33301 173.5 -10s94.833 -14 131.5 -22c42 -9.33301 79.667 -19.666 113 -30.999v-181c-36 4 -74.667 7.33301 -116 10
c-35.333 2.66699 -75.666 5.16699 -120.999 7.5s-92 3.5 -140 3.5c-83.333 0 -152.333 -8.83301 -207 -26.5s-98 -46.5 -130 -86.5s-54.5 -92.167 -67.5 -156.5s-19.5 -143.166 -19.5 -236.499c0 -95.333 6.83301 -176.833 20.5 -244.5s36.167 -123.167 67.5 -166.5
s72.666 -75.166 123.999 -95.499s114.666 -30.5 189.999 -30.5c32.667 0 62.334 1 89.001 3s49.334 4.66699 68.001 8c22 3.33301 41.333 7.33301 58 12v367h-260v219h498v-731c-39.333 -18.667 -82.333 -35.334 -129 -50.001c-40 -12.667 -87.167 -24 -141.5 -34
s-113.166 -15 -176.499 -15c-103.333 0 -195.5 11.667 -276.5 35s-149.5 64 -205.5 122s-98.833 135.667 -128.5 233s-44.5 220 -44.5 368zM529.998 1518l-116.994 57l101 252c11.333 28 24.166 50.833 38.499 68.5s30.666 31.334 48.999 41.001
s39.166 16.334 62.499 20.001s49.666 5.5 78.999 5.5s55.666 -1.83301 78.999 -5.5s44.166 -10.334 62.499 -20.001s34.833 -23.334 49.5 -41.001s27.667 -40.5 39 -68.5l100 -252l-117 -57l-213 309z" />
    <glyph glyph-name="gcircumflex" unicode="&#x11d;" horiz-adv-x="1228" 
d="M249 -264c24 -5.33301 51.6621 -9.66699 82.9951 -13c26.667 -3.33301 58.834 -6.16602 96.501 -8.49902s79.5 -3.5 125.5 -3.5c56 0 101.5 2.16699 136.5 6.5s62.333 12 82 23s33.167 26 40.5 45s11 42.833 11 71.5v184c-30 -12.667 -61.667 -24 -95 -34
c-29.333 -8.66699 -62.5 -16.5 -99.5 -23.5s-75.833 -10.5 -116.5 -10.5c-70 0 -130.167 9.5 -180.5 28.5s-91.666 50.5 -123.999 94.5s-56.166 101.667 -71.499 173s-23 159 -23 263c0 85.333 8.33301 161.833 25 229.5s41.167 125 73.5 172s72.333 83 120 108
s102.5 37.5 164.5 37.5c52.667 0 100.834 -5.33301 144.501 -16s81.5 -22.334 113.5 -35.001c36.667 -15.333 70 -32.333 100 -51l27 78h180v-1213c0 -63.333 -9.16699 -116.833 -27.5 -160.5s-46 -79 -83 -106s-83.167 -46.333 -138.5 -58s-119.666 -17.5 -192.999 -17.5
c-46.667 0 -92 3.16699 -136 9.5s-83.667 13.5 -119 21.5c-41.333 8.66699 -80 19 -116 31v174zM596.995 185.999c28 0 55.502 1.16992 82.502 3.50293s51.167 5.16602 72.5 8.49902c25.333 3.33301 49.333 7.66602 72 12.999v604c-26 9.33301 -54 17.666 -84 24.999
c-25.333 6.66699 -54.333 12.667 -87 18s-66.334 8 -101.001 8c-35.333 0 -65 -5.66699 -89 -17s-43.333 -30.333 -58 -57s-25.167 -62 -31.5 -106s-9.5 -98.667 -9.5 -164c0 -60 2 -111.333 6 -154s13.667 -77.5 29 -104.5s38.666 -46.667 69.999 -59s74 -18.5 128 -18.5z
M262.997 1225l153.998 276c14.667 26.667 29.334 48.667 44.001 66s30.834 31.166 48.501 41.499s37.5 17.5 59.5 21.5s47.667 6 77 6s55 -2 77 -6s41.833 -11.167 59.5 -21.5s34 -24.166 49 -41.499s29.833 -39.333 44.5 -66l153 -276l-113 -74l-270 327l-270 -327z" />
    <glyph glyph-name="Gbreve" unicode="&#x11e;" horiz-adv-x="1350" 
d="M115 727c0 136.667 14.8311 251.498 44.498 344.498s72 168 127 225s121.167 97.833 198.5 122.5s164 37 260 37c64.667 0 122.5 -3.33301 173.5 -10s94.833 -14 131.5 -22c42 -9.33301 79.667 -19.666 113 -30.999v-181c-36 4 -74.667 7.33301 -116 10
c-35.333 2.66699 -75.666 5.16699 -120.999 7.5s-92 3.5 -140 3.5c-83.333 0 -152.333 -8.83301 -207 -26.5s-98 -46.5 -130 -86.5s-54.5 -92.167 -67.5 -156.5s-19.5 -143.166 -19.5 -236.499c0 -95.333 6.83301 -176.833 20.5 -244.5s36.167 -123.167 67.5 -166.5
s72.666 -75.166 123.999 -95.499s114.666 -30.5 189.999 -30.5c32.667 0 62.334 1 89.001 3s49.334 4.66699 68.001 8c22 3.33301 41.333 7.33301 58 12v367h-260v219h498v-731c-39.333 -18.667 -82.333 -35.334 -129 -50.001c-40 -12.667 -87.167 -24 -141.5 -34
s-113.166 -15 -176.499 -15c-103.333 0 -195.5 11.667 -276.5 35s-149.5 64 -205.5 122s-98.833 135.667 -128.5 233s-44.5 220 -44.5 368zM718.998 1528c-58.667 0 -109.672 7.33496 -153.005 22.002s-79.166 35.5 -107.499 62.5s-49.5 59.667 -63.5 98
s-21 80.833 -21 127.5c0 7.33301 0.166992 14.666 0.5 21.999s0.833008 14.666 1.5 21.999h121c9.33301 -36 20.333 -65.333 33 -88s27.834 -40.334 45.501 -53.001s38.334 -21.334 62.001 -26.001s50.834 -7 81.501 -7s57.5 2.16699 80.5 6.5s43.333 12.833 61 25.5
s32.834 30.334 45.501 53.001s24 52.334 34 89.001h118c2 -17.333 3 -34 3 -50c0 -46 -7 -87.667 -21 -125s-35.167 -69.333 -63.5 -96s-63.833 -47.167 -106.5 -61.5s-93 -21.5 -151 -21.5z" />
    <glyph glyph-name="gbreve" unicode="&#x11f;" horiz-adv-x="1228" 
d="M249 -264c24 -5.33301 51.6621 -9.66699 82.9951 -13c26.667 -3.33301 58.834 -6.16602 96.501 -8.49902s79.5 -3.5 125.5 -3.5c56 0 101.5 2.16699 136.5 6.5s62.333 12 82 23s33.167 26 40.5 45s11 42.833 11 71.5v184c-30 -12.667 -61.667 -24 -95 -34
c-29.333 -8.66699 -62.5 -16.5 -99.5 -23.5s-75.833 -10.5 -116.5 -10.5c-70 0 -130.167 9.5 -180.5 28.5s-91.666 50.5 -123.999 94.5s-56.166 101.667 -71.499 173s-23 159 -23 263c0 85.333 8.33301 161.833 25 229.5s41.167 125 73.5 172s72.333 83 120 108
s102.5 37.5 164.5 37.5c52.667 0 100.834 -5.33301 144.501 -16s81.5 -22.334 113.5 -35.001c36.667 -15.333 70 -32.333 100 -51l27 78h180v-1213c0 -63.333 -9.16699 -116.833 -27.5 -160.5s-46 -79 -83 -106s-83.167 -46.333 -138.5 -58s-119.666 -17.5 -192.999 -17.5
c-46.667 0 -92 3.16699 -136 9.5s-83.667 13.5 -119 21.5c-41.333 8.66699 -80 19 -116 31v174zM596.995 185.999c28 0 55.502 1.16992 82.502 3.50293s51.167 5.16602 72.5 8.49902c25.333 3.33301 49.333 7.66602 72 12.999v604c-26 9.33301 -54 17.666 -84 24.999
c-25.333 6.66699 -54.333 12.667 -87 18s-66.334 8 -101.001 8c-35.333 0 -65 -5.66699 -89 -17s-43.333 -30.333 -58 -57s-25.167 -62 -31.5 -106s-9.5 -98.667 -9.5 -164c0 -60 2 -111.333 6 -154s13.667 -77.5 29 -104.5s38.666 -46.667 69.999 -59s74 -18.5 128 -18.5z
M650.997 1176c-58.667 0 -109.672 7.33496 -153.005 22.002s-79.166 35.5 -107.499 62.5s-49.5 59.667 -63.5 98s-21 80.833 -21 127.5c0 7.33301 0.166992 14.666 0.5 21.999s0.833008 14.666 1.5 21.999h121c9.33301 -36 20.333 -65.333 33 -88
s27.834 -40.334 45.501 -53.001s38.334 -21.334 62.001 -26.001s50.834 -7 81.501 -7s57.5 2.16699 80.5 6.5s43.333 12.833 61 25.5s32.834 30.334 45.501 53.001s24 52.334 34 89.001h118c2 -17.333 3 -34 3 -50c0 -46 -7 -87.667 -21 -125s-35.167 -69.333 -63.5 -96
s-63.833 -47.167 -106.5 -61.5s-93 -21.5 -151 -21.5z" />
    <glyph glyph-name="Gdotaccent" unicode="&#x120;" horiz-adv-x="1350" 
d="M115 727c0 136.667 14.8311 251.498 44.498 344.498s72 168 127 225s121.167 97.833 198.5 122.5s164 37 260 37c64.667 0 122.5 -3.33301 173.5 -10s94.833 -14 131.5 -22c42 -9.33301 79.667 -19.666 113 -30.999v-181c-36 4 -74.667 7.33301 -116 10
c-35.333 2.66699 -75.666 5.16699 -120.999 7.5s-92 3.5 -140 3.5c-83.333 0 -152.333 -8.83301 -207 -26.5s-98 -46.5 -130 -86.5s-54.5 -92.167 -67.5 -156.5s-19.5 -143.166 -19.5 -236.499c0 -95.333 6.83301 -176.833 20.5 -244.5s36.167 -123.167 67.5 -166.5
s72.666 -75.166 123.999 -95.499s114.666 -30.5 189.999 -30.5c32.667 0 62.334 1 89.001 3s49.334 4.66699 68.001 8c22 3.33301 41.333 7.33301 58 12v367h-260v219h498v-731c-39.333 -18.667 -82.333 -35.334 -129 -50.001c-40 -12.667 -87.167 -24 -141.5 -34
s-113.166 -15 -176.499 -15c-103.333 0 -195.5 11.667 -276.5 35s-149.5 64 -205.5 122s-98.833 135.667 -128.5 233s-44.5 220 -44.5 368zM743.998 1569c-27.333 0 -49.833 2 -67.5 6s-31.834 11 -42.501 21s-18 23.667 -22 41s-6 39.666 -6 66.999s2 49.833 6 67.5
s11.333 31.834 22 42.501s24.834 18 42.501 22s40.167 6 67.5 6c26.667 0 48.667 -2 66 -6s31.166 -11.333 41.499 -22s17.5 -24.834 21.5 -42.501s6 -40.167 6 -67.5s-2 -49.666 -6 -66.999s-11.167 -31 -21.5 -41s-24.166 -17 -41.499 -21s-39.333 -6 -66 -6z" />
    <glyph glyph-name="gdotaccent" unicode="&#x121;" horiz-adv-x="1228" 
d="M249 -264c24 -5.33301 51.6621 -9.66699 82.9951 -13c26.667 -3.33301 58.834 -6.16602 96.501 -8.49902s79.5 -3.5 125.5 -3.5c56 0 101.5 2.16699 136.5 6.5s62.333 12 82 23s33.167 26 40.5 45s11 42.833 11 71.5v184c-30 -12.667 -61.667 -24 -95 -34
c-29.333 -8.66699 -62.5 -16.5 -99.5 -23.5s-75.833 -10.5 -116.5 -10.5c-70 0 -130.167 9.5 -180.5 28.5s-91.666 50.5 -123.999 94.5s-56.166 101.667 -71.499 173s-23 159 -23 263c0 85.333 8.33301 161.833 25 229.5s41.167 125 73.5 172s72.333 83 120 108
s102.5 37.5 164.5 37.5c52.667 0 100.834 -5.33301 144.501 -16s81.5 -22.334 113.5 -35.001c36.667 -15.333 70 -32.333 100 -51l27 78h180v-1213c0 -63.333 -9.16699 -116.833 -27.5 -160.5s-46 -79 -83 -106s-83.167 -46.333 -138.5 -58s-119.666 -17.5 -192.999 -17.5
c-46.667 0 -92 3.16699 -136 9.5s-83.667 13.5 -119 21.5c-41.333 8.66699 -80 19 -116 31v174zM596.995 185.999c28 0 55.502 1.16992 82.502 3.50293s51.167 5.16602 72.5 8.49902c25.333 3.33301 49.333 7.66602 72 12.999v604c-26 9.33301 -54 17.666 -84 24.999
c-25.333 6.66699 -54.333 12.667 -87 18s-66.334 8 -101.001 8c-35.333 0 -65 -5.66699 -89 -17s-43.333 -30.333 -58 -57s-25.167 -62 -31.5 -106s-9.5 -98.667 -9.5 -164c0 -60 2 -111.333 6 -154s13.667 -77.5 29 -104.5s38.666 -46.667 69.999 -59s74 -18.5 128 -18.5z
M635.997 1204c-27.333 0 -49.833 2 -67.5 6s-31.834 11 -42.501 21s-18 23.667 -22 41s-6 39.666 -6 66.999s2 49.833 6 67.5s11.333 31.834 22 42.501s24.834 18 42.501 22s40.167 6 67.5 6c26.667 0 48.667 -2 66 -6s31.166 -11.333 41.499 -22s17.5 -24.834 21.5 -42.501
s6 -40.167 6 -67.5s-2 -49.666 -6 -66.999s-11.167 -31 -21.5 -41s-24.166 -17 -41.499 -21s-39.333 -6 -66 -6z" />
    <glyph glyph-name="Gcommaaccent" unicode="&#x122;" horiz-adv-x="1350" 
d="M115 727c0 136.667 14.8311 251.498 44.498 344.498s72 168 127 225s121.167 97.833 198.5 122.5s164 37 260 37c64.667 0 122.5 -3.33301 173.5 -10s94.833 -14 131.5 -22c42 -9.33301 79.667 -19.666 113 -30.999v-181c-36 4 -74.667 7.33301 -116 10
c-35.333 2.66699 -75.666 5.16699 -120.999 7.5s-92 3.5 -140 3.5c-83.333 0 -152.333 -8.83301 -207 -26.5s-98 -46.5 -130 -86.5s-54.5 -92.167 -67.5 -156.5s-19.5 -143.166 -19.5 -236.499c0 -95.333 6.83301 -176.833 20.5 -244.5s36.167 -123.167 67.5 -166.5
s72.666 -75.166 123.999 -95.499s114.666 -30.5 189.999 -30.5c32.667 0 62.334 1 89.001 3s49.334 4.66699 68.001 8c22 3.33301 41.333 7.33301 58 12v367h-260v219h498v-731c-39.333 -18.667 -82.333 -35.334 -129 -50.001c-40 -12.667 -87.167 -24 -141.5 -34
s-113.166 -15 -176.499 -15c-103.333 0 -195.5 11.667 -276.5 35s-149.5 64 -205.5 122s-98.833 135.667 -128.5 233s-44.5 220 -44.5 368zM708.998 -91.002c9.33301 0 19.665 -0.668945 30.998 -2.00195c9.33301 -1.33301 20.333 -3.16602 33 -5.49902
s26.334 -5.83301 41.001 -10.5c26 -8.66699 45 -18.167 57 -28.5s18 -24.166 18 -41.499c0 -12 -2.66699 -26.167 -8 -42.5s-13 -35.5 -23 -57.5c-11.333 -24 -24.166 -49.167 -38.499 -75.5l-40.5 -71.5l-45 -74l-122 55l97 354v0z" />
    </font>
</defs>
</svg>
